<mxfile modified="2024-05-14T00:29:25.925Z" host="app.diagrams.net" agent="Mozilla/5.0 (Macintosh; Intel Mac OS X 10_15_7) AppleWebKit/537.36 (KHTML, like Gecko) Chrome/124.0.0.0 Safari/537.36" etag="tKX9l9Oa9PuEfrxnJq4d" version="24.4.0" type="device">
  <diagram id="Ht1M8jgEwFfnCIfOTk4-" name="Page-1">
    <mxGraphModel dx="1272" dy="820" grid="1" gridSize="10" guides="1" tooltips="1" connect="1" arrows="1" fold="1" page="1" pageScale="1" pageWidth="1300" pageHeight="900" math="0" shadow="0">
      <root>
        <mxCell id="0" />
        <mxCell id="1" parent="0" />
        <mxCell id="I9OwONVPuuNTIhYXYgKd-3" value="" style="rounded=0;whiteSpace=wrap;html=1;fillColor=none;" vertex="1" parent="1">
          <mxGeometry x="40" y="40" width="1220" height="820" as="geometry" />
        </mxCell>
        <mxCell id="I9OwONVPuuNTIhYXYgKd-47" value="" style="rounded=1;whiteSpace=wrap;html=1;fillColor=none;dashed=1;strokeWidth=1;shadow=1;" vertex="1" parent="1">
          <mxGeometry x="750" y="160" width="460" height="600" as="geometry" />
        </mxCell>
        <mxCell id="I9OwONVPuuNTIhYXYgKd-65" value="" style="rounded=1;whiteSpace=wrap;html=1;fillColor=none;dashed=1;strokeWidth=1;shadow=1;" vertex="1" parent="1">
          <mxGeometry x="90" y="230" width="200" height="530" as="geometry" />
        </mxCell>
        <mxCell id="I9OwONVPuuNTIhYXYgKd-11" value="&lt;h1&gt;&lt;br&gt;&lt;/h1&gt;" style="rounded=1;whiteSpace=wrap;html=1;align=center;" vertex="1" parent="1">
          <mxGeometry x="40" y="40" width="310" height="50" as="geometry" />
        </mxCell>
        <mxCell id="I9OwONVPuuNTIhYXYgKd-10" value="" style="shape=image;verticalLabelPosition=bottom;labelBackgroundColor=default;verticalAlign=top;aspect=fixed;imageAspect=0;image=data:image/png,iVBORw0KGgoAAAANSUhEUgAAAgAAAAIACAYAAAD0eNT6AAAABGdBTUEAALGPC/xhBQAAAAFzUkdCAK7OHOkAAAAgY0hSTQAAeiYAAICEAAD6AAAAgOgAAHUwAADqYAAAOpgAABdwnLpRPAAAIABJREFUeJzt3QmUZHdd6PHOypZM9796JgGJL+xHBJRdVBZZnoKKsjyeYHADIW7IeSLi+gYe4AMDhsnU/9Y0iUQQFOcBgkFUECIoWxwlyJiZ+t/qDAmyL5FAFrJMv3t7ZiAkk5np6ar+VVV/vud8TliOcqvqf+/vVnXVvTMzkiRJkiRJkiRJkiRJkiRJkiRJkiRJkiRJkiRJkiRJkiRJkiRJkiRJkiRJkiRJkiRJkiRJkiRJkiRJkiRJkiRJkiRJkiRJkiRJkiRJkiRJkiRJkiRJkiRJkiRJkiRJkiRJkiRJkiRJkiRJkiRJkiRJkiRJkiRJkiRJkiRJkiRJkiRJkiRJkiRJkiRJkiRJkiRJkiRJkiRJkiRpPbbh3J2dubz4PXO5PLGTyy+kqn5BqsrLOlWdm3//F42/a/79RY0djbqT68X9vtj8d1/5NlX9pW/+91XZ2fz/+kjK9Xua/3x7888/af6zV6eq/8JONfi51Bv86Mat9QM3dffcMfo5kCRp+tq8dOxs1b/bXFV+POXyW82gPrcZxH/bDOT/aAb015vhvBSt2a5rmm25pNm2v2lPPJpt+43m3/9IWlj8b9FPnyRJY9/8ebtOns/1o5uB+qLGG5bftedyVfSAX93JQX1l46PtiUvq9c/cWA0eNLOw44To51qSpJiad/ZzWwf3awbjs5t3y+c17+r/vfnXN0QP7DVybXtS0NjSPO6nnloNTol+OSRJGllz3UtPb4b9LzaD/i877d/b4wfxeMhlb/snjeZf99oTgs6WsiH6tZIk6ag7/fw9t22/nJdy6aaq9MMH7aTI9XXNc3Zh+52H9lOS6NdRkqTDdtqrL7/d/qH/hubd/lfDh+lUKJ9s/1yQuosPn1laOib6NZYkabl26Kdu/xnNwH/rpH9pb/yVT3ZyeVX708fo112StE5L3fo+zVB6Rcff80Ms/xQylxedcu7iqdFrQZI05Z289ZL55h3o85t3oh+PHoDs135noKrf2qn6j/MnAknSUGu/jLbvanj1teEDj1vVvEa72xO02bP3zEWvGUnSpNa8m0zV4AnNUHl3+1O16OHGCk4EqvrrqSrnzPZ23SV6GUmSJqXtO09M3fo5y5e3HYNhxqpc38n1m2a7/ftHLytJ0ri2sOOEdvAvf9M8fnAxbLm8q9PrPzR6mUmSxqXNS8c2A+JpKZcSPqQYufYOh/PbBg+OXnaSpKiWlo6Zq8pPG/zr0PLlh8vb5hd2f1f0MpQkrWHzefEhzRD45/BBRLTrm3Ww4FoCkjTldXr9O7cH/E5VbhyD4cOYSFX9tZTrF7dXdYxeo5KkIXanhU/fvj3Au1Qvh5Trxbnc/7Ho9SpJGkJz3f4j3Y2PFcn1Ba4hIEkT2mx1WUpV/ToX8eFoLH9alOvfaX8eGr2WJUlH2L5b8tb/GT1EmAbl4xurwYOi17Qk6RCdWg1OSVX5q/ihwVTZd8Ohl7RXiYxe45Kkm5W69eNTLp8LHxZMsfLvLissSePSlnKb5uD8Cj/tY020nwbk+sXtFSSjl74krds6uX/v5qD8sfChwLqTcnlvZ0s5LXofkKR1V6oGz01VuTp6ELCO5frLnd7gydH7giStj5Y/8i+vDT/4wwG5LPiCoCSNsPZSvinXHw4/4MPNpKpc5OJBkjSC5nv1D6VcPh99oIdD+EKn6j8uel+RpKmpk8vzO+2d2+IP8HA47R0Gnx+9z0jSZLd96bhUlXPG4KAOK5PrN7q7oCQdRfvu4FfeEX4gh6NWPnjKuYunRu9LkjQxnbz1kvn24Bl/AIdVu3R+Yfd3Re9TkjT2berW92je+ZcxOHDDcOTylfa21NH7liSNbfN58SHLF1eJPmDDkDUntdd0qvLU6H1Mksau1F18eKrqr0YfqGF0yo2p1z8zel+TpLFp+Tf+Vf21+AM0jFgue1OufzN6n5Ok8OZy/8f2fTw6BgdnWDuviN73JCms5iD4tPb2qmNwMIYA5dXR+6AkrXntXdQ6ru7HOpeq+o+j90VJWrOag96PNAe/a6MPvjAWcnlV9D4pSSNvvjt4rL/5w83k+o+i901JGln7f+r39fCDLYyhVPVfGL2PStLQm63KA9orokUfZGFs5bK38ezofVWShtaGbeXuKZfPhx9gYdzlckMn958Svc9K0qo7aUvZ1Mn1IPzAChMiVeXq1Bv8YPS+K0lHXXs/9OYdzYeiD6gwgb60sTe4Z/Q+LEkrb/PSsamq3zoGB1KYSCnXu2ary1L0rixJK6o5eG2JPoDCFPjHme07T4zenyXpiJqv6l8dgwMnTIte9D4tSYeteef/A51cf2MMDpowPfw8UNI4t6m7546pqj8dfrCEKdNePXM+Lz4keh+XpFu2sOOETlX+KfpACVMrl8van9VG7+qS9G11cr0t/AAJUy5V9d+3v7CJ3t8labnmnf+zog+MsF6kXH4rep+XpJlN3foeKddXRh8UYR25vjnpflj0vi9pPbew44Rm+H90DA6IsL7kerGzpWyIPgRIWqc170LOCj8QwjqVqvL66GOApHXYXC6Pak4Abow+CMK65s6BktaykxZ2b/R7fxgLXzi1GpwSfUyQtE5q3vm/eQwOfMA+fx59TJC0DprL5YljcMADbqo3eHL0sUHSFNd+6zhV9afCD3bAt0m5/kxaWJyNPkZImtJc7Q/GV3MScHb0MULSFLb8rf9c9kYf5IBbkcsNG7fWD4w+VkiapraU26Sq9MMPcMAhNfvpRe4VIGlotdcejz6wAUeqPCv6mCFpCjrl3MVTU1V/Nf6gBhyJ9guB8+ftOjn62HHYNl94/Ow5u+86n+tHtyctzXHmJe33jJp/vq55HNs7ubwrVeUfGjsOaP6zf24e33uaf/1XzT//pPn3r0pV/4Wp239G6g1+sLOlnBb9sKSpqdkZz4s+oAErk3J5efSx46bNnr1nLnXrxzeDfnPjb5tBv6ezfFOjETz25g1L4yPtsWsul1/ZWA0e1N63JPo5kCaq2ao8wOV+YfI0JwDXzPZ23SXq2NH+JHGuKj/dvptvXBL9BeJUlaub5+S9zT9/e/mEwPckpEPX7Djvjz6QAUenGXhvWMvjxclbL5lv3tn/bOOC5n//2ujHf0i5/mL7/LQXNvPpgHSz5nP9pPCdFFiFcmOqBvcd6YFi3y3Bf6p5Z/2+9meI8Y955Zpt/2xzQvBH8wu7v2ukz5U0EW1eOrY5eHw8escEVqf9stwoDhHtl4M7Vf/3p/CmYO9fvqyyPxFovZZ69f8cgx0RWK32b++9/kOHdmyoBvdtPzrvjPtH/Kt+3upB+wXCme07TxzWcyeNf82Zb8r1f4TvgMBQNPvzu1d7WGhOIu68/2d3E/kx/1HL5bLmpOe5viegddFcr5wRvtMBQ5W21d9/NMeDTd2dJzXv+F+Uqvpr0Y8h9PnLpTT/fNqwj7fS+LR96TiX/IXp0+zXb1/RsWBp6ZjU65/Zfls+etvHSftpii8LaipL1eDp0TsYMAK57D3SXwTMdS89vb3aXvg2j6n2GgvNidHv+bOApqpmp/9o9M4FjEiu33TIA0D7rr9bP8elv4/4+bx4buvgfmt0eJZGV+ouPjx8hwJG6fr23f3B9v/2S36dXP5uDLZxoix/GlD1f709eVrrY7Y0tJqz/rdG70zAiOX6j26x7zcn/80g+1z4tk22d85Wl6WIY7e0qto7cq27n/fAulSuaL/Zf2Dfb3/i1pwUfCN+u6ZALpfNbxs8OPJYLq24lOst4TsPsCaWL3CzsOOEZvBX0dsybVIuV3X8XFCT0qlnXXwHX/qB9WP/b9rd6Gtk2nsw9F8YfWyXDlunGvxc/A4DMHVye22V6GO8dKt1cv2BMdhRAKZQebPrBWgs27h18V7LNwsJ30kAplSuLzj9/D23jT7eS99WszhfEb5zAEy/d7qzoManzRceP4X38gYYSymXt7XH3ehDvzSTuvXjo3cIgPWkOQl4g6sGKrzm3f950TsDwLqT6/8bffzXem770nHNQvxC+I4AsB716l+LHgNap81Xg8eE7wAA61V76fVcfjh6Fmgd5hKgAMFy+cqGbeXu0fNA66nNS8emXH8mfPED8LE7LXz69tFjQeuktK3+/jFY9AC0cr0tei5ondSpyubwBQ/ATbmDoEZfJ5d/HoPFDsC3fGl+667viJ4PmuLmz9t1cifX143BYgfgpnJ9QfSM0BQ3361/MnyRA3ArylOj54SmtJRLN36BA3Awy7/Q2lI2RM8KTWHN4todvcABOKRXRs8KTVknb71kvpPL3jFY3ADcmlx/Y2NvcM/omaEpKvUGPxq+sAE4rFTV/y96ZmiKSrn+P9GLGoAjkMve2W7//tFzQ1NScwLw7vBFDcARSVV5e/Tc0DS0tHRMpypXRC9oAI5QLnvnev3vjR4fmvA6uX/v8MUMwIqkqj4/en5owpvrlTOiFzIAK3btxm2X3Cl6hmiCS7m8fAwWMgArlcv/jp4hmuDaL5OEL2IAVi7Xe2Y2Lx0bPUc0oaVcSvgiBuCozHcHj42eI5rATj9/z207udwQvYABODqpKq+PniWawNqfkUQvXgBWo1wxs33nidHzRBNW6vafEb94AViNVA2eED1PNGE1C+d3oxcuAKuU623R80QTVrtowhcuAKvT/hpAWkmdXN4VvnABWLUN28rdo2eKJqjmBOAT0YsWgNVLvf6Z0TNFE1Sq6q9GL1oAVi/l8qfRM0UT0uzZe+aiFywAw5FyvTt6rmhCSt36PtELFoAhyWXvbHVZip4tmoDmcnlU+IIFYGjmqv4jomeLJqD5XD8perECMDwpl1+Kni2agDpVeVb0YgVgeFJVzomeLZqAUlW/IHqxAjBEubwrerZoAmrOFF8WvlgBGKKyM3q2aALq5LqKX6wADEvK9ZXRs0UTUHMC8MboxQrAkG0pG6Lni8a8ZqFsD1+oAAzVbG/XXaLni8a8VJW3Ry9UAIZr49b6gdHzRWNeJ5e/iV6oAAzXfHfw2Oj5ojEv5fo90QsVgOGay+WJ0fNFY16zUP4xeqECMGzlqdHzRWNeJ5cPxS9UAIYpdfvPiJ4vGvNSVX8keqECMFxzvXJG9HzRmNepyj9FL1QAhiz3nxI9XzTmpar8Q/hCBWCoUjV4QvR80ZjnZ4AA02e+V/9Q9HzRmJdyeVv0QgVgyLr974ueLxrzmoXyZ+ELFYDh6pXvjp4vGvNSLlvDFyoAw+VmQDpcqSovC1+oAAxNquqvRc8WTUCp6r8werECMDwp17ujZ4smoNStnxO9WAEYnpTLe6NniyagZrE8LXqxAjBEuZwbPVs0AXV6gyeHL1YAhifXz4ueLRrjOlvKaSnXW1Iu14QvVgCGZq7bf2T0jNEYdmo1OKVZIK9IVbk6epECMHyz1WUpetZojNrU3XPHVNWv8Y4fYJqVy6Pnjcak9kywk8urmsF/VfzCBGC0ypuj546iW1o6ppPrn20G/+fiFyQAayFVg+dGjx8FNtvt3785C/xg9EIEYG1t6tb3iJ5BCmj27D1z7Tf7O7ncEL0IAVhr/v6//lr+uL88u1kAX4hfgABESFX9uuhxpDWs/XZ/M/z/JnrhARArVYMnRM8krVGdbvkfzYv+pehFB0CwXL4ys33nidFzSSOuvc9z82IvhC84AMaD6/9PfynXP9DJ9WL4YgNgjPQfFz2fNKoWdpzQqcpZjRvjFxoA46N8cmb70nHRY0ojqL1+f6rK++IXGQDjJuXyoug5pRE0V/UfkXL9megFBsBYurZ9kxg9qzTk5qryy82Le/0YLDAAxlCq6vOjZ5WG2fal49o790UvLADGWC57Z6vygOiRpSE1f96uk5sX9p3hCwuAsZaq8lfRM0tDav+tez8UvagAGHPNu/+5Xv97o+eWhtDyJX2r8vHwRQXA+MvlL6PnlobQbNW/m4v7AHBE2ju+5v69o2eXVln7Iqaq/lT4ggJgIqSqnBM9u7TKNlaDBzXv/L8YvZgAmAwpl8/Pnr1nLnp+aRWl7uLDU66vjF5MAEyQbv/no+eXVtHc1sH92ls3hi8kACZI+eDM0tIx0TNMR9mmbn2PlMvn4hcSAJOlXNH+9r95A/n8ubz4PTObl46Nnmk6wua37vqO5kW8NH4RATDx2u+Q5fqNqRo8vb2OTPSM0620fJGfqvx7+IIBYBpdn3K5sDkheN7GbZfcKXrmaX93Wvj07V3hD4A1kcsN7S3kU69/pk8GItt84fHNi/Gu8AUBwLqTcrmmk+s3zVeDx/gC4RqXqvqPoxcAALRXnE25/k3XEViD5nrljPAXHABuonlj+rVOLgudXvnu6Dk5lc12+/dPuVwV/UIDwMGVGzu5vqC9Km30zJyaTtpSNjVnV5fFv7gAcBi57G2vL7Bxa/3A6Pk52W2+8Pjln2JEv6AAsBLNiUDzz+3tBeuiR+lElnK9JfxFBICjletvtLPspIXdG6Nn6sTUPGE/Ff7CAcAw5PrLKZdfcsnhw9Tp9e/cPlnhLxgADFOu/y1tq78/es6OZ0tLx7jYDwBTq/1+QC4Lm7o7T4oeuWNVe2em8BcHAEbv0uWrCqod/v17p6pcPQYvCgCM3vLPBuvXzGwpt4mewXG1P/mrykXhLwYArLmyc27r4H7RozikZvi/LP4FAIAY7RVvU1X/YvQ8XtPmtw0e3N5yMfrJB4BozUnA604/f89to2fz6Nu8dGzK9Yejn3AAGBu5/rfZc3bfNXpEj7TUrZ8T/kQDwLjJ9Rfnuv1HRs/pkbTh3J2d9gGGP8kAMI5y/Y25XJ4ZPa+HXqcqrw1/cgFgnLU/Fcz1i9sL5UXP7aHU6fUfunz/5OgnFgAmQS4Lk38vgX1f/Pto+JMJAJMkl7+YWdhxQvQYP+pSr39m+JMIAJMo1xec9urLbxc9y1fcqWddfIeUy+fCn0AAmFAp1++ZuJOATlX+IPqJA4BJl6r67yfmgkGz1WWpk8tXop80AJgO5W8n4kZCzca+Mv7JAoDpkXL9lpntS8dFz/hb7eStl8w3G3ll9BMFAFOn/YnguNYM/5eGP0EAMKWWLxY0bqWFxdlOVa6IfnIAYJqlavDc6Jn/baWq/Hb0kwIAUy/X181Xg8dEz/19Lew4IVX1p8KfFABYD3L95Y1bF+8VPf5n5nrljPAnAwDWkZTr3e1P70NPAFJVLop+IgBgHXpn2M2DOlV52Bg8AQCwXv1uyAlAqurXjcGDB4B1qtzYyeWH13T4d7aUDc0JwNfjHzwArF8pl89v6u6545qdAMxV5ZejHzQAsO/GQTNLS8esyQlAyvVHox8wALBfLs8f+fDf2BvcM/yBAgDflHK5Zm7r4H4jPQFor0cc/UABgJvJ9cXtBfpGeAJQSviDBABuob08/0iG/2xVHhD94ACAW3Vtp1e+e+gnAD7+B4Axl+sPDP1XAZ2qfDz8gQEAhzSXyzOHNvxnz9l91+gHBAAcXsr1Z9qL9g3lBKCT6+dFPyAA4EiVs4ZzAlDVfx3/YACAI5Lr6zZ163usbvpv33liquqvhT8YAGAFyptXNf/nc/3o+AcBAKxILns3VoMHHfUJQPPu/yXhDwIAWLHlmwUd/QlAeV/0AwAAjk7qLj585dN/YccJKZerojceADhKubxrxfO/0+1/X/iGAwCrsuLvAnSq/q9HbzQAsDop129Z0QlAqsrrozcaAFitcuNs1b/bkX8CkMsn4jcaAFi9I7w64Gmvvvx2zf/B9fEbDACsXrni1LMuvsNhTwDmtw0eHL+xAMCwpG79nMOfAFT1z0RvKAAwPKmqP3LYE4BUlT+M3lAAYLjmtg7ud+gTgFzeFr2RAMDQvfIwJwD1f4zBRgIAQ9TM98/MbF867hB/Aqi/Hr2RAMDwtXf6PejwP2lL2RS9cQDAaKRcugc9AZjPiw+J3jgAYDRSVT47s3np2FucAHSq8tTojQMARifl+gdueQLQq38tesMAgNFpTgBeerAvAL4kesMAgNFJufzLQf4EUPeiNwwAGKVy46nV4JRv/wQg12+J3zAAYJTmeuWMm58AvDt6owCAUSuvvfmvAP4pfqMAgFFqr/p7s08Ayr9EbxQAMGK57N1w7s7Otz4ByOUT4RsFAIzcXFV+/CYnAPUgeoMAgNFLuX7xTa8D8OnoDQIARi9V5e03/RPAV6I3CABYC+WTN/kEoFwdv0EAwFr45hcB26sDRW8MALA25qr+Iw5cCvj66I0BANZILr9w4DoAV4VvDACwJpq5//IDXwL8r+iNAQDWzPYDnwB8fgw2BgBYA6kq/3rgZkD/Gb0xAMDaaN74f+7AlwAvjd4YAGCtlBtnFnac0J4AfCx+YwCAtZJy/Z3tdwDeG70hAMAa6vUf2n4H4C3hGwIArJnUrR/fXgnwtdEbAgCsnebN/0+13wF4ZfSGAABrJ/X6Z7bfAXhR9IYAAGunmf2/NTNf1T8TvSEAwNpJVf2SmblcHhW9IQDA2klV+cOZ2XN23zV6QwCAtVTOmpnZvvPE9qpA8RsDAKyFVNWv2Xc/gKr+dPTGAABrpnfghkAfHoONAQDWRj7wCcD5Y7AxAMAaaN74n33gE4DfjN4YAGDNvHLfCUBv8KNjsDEAwBpo3vi/dPkEYK576enRGwMArJWyefkEYGZp6ZjmbODK+A0CAEauW/7XzIE6uXwofIMAgNHr9n/+mycA7TcCwzcIABi5+ar+iW+dAFSDp0dvEAAweqm7+PBvngC4JwAArA+pW99n5qalqnw2eqMAgNE6eesl899+ApDLO6I3CgAYnWbWXzVz81JVvyB6wwCA0Um53nWLE4C5vPg90RsGAIxO82b/729xArD/gkCfid44AGA0mhOA8255ArDvi4Cvj944AGBkfvegJwDzVf0zY7BxAMAIzHfrnzzoCcAp5y6e2qnKjdEbCAAM38be4J4HPQFo6+T6A9EbCAAMV8rlmpntS8cd4gSgPD96IwGAIcv1xbc6/JdPAHr9OzcnAXvDNxQAGJpU1a875AnA/k8B3B4YAKZI6vXPPOwJgKsCAsB0ma3KAw7/CcC+PwPcEL2xAMDqNW/svz6z+cLjD3sCsO/PAPUF0RsMAAzF+49o+O/7FGDw5DHYYABglVKuX3zEJwDtRwWpKp+N3mgAYHVSb/CDR34C0H4KUJWzojcaADh6zbv/K2cWdpywohOAjVsX7+XSwAAwuVIu71jR8P/WpwD1X0dvPABwdOar+leP6gRgPtePjt54AOAo5LI35fo7j+oEoC1V5aLwBwEArFD54FEP/7a5XJ4Z/yAAgJVo3v3/xqpOANpvDzZnEZdHPxAA4Ajlsne2t+suqzsBaGpvIhD+YACAI9K8+//wqof/cu2nALlejH5AAMDhpW79nOGcAMwsXxjoWdEPCAA4tFSVq2fP3jM3tBOAme1Lx6Vc745+YADArUu5/Onwhv/+5nrljOgHBgDcurlcHjX0E4CZpaVjUlV/JPrBAQAHkcsn2lk9/BOAmeXvAjys/XlB+IMEAG5m8HMjGf7fOgmo/yz+QQIAB6RcPnf6+XtuO9oTgF7/zqmqvx79YAGA/XL9eyMd/t88CWj+h8IfLADQXvjnypO3XjK/JicAM5svPL75H/1Y9IMGgPWuOQF46doM//11ev2HdnK5IfqBA8C6lct/bTh3Z2dNTwDaUlX/cfiDB4B1q2xe8+HfdupZF9/BfQIAIECuv5wWFmdDTgDa5qvBY5ozkBvDnwgAWE9y/byw4X+g5gTgrPAnAgDWiVTVl7R3642e/8u3DE65/mj0EwIA60FzAvAj0aP/m23q1vdof4sY/aQAwDRLubwjeubfotStnxP9xADAtGqG/1UbtpW7R8/7g9Zs4J9HP0EAMI1Srn8jes7faqe9+vLbpar8a/STBADTpJmtF81sXzoues4fsrnupad3cv3F6CcLAKbE9bNVeUD0fD+i2m8oulQwAAxD//ej5/qK6uT6d+KfNACYaO8f+4/+b9HS0jGpqs8fgycPACZQuaL9s3r0OD+69l0k6N3xTyIATJZUDZ4ePcZXVXuzgk4un4h+IgFggvSi5/dQ6vT6d+5U5fIxeEIBYKylXH94Zku5TfTsHlqz3f79279nRD+xADCuUlU+O79113dEz+yh15wAPMw9AwDgIHJ93Vy3/8joWT2y5nv1DzVnOFeHP9EAMEbae+pEz+iR1+mV/9482Gujn2wAGAcpl5dHz+Y1az7XT2o/7oh+0gEgVK7f1F47J3our2lzuf9jzVnPNeFPPgDEeP9UfeN/JXVy+eH2Hsdj8CIAwNrJ9b/Nnr1nLnoOhzZX9R+Rqvqr4S8GAKyBVJX+Kecunho9f8eijdXgQc2T8qXoFwUARirXg6n8rf9qStXgvp1cLgt/cQBgJMrlk3uDnxG3cdsld0pV2RH/IgHAEOV6z4Zt5e7Rc3asO/Wsi+/QPFEXhL9YADAEKde7OlvKadHzdTLavnRc86Tl6BcNAFan7Gw/3Y4eqxNXJ5fnN0/g9fEvIACsVPngbHVZip6lE1vqLj68vUNS/AsJAEcm5fK20159+e2iZ+jE1+n179zeIzn6BQWAw2nm1ZaZzUvHRs/O6WlLuU0nl4XoFxYADiqXGzq9+teix+XU1sn9p3Ry/eXwFxoAvuVL7eXto2fk1Jdy/Z3Nk/2PY/CCA8DHZs/Zfdfo2bh+Wlo6ZvlXArn+xhi8+ACsR7l+450WPn376JG4LpvfNnhwpyofD18EAKwbqaq/1syeZ0XPQG2+8PiUy4sa10QvCgCmW3vJ+o1bF+8VPfp0kzZ163s0L8z7ohcHAFMol73LP/HbvvPE6Hmng7V56dhUDZ7bvFhfCF8sAEyFVNWXtBemix5xOoI2dXee1Jypvbh54a6NXjgATKhcX9f88xXttWii55pWWPt3mubFe2f4IgJgwpQPpmpw3+g5plU23x08tpPLh+IXFADjLFX1p+Z65Yz25+bRs0tDrFP1H5dy/dGCiiTTAAADDklEQVToBQbAeElVubr55yvmz9t1cvSs0qhqzurmq/on2p9yRC84AIK1F5TL9bb2KrPR40lrWPutzmYBbF++iUP0IgRg7eT6upTLG9qfkEfPIgW2/8uCvWYxXBW+KAEYmeWP+pt3/Bu2lbtHzx6NURvO3dnpVP1fbxbHxdGLFIDhaQb/Z5vj+++ftLB7Y/Ss0Zi3sRo8qFk0uVOVK6IXLgBHIZe9zRu6DzR+1m/5teJOP3/PbTu5/5RmMf15quqvhi9oAA4p5fo/Uy4v39gb3DN6hmhKak8G5nJ5YqrK65szy69EL3IA9ln+iD/X1Xw1eMzM9qXjoueFprlmgXWq8rDGH+z/iOm66B0AYD1p3unvTlX9mrmq/4j2XjDRY0HrtPbiEe2nA80JwVntCYFfFAAM3ReaY+ybO7k8Oy0s/rfo47508DZfePzGrfUDm5OCX2lOBv40VeVf919pKnoHAhh/+36n/y+Nrc1x9Jn+nq/JbvPSsbNV/27L3yPI5UWpqs9vTgre16g77lwIrEvtL63KxzvtRdmqsrn559NSt77PzMKOE6IP2dKatam7547zefEh87l+UieXX2hOEF7QnBy8rNP+HDGXv2j8Xcr1e5qTh/e2lzJevpxxe82CXC8CBBscOC41Ltp3rKrf3Ry3/rLTXmq3Kn+Yqv4LmyH/rFQNntAO+fbW7dHHXUmSJEmSJEmSJEmSJEmSJEmSJEmSJEmSJEmSJEmSJEmSJEmSJEmSJEmSJEmSJEmSJEmSJEmSJEmSJEmSJEmSJEmSJEmSJEmSJEmSJEmSJEmSJEmSJEmSJEmSJEmSJEmSJEmSJEmSJEmSJEmSJEmSJEmSJEmSJEmSJEmSJEmSJEmSJEmSJEmSJEmSJEmSJEmSJEmSJEmSJEmSJEmSJEmSJEmSJEmSJEmSJEmSJEmSJEmSJEmSJEmSJEmSJEmSJEmSJEmSJEmSJEmSJEmSJEmSJEmSJEmSJEmSJEmSJEmSJEmSJEmSJEmSJEmSJEmSJEmSJEmSJEmSJEmSJEmSJEmSJEnrof8Pok5gHjsqVvgAAAAASUVORK5CYII=;" vertex="1" parent="1">
          <mxGeometry x="50" y="48.75" width="31.25" height="31.25" as="geometry" />
        </mxCell>
        <mxCell id="I9OwONVPuuNTIhYXYgKd-12" value="&lt;h1 style=&quot;forced-color-adjust: none; font-family: Helvetica; font-style: normal; font-variant-ligatures: normal; font-variant-caps: normal; letter-spacing: normal; orphans: 2; text-indent: 0px; text-transform: none; widows: 2; word-spacing: 0px; -webkit-text-stroke-width: 0px; white-space: normal; text-decoration-thickness: initial; text-decoration-style: initial; text-decoration-color: initial; font-size: 14px;&quot;&gt;&lt;font style=&quot;forced-color-adjust: none; font-size: 14px;&quot;&gt;Cloud Provider / On premise Server&lt;/font&gt;&lt;/h1&gt;" style="text;whiteSpace=wrap;html=1;align=center;fillColor=none;labelBackgroundColor=none;labelBorderColor=none;fontColor=default;verticalAlign=middle;fontSize=14;" vertex="1" parent="1">
          <mxGeometry x="81.25" y="56.5" width="260" height="17" as="geometry" />
        </mxCell>
        <mxCell id="I9OwONVPuuNTIhYXYgKd-4" value="" style="shape=image;verticalLabelPosition=bottom;labelBackgroundColor=default;verticalAlign=top;aspect=fixed;imageAspect=0;image=data:image/svg+xml,PHN2ZyB4bWxucz0iaHR0cDovL3d3dy53My5vcmcvMjAwMC9zdmciIHZpZXdCb3g9IjAgMCAxMDI0IDEwMjQiIGhlaWdodD0iODAwcHgiIHdpZHRoPSI4MDBweCI+JiN4YTsgICA8Y2lyY2xlIHN0eWxlPSJmaWxsOiMwMDkxZTIiIHI9IjUxMiIgY3k9IjUxMiIgY3g9IjUxMiIvPiYjeGE7ICAgPHBhdGggc3R5bGU9ImZpbGw6I2ZmZiIgZD0iTTgyNy4zIDQ2MS41Yy0xLjYtMS4zLTE2LjEtMTIuMi00Ni43LTEyLjItOC4xIDAtMTYuMi42LTI0LjIgMi4xLTUuOS00MC43LTM5LjUtNjAuNS00MS02MS40bC04LjItNC44LTUuNCA3LjhjLTYuOCAxMC41LTExLjcgMjItMTQuNiAzNC4yLTUuNSAyMy4yLTIuMiA0NSA5LjYgNjMuNi0xNC4yIDcuOS0zNy4xIDkuOS00MS43IDEwSDI3N2MtOS45IDAtMTcuOSA4LTE3LjkgMTcuOS0uNCAzMy4xIDUuMiA2NiAxNi41IDk3LjEgMTMgMzQuMiAzMi40IDU5LjMgNTcuNiA3NC43IDI4LjIgMTcuMyA3NC4xIDI3LjIgMTI2LjIgMjcuMiAyMy41LjEgNDctMi4xIDcwLjEtNi40IDMyLjEtNS45IDYzLTE3LjEgOTEuNC0zMy4yIDIzLjQtMTMuNiA0NC41LTMwLjggNjIuNC01MS4xIDI5LjktMzMuOSA0Ny44LTcxLjcgNjEuMS0xMDUuMmg1LjNjMzIuOCAwIDUzLTEzLjEgNjQuMS0yNC4xIDcuNC03IDEzLjItMTUuNSAxNi45LTI1bDIuMy02LjktNS43LTQuM3pNMzEyIDQ4OS45aDUwLjdjMi40IDAgNC40LTIgNC40LTQuNHYtNDUuMWMwLTIuNC0yLTQuNC00LjQtNC41SDMxMmMtMi40IDAtNC40IDItNC40IDQuNHY0NS4yYzAgMi41IDIgNC40IDQuNCA0LjRtNjkuOSAwaDUwLjdjMi40IDAgNC40LTIgNC40LTQuNHYtNDUuMWMwLTIuNC0yLTQuNC00LjQtNC41aC01MC43Yy0yLjUgMC00LjUgMi00LjUgNC41djQ1LjFjMCAyLjUgMiA0LjQgNC41IDQuNG03MC44LjFoNTAuN2MyLjQgMCA0LjQtMiA0LjQtNC40di00NS4xYzAtMi40LTItNC40LTQuNC00LjVoLTUwLjdjLTIuNCAwLTQuNCAyLTQuNCA0LjR2NDUuMmMwIDIuNCAyIDQuMyA0LjQgNC40bTcwLjEgMGg1MC43YzIuNCAwIDQuNC0yIDQuNS00LjR2LTQ1LjFjMC0yLjUtMi00LjUtNC41LTQuNWgtNTAuN2MtMi40IDAtNC40IDItNC40IDQuNHY0NS4yYzAgMi40IDEuOSA0LjQgNC40IDQuNG0tMTQxLTY1aDUwLjdjMi40IDAgNC40LTIgNC40LTQuNXYtNDUuMWMwLTIuNC0yLTQuNC00LjQtNC40aC01MC43Yy0yLjUgMC00LjQgMi00LjUgNC40djQ1LjFjLjEgMi41IDIuMSA0LjUgNC41IDQuNW03MC45IDBoNTAuN2MyLjQgMCA0LjQtMiA0LjQtNC41di00NS4xYzAtMi40LTItNC40LTQuNC00LjRoLTUwLjdjLTIuNCAwLTQuNCAyLTQuNCA0LjR2NDUuMWMwIDIuNSAyIDQuNSA0LjQgNC41bTcwLjEgMGg1MC43YzIuNSAwIDQuNC0yIDQuNS00LjV2LTQ1LjFjMC0yLjUtMi00LjQtNC41LTQuNGgtNTAuN2MtMi40IDAtNC40IDItNC40IDQuNHY0NS4xYzAgMi41IDEuOSA0LjUgNC40IDQuNW0wLTY0LjloNTAuN2MyLjUgMCA0LjUtMiA0LjUtNC41di00NS4yYzAtMi40LTItNC40LTQuNS00LjRoLTUwLjdjLTIuNCAwLTQuNCAyLTQuNCA0LjR2NDUuMmMwIDIuNSAxLjkgNC41IDQuNCA0LjVNNTkzLjQgNDkwaDUwLjdjMi40IDAgNC40LTIgNC40LTQuNHYtNDUuMWMwLTIuNS0yLTQuNC00LjQtNC41aC01MC43Yy0yLjQgMC00LjQgMi00LjQgNC40djQ1LjJjMCAyLjQgMiA0LjQgNC40IDQuNCIvPiYjeGE7PC9zdmc+;" vertex="1" parent="1">
          <mxGeometry x="957.5" y="772" width="55" height="55" as="geometry" />
        </mxCell>
        <mxCell id="I9OwONVPuuNTIhYXYgKd-32" value="" style="rounded=1;whiteSpace=wrap;html=1;labelBackgroundColor=none;dashed=1;container=1;pointerEvents=0;collapsible=0;recursiveResize=0;strokeWidth=2;shadow=1;" vertex="1" parent="1">
          <mxGeometry x="910" y="190" width="150" height="179" as="geometry" />
        </mxCell>
        <mxCell id="I9OwONVPuuNTIhYXYgKd-33" value="&lt;h1 style=&quot;forced-color-adjust: none; font-family: Helvetica; font-style: normal; font-variant-ligatures: normal; font-variant-caps: normal; letter-spacing: normal; orphans: 2; text-indent: 0px; text-transform: none; widows: 2; word-spacing: 0px; -webkit-text-stroke-width: 0px; white-space: normal; text-decoration-thickness: initial; text-decoration-style: initial; text-decoration-color: initial; font-size: 14px;&quot;&gt;&lt;font style=&quot;forced-color-adjust: none; font-size: 14px;&quot;&gt;Minio&lt;/font&gt;&lt;/h1&gt;" style="text;whiteSpace=wrap;html=1;align=center;fillColor=none;labelBackgroundColor=none;labelBorderColor=none;fontColor=default;verticalAlign=middle;fontSize=14;fontStyle=1" vertex="1" parent="I9OwONVPuuNTIhYXYgKd-32">
          <mxGeometry x="10" y="150" width="130" height="17" as="geometry" />
        </mxCell>
        <mxCell id="I9OwONVPuuNTIhYXYgKd-35" value="" style="shape=image;verticalLabelPosition=bottom;labelBackgroundColor=default;verticalAlign=top;aspect=fixed;imageAspect=0;image=data:image/svg+xml,PHN2ZyB4bWxuczp4bGluaz0iaHR0cDovL3d3dy53My5vcmcvMTk5OS94bGluayIgeG1sbnM9Imh0dHA6Ly93d3cudzMub3JnLzIwMDAvc3ZnIiB2aWV3Qm94PSItMC4yMzA5OTk5OTk5OTk5OTk5OCAtMTAuMDA3OTk5OTk5OTk5OTg1IDU2Ni40MzkgMTE0Ny45OTIiIHdpZHRoPSIxMjM4IiBoZWlnaHQ9IjI1MDAiPjxwYXRoIGZpbGw9IiNmOGU2ZWEiIGQ9Ik0zNTkgMTEzNS40NDJjLTEuMzc1LS43NC0xNi43ODgtMTUuNjctMzQuMjUtMzMuMThMMjkzIDEwNzAuNDI4Vjg2My4zOGMwLTExMy44NzYtLjI4OS0yMDcuMzM2LS42NDEtMjA3LjY5LS42NDktLjY0Ny01Mi42OTIgMjUuNTA4LTIwNS43NzMgMTAzLjQxNS00Ni4xNTIgMjMuNDg4LTg0LjU0OCA0Mi40NjItODUuMzI0IDQyLjE2NC0uOTA2LS4zNDctMS4yMDYtMS4zNTktLjgzNy0yLjgyNy4zMTUtMS4yNTcgMS4wMTgtNi40ODMgMS41NjItMTEuNjE0IDIuNzU0LTI1Ljk4NSAyMy4yNTYtODcuMDI4IDQ1LjAwNi0xMzQgNTkuMjcyLTEyOC4wMDMgMTU1LjE3NC0yMzQuMDg3IDI3Ny4xOS0zMDYuNjE3IDE5LjkxMy0xMS44MzcgMzYuNjQtMjAuNDk0IDM4LjMzNy0xOS44NDMgMS4yOTQuNDk3IDEuNDggMTMuOTcgMS40OCAxMDcuMSAwIDc2LjI4Ny4zMSAxMDYuNTMxIDEuMDkxIDEwNi41MzEuNiAwIDUuMTc0LTIuMTA5IDEwLjE2NS00LjY4NiAzNS4wMDMtMTguMDc5IDYwLjQwOS01MS44NDggNjguOS05MS41OCAyLjg3MS0xMy40MzYgMy4xMy0zNy45MjMuNTM3LTUwLjkxNi00Ljc2My0yMy44NzQtMTUuNzU2LTQ2LjMzNC0zMS4yNTItNjMuODUyLTcuNjUyLTguNjUtMzMuMDU3LTM1LjM2NS03Ny45NDYtODEuOTY2LTY3Ljg3NS03MC40NjItODAuMzAzLTgzLjkzMS04OC4yNTUtOTUuNjUtNS44MzQtOC42LTEwLjg3LTE5LjExMy0xMy45MjItMjkuMDYyLTIuNDQ3LTcuOTc5LTIuNy0xMC4zMDctMi43NTQtMjUuMjg4LS4wNjUtMTguMjg3Ljk3NC0yMy45NzggNi45ODUtMzguMjQ4IDExLjYtMjcuNTM3IDQxLjgyMi01My4yMjMgNjYuOTUxLTU2LjkwMyAxNy42MjctMi41OCAzOS44OTgtMi4wODMgNTQuMzg2IDEuMjE3IDExLjgxIDIuNjkgMzAuOTQyIDE0LjIyNSA0NC4wNTcgMjYuNTYyIDE1LjM5NiAxNC40ODQgMjMuMTQ3IDI2LjA0NSA4MS4wNCAxMjAuODcyIDY4LjMxNSAxMTEuODk4IDc2LjQ2MSAxMjUuNjkyIDc3LjYyOCAxMzEuNDQzIDEuMTU1IDUuNjkyLjMxOSA4LjA5Ny0yLjc5IDguMDI3LTIuNTg5LS4wNTgtMS44MDUuNzQ1LTEyNC44LTEyNy45Ny0xMC43NzQtMTEuMjc1LTI5LjUzNy0zMS4wNzUtNDEuNjk0LTQ0LTMxLjcyOS0zMy43MzEtNDQuODk0LTQ2LjQ0LTUwLjg2My00OS4wOTgtNy42NDEtMy40MDQtMTguMjQyLTMuMjQ4LTI1LjYyNS4zNzgtMTQuNDc2IDcuMTA5LTIxLjMyOCAyMy41MDUtMTUuODY3IDM3Ljk3IDIuNzA4IDcuMTcxLTEuMDY0IDMuMDYxIDg3Ljg3MyA5NS43NSAzOS44NDQgNDEuNTI1IDc1LjgzNCA3OS41NSA3OS45NzkgODQuNSA2Ni44ODUgNzkuODg0IDYxLjQ0NyAxOTguNTgzLTEyLjQ2IDI3MS45OTMtMTYuOTcgMTYuODU1LTMzLjkzNCAyOC40MDMtNjUuMzY0IDQ0LjQ5My0xMC43MjUgNS40OS0yMC45NjIgMTAuODgzLTIyLjc1IDExLjk4NGwtMy4yNSAydjI1Ny45MzRjMCAxNDEuODYzLS4yNzMgMjU4LjY0NC0uNjA3IDI1OS41MTQtLjcwMyAxLjgzMy0xLjAzIDEuODM1LTQuMzkzLjAyNHpNMTgxLjM3IDYzNS4wNTdjODcuNTQ4LTQ0LjkzNiAxMDUuNjE3LTU0LjQ0MiAxMDguMTgzLTU2LjkxMiAxLjYxLTEuNTQ4IDIuMzEyLTMuNzggMi43OTItOC44NTcuOTY5LTEwLjI2My43ODItMTE4LjA5MS0uMjA2LTExOC43MDItMi4xNzYtMS4zNDUtMzguOTUgMzEuMzM4LTYzLjYzOSA1Ni41Ni00Mi42ODIgNDMuNi03OC4zNjUgOTIuODM0LTEwNy43IDE0OC41OTUtMy44MzYgNy4yOTItNi42NTYgMTMuMjU5LTYuMjY3IDEzLjI1OXMzMC40NjctMTUuMjc0IDY2LjgzOC0zMy45NDN6Ii8+PHBhdGggZmlsbD0iI2Y1ZGJlMCIgZD0iTTMyNi43OTQgMTEwMy4yNDdMMjkzIDEwNjkuNDkzVjY1My44MzVsLTYxLjc1IDMxLjIxNmMtMzMuOTYyIDE3LjE3LTk5LjE4OSA1MC4yODEtMTQ0Ljk0NyA3My41ODNDNDAuNTQ1IDc4MS45MzUgMi4zNiA4MDEgMS40NDUgODAxYy0xLjMwMyAwLTEuNTE3LS41NzktLjk4OS0yLjY4LjM3LTEuNDc1IDEuMDY0LTYuMDg4IDEuNTQzLTEwLjI1IDIuMDQ0LTE3Ljc4NyAxNi4yMTItNjQuNDU3IDMwLjE1LTk5LjMxNSA2MC4yODUtMTUwLjc2OCAxNjguNjIzLTI3My42ODUgMzEwLjgtMzUyLjYyMiA5LjA0Ny01LjAyMyAxNy4yMTEtOS4xMzMgMTguMTQzLTkuMTMzLjkzMiAwIDEuOTY3LjcxMiAyLjMwMSAxLjU4Mi4zMzQuODcuNjA3IDQ5LjA1LjYwNyAxMDcuMDY3djEwNS40ODZsMi4yNS0uNjk2YzMuMjUxLTEuMDA1IDguOTgyLTMuOTkgMTYuNTk0LTguNjQ1IDMwLjc0OS0xOC44MDMgNTEuODc5LTQ3Ljc4IDYwLjkwNC04My41MiAyLjUwNi05LjkyOCAyLjcyMS0xMi4zNDUgMi43MzYtMzAuNzc0LjAxNy0yMS4zNTYtLjgxOS0yNy4yMDgtNi4yMTQtNDMuNS0zLjQ1NC0xMC40MzQtMTIuMjkyLTI3LjE4MS0xOS4yMzQtMzYuNDUyLTguMDQzLTEwLjc0LTI1LjA0Ni0yOC43OTktMTEyLjU0LTExOS41MjctMjcuOTk1LTI5LjAzLTUwLjY0Ny01My40OTUtNTUuOTg5LTYwLjQ2OS0yNC4yMTUtMzEuNjE1LTI4Ljg1OS02Ny44NTctMTIuOTg4LTEwMS4zNiA1LjY4NC0xMiAxMS4yOS0xOS43NzcgMjEuMTI0LTI5LjMwNSAxMy4zNjktMTIuOTUzIDMwLjkxLTIyLjY1NyA0NS4yNC0yNS4wMjggMTEuNjc0LTEuOTMgMzAuNzM3LTIuMTY1IDQxLjc4Mi0uNTEyIDI2LjQ1OSAzLjk2IDUxLjA4MyAyMC40ODcgNzEuOTc2IDQ4LjMxIDEwLjgyOCAxNC40MTggNDIuMjI1IDY1LjAxIDExOC4yMjQgMTkwLjQ5NiAyMy4wMiAzOC4wMSAyNi42MzIgNDUuNDkzIDIzLjQ4MiA0OC42NDMtMi43NDYgMi43NDYgMS45NCA3LjQwNy0xMDUuMzk4LTEwNC44NDMtMjIuODU0LTIzLjktNTEuNzA2LTU0LjI1My02NC4xMTYtNjcuNDUzLTMzLjkwMy0zNi4wNjItNDQuMTEtNDUuNzEyLTUxLjEyNi00OC4zMzctMTYuMTItNi4wMy0zMi4zMDEuNDA1LTQwLjM2IDE2LjA1My0zLjgwOCA3LjM5My0zLjg1NiAxNi45MDgtLjEyNiAyNC45OTYgMy4xNTMgNi44NC0xLjU4MiAxLjcyMSA4OC4xNTYgOTUuMjg4IDM5LjU2MiA0MS4yNSA3NC44MyA3OC4zNzUgNzguMzc1IDgyLjUgMjQuNDMyIDI4LjQzNiA0MC44MTQgNjYuMDAxIDQ1Ljc5IDEwNSAyLjA2OSAxNi4yMTQgMS41NjUgNDMuMTE3LTEuMDg1IDU4LTcuNDg0IDQyLjAyOS0yNi42MTUgNzkuMDg4LTU1Ljk5MiAxMDguNDY1LTE4LjI2NSAxOC4yNjYtMzMuMjk0IDI4LjQxNy02OS45NjUgNDcuMjU4bC0yMSAxMC43OS0uNTA1IDI1OS45OTNjLS4yNzcgMTQyLjk5Ny0uNjE1IDI2MC4xMDYtLjc1IDI2MC4yNDQtMS4yMSAxLjIzNC02Ljk4NS00LjA3My0zNi40NS0zMy41MDN6TTE4NC43NSA2MzMuOTNjOTMuNDE2LTQ3Ljg4MiAxMDIuMzQ3LTUyLjYyMiAxMDUuNTAxLTU2LjAxbDIuNzUtMi45NTJ2LTYyLjk4NGMwLTM0LjY0MS0uMjk4LTYyLjk4NC0uNjYzLTYyLjk4NC0uMzY0IDAtNC4wNzcgMi43OS04LjI1IDYuMi01MC4zNDUgNDEuMTM5LTkyLjkyOCA4Ny43MzgtMTI3Ljc3MyAxMzkuODI0LTE5LjYzOCAyOS4zNTYtNDUuODA0IDc2LjEyMy00MS43NDIgNzQuNjA3IDEuMDYtLjM5NiAzMi42NC0xNi40NjEgNzAuMTc3LTM1Ljd6Ii8+PHBhdGggZmlsbD0iI2YzZDVkYSIgZD0iTTM0My43NjQgMTEyMC4yNWMtOS4zMzgtOS4yMTMtMjQuNTgtMjQuNzA3LTMzLjg3LTM0LjQzM0wyOTMgMTA2OC4xMzRWODYxLjA2N0MyOTMgNzQ3LjE4IDI5Mi44MzEgNjU0IDI5Mi42MjUgNjU0Yy0uNTA5IDAtMTIyLjE2NCA2MS42MjMtMjE0LjQ1NiAxMDguNjMxQzM2LjczNyA3ODMuNzM0IDIuMTUxIDgwMSAxLjMxMSA4MDFjLTEuMTM3IDAtMS4zNjUtLjY1LS44OS0yLjU0NC4zNTItMS40IDEuMDUtNS43ODkgMS41NTMtOS43NTQuNTAzLTMuOTY1IDIuNy0xNC4xODMgNC44ODQtMjIuNzA2IDExLjIyNi00My44MjUgMjYuMjQ1LTgzLjQxNSA0OS4xMjYtMTI5LjQ5NiAxNC40ODgtMjkuMTc3IDI2Ljk0Ni01MC45NDIgNDMuNTAzLTc2QzE1NC4wMzQgNDc3Ljk0MiAyMjguMDI1IDQwNi40NjUgMzE0IDM1My4yNzUgMzMyLjA3IDM0Mi4wOTUgMzU5LjMxNCAzMjcgMzYxLjQyIDMyN2MxLjQzIDAgMS41OCAxMC4xMSAxLjU4IDEwNi41MzEgMCA5MC4xNTcuMjE0IDEwNi42MTQgMS4zOTQgMTA3LjA2Ny43NjYuMjk0IDQuNTA2LTEuMDMzIDguMzEtMi45NSAzMS4yLTE1LjcxMSA1NS42ODktNDMuNDAyIDY3LjE3NS03NS45NiA1LjM1NC0xNS4xNzcgNy4zOS0yNy4yODQgNy40MzMtNDQuMTg4LjA2OS0yNy42ODQtNy4xMDYtNTEuODE5LTIyLjE0Ny03NC41LTcuOTI0LTExLjk1LTE2LjM5NC0yMS4xNDMtODYuNjE5LTk0LjAyLTc0LjQ3My03Ny4yODctODMuMjY4LTg2Ljg4Mi05Mi4yMTctMTAwLjYxMi0xMC44NjYtMTYuNjY5LTE1LjYyNC0zMi41MTMtMTUuNTc4LTUxLjg2OC4wMTctNy4wOTguNjctMTQuOTA2IDEuNTk3LTE5LjExNUMyMzkuMTQgNDYuNTYgMjU5LjM3NCAyMS40NzUgMjg4LjMwOCA4IDMwMS4wNTggMi4wNjQgMzExLjM5NCAwIDMyOC4zNzYgMGMyNC4xMyAwIDQxLjA5IDUuMzIzIDYwLjQwOSAxOC45NTkgMjIuMzE0IDE1Ljc1IDMwLjU3IDI3LjA4MyA4Ni43MTggMTE5LjA0NSA2NC40MzkgMTA1LjU0MSA4NC44IDEzOS43MyA4Ni4wMjIgMTQ0LjQ0LjcyMSAyLjc4IDEuMjM1IDUuMDY5IDEuMTQzIDUuMDg4LS4wOTIuMDE5LS45MzUuNjItMS44NzEgMS4zMzUtMS40ODEgMS4xMy0yLjM4LjY3LTYuODkyLTMuNTMzLTcuMTM3LTYuNjUtMTI3LjYxNS0xMzIuNDU3LTE2NS4wOTQtMTcyLjM5OS0zMy42NTQtMzUuODYzLTM4LjcxNC00MC42MjgtNDcuMzQ4LTQ0LjU4LTE1LjI4Mi02Ljk5Ny0zMy40OTctLjE2Ny00MS4xNTcgMTUuNDMtMi4zMjcgNC43NC0yLjgwMiA2Ljk5NC0yLjc4NSAxMy4yMTUuMDE4IDYuMjgyLjUgOC40NTEgMi45NjYgMTMuMzU4IDIuOTg2IDUuOTQyIDQuMDYyIDcuMDg3IDEzMi44MjQgMTQxLjM0NSAxNi4zOTUgMTcuMDk2IDMyLjgyMyAzNC44NDQgMzYuNTA0IDM5LjQ0IDQ4LjQyMyA2MC40NTMgNTcuNzg3IDE0Mi45MiAyNC4xNTIgMjEyLjcxMS0xMC44MTUgMjIuNDQxLTIzLjQ2OCAzOS43My00Mi4yNTYgNTcuNzQyLTE3LjkxMiAxNy4xNzItMzAuNTI5IDI1LjU0NS02Ni4yMTEgNDMuOTQzLTExLjU1IDUuOTU1LTIxLjMzIDExLjMwNy0yMS43MzUgMTEuODk0LS40MDQuNTg3LS43NDEgMTE3LjczLS43NSAyNjAuMzE3LS4wMTEgMTkyLjAxMy0uMzA4IDI1OS4yNS0xLjE0NSAyNTkuMjUtLjYyMSAwLTguNzctNy41MzctMTguMTA2LTE2Ljc1ek0xMjguMjA3IDY2My4xMTJjNy4zMTEtMy43ODkgNDAuMjkzLTIwLjczNiA3My4yOTMtMzcuNjYgNzguNDUyLTQwLjIzNSA4Ny42Ny00NS4xNCA4OS43MjgtNDcuNzU2IDEuNTk1LTIuMDI3IDEuNzMtNy4wNTIgMS43NS02NS40NDYuMDEyLTM1LjE3NC0uMzY0LTYzLjI1LS44NDctNjMuMjUtLjQ3OCAwLTcuNzkgNS44MDMtMTYuMjUgMTIuODk0LTU0Ljk5MyA0Ni4xMDMtMTAwLjI0NSA5OC45NzctMTM2LjYgMTU5LjYwNkMxMzAuNzU1IDYzNS43MTkgMTEzIDY2OC4wNyAxMTMgNjY5LjM4NmMwIDEuMzQ3IDIuNDQ4LjMzNyAxNS4yMDctNi4yNzR6Ii8+PHBhdGggZmlsbD0iI2YwY2RkMyIgZD0iTTMyNy43MDUgMTEwMy43NzFjLTE4LjAzOC0xOC4yOTktMzMuMjI1LTM0LjMxMy0zMy43NS0zNS41ODYtLjU5Ni0xLjQ0NS0uOTU1LTc5Ljc1NS0uOTU1LTIwOC4yNUMyOTMgNzQ2LjY3IDI5Mi43MSA2NTQgMjkyLjM1OCA2NTRjLS43MzUgMC01OC41NjUgMjkuMjU3LTE5NC45NTIgOTguNjNDNDUuMTA0IDc3OS4yMzUgMS43NDMgODAxIDEuMDQ4IDgwMWMtLjgzIDAtMS4wNjEtLjgxMi0uNjczLTIuMzU5LjMyNi0xLjI5NyAxLjA2NC01LjY4NCAxLjY0LTkuNzUgMy43MzQtMjYuMzQgMjIuMDEtODIuMjkgNDAuNDY4LTEyMy44OTFDOTcuMjQzIDU0MS41ODUgMTgyLjk0OCA0NDAuMTE5IDI5NS41IDM2NS40NTVjMjcuODEyLTE4LjQ1IDY0LjM1NS0zOS4yOCA2Ni41NC0zNy45My42MDQuMzczLjk2IDQwLjA4OS45NiAxMDcuMDM0IDAgOTYuMzcyLjE1IDEwNi40NDEgMS41ODEgMTA2LjQ0MSAyLjQ0NyAwIDE1LjAwOS02LjU3NCAyNC40MTktMTIuNzc5IDEwLjMyMS02LjgwNSAyNy41OS0yMy44NjQgMzQuNjg3LTM0LjI2NCAxMC41MDgtMTUuNCAxOC4zMS0zNC4xMTQgMjEuOTY4LTUyLjY4NyAyLjM0Ny0xMS45MjIgMi4zNTYtMzYuNTc3LjAxNi00OC40NTItMy40NDUtMTcuNDktMTAuMjQ3LTM0LjIzNi0xOS45MjYtNDkuMDU4LTguNDQzLTEyLjkzLTEyLjc5My0xNy42NjUtOTEuMTg2LTk5LjI2LTczLjktNzYuOTE4LTc1LjIxNi03OC4zMjktODMuNDg3LTg5LjQ4NC0yMS45NDEtMjkuNTkyLTI2LjMzLTYzLjExOC0xMi41NzYtOTYuMDcgMTIuMDQ5LTI4Ljg2NiA0MC43MjQtNTIuMTM4IDcwLjgtNTcuNDU4IDEwLjQxMi0xLjg0MiAyNy43MTItMS44NjIgMzguNzk0LS4wNDUgMTUuOTM5IDIuNjE0IDMxLjgyOCAxMC4yODMgNDcuNTIgMjIuOTM1IDE4Ljk5NiAxNS4zMTcgMjYuMTEyIDI1LjY0IDkwLjM4NiAxMzEuMTIyIDY3LjA1OCAxMTAuMDUyIDc0LjgzOSAxMjMuMjE1IDc1LjUyIDEyNy43NTcuNzM0IDQuODk1LS4xOTQgNi4yOTctMy40NzUgNS4yNTYtMS4wNjgtLjMzOS0xNi45NDUtMTYuMjMtMzUuMjgzLTM1LjMxNS02NS4yODgtNjcuOTQ0LTEwMy42NDUtMTA4LjE2Ny0xMzEuMzM5LTEzNy43MjZDMzQ3Ljc1NiA2OC44NjcgMzQzLjc2NiA2NS42NzcgMzI5IDY1LjU2Yy02LjI0Ni0uMDUtOC40NDMuNDAzLTEzLjE0MiAyLjcxLTYuMjcgMy4wOC0xMi41MjIgOS4yNzgtMTYuMDIgMTUuODgtMS44NDQgMy40ODItMi4zMDcgNS45NDYtMi4zMiAxMi4zNS0uMDI2IDExLjU3MiAyLjU5MSAxNi4zMTcgMTcuNzg1IDMyLjI1NCA2LjY4NCA3LjAxIDQyLjI4OCA0NC4xNzUgNzkuMTIgODIuNTkgMzYuODMgMzguNDEzIDY5Ljg0MiA3My4yODggNzMuMzYgNzcuNSAzMy4zMDggMzkuODg2IDUwLjI4NyA5NC44NTMgNDUuMTkxIDE0Ni4zLTUuNjkgNTcuNDQ0LTM0LjEzMyAxMDguMTk3LTc5LjU5MyAxNDIuMDIzLTEyLjMxIDkuMTYtMjAuNjQgMTQuMDUyLTQ4LjEyIDI4LjI2NEwzNjMuNSA2MTYuNjg1bC0uMjUyIDI2MC4xNThjLS4yIDIwNy4xLS41MDYgMjYwLjE2MS0xLjUgMjYwLjE3OC0uNjg2LjAxMi0xNi4wMDYtMTQuOTUtMzQuMDQzLTMzLjI1ek0xODMgNjM1LjI0N2M5MS41NTctNDYuOTcgMTA1LjM2Mi01NC4yNTggMTA3Ljc1LTU2Ljg4NGwyLjI1LTIuNDc1di02My40NDRjMC00MC44ODgtLjM1LTYzLjQ0NC0uOTgzLTYzLjQ0NC0xLjQyIDAtMjQuOTU2IDE5LjgzOC00MS44MyAzNS4yNTgtNDIuMDg2IDM4LjQ1OC04My45NDcgOTAuNzEyLTExNC40OTQgMTQyLjkyQzEyNS43MSA2NDQuMjQgMTEzIDY2OC4xMzkgMTEzIDY2OS44NDhjMCAxLjM4NC0zLjk4MiAzLjM1MiA3MC0zNC42MDF6Ii8+PHBhdGggZmlsbD0iI2VlYzNjYiIgZD0iTTMyNy41NzUgMTEwMy4zODNsLTMzLjQ5Mi0zMy44ODMtLjA0Mi0yMDcuMTkxYy0uMDI4LTEzOS44MzMtLjM3My0yMDcuMzk2LTEuMDYyLTIwNy44MjItMS4wNC0uNjQzLTYxLjU5OSAyOS43MjctMjA4LjY2OSAxMDQuNjQ1QzM5LjEwNiA3ODIuMTYgMS42MTMgODAxIC45OTMgODAxYy0uNjIgMC0uODgyLS43ODctLjU4My0xLjc1LjMtLjk2MyAxLjAwMy01LjAwNSAxLjU2Mi04Ljk4MkM1LjMwMyA3NjYuNTU3IDIwLjE3NyA3MTguMzYgMzUuNTM5IDY4MS41IDY2Ljc1MyA2MDYuNjAxIDEwOC4zNiA1NDAuMjEyIDE2MC41NyA0ODJjMTQuMzE4LTE1Ljk2NCA0OC41NC00OS42MjQgNjMuNDMtNjIuMzg4IDI3LjUwNS0yMy41OCA1Ni45Ny00NS4zMDggODYtNjMuNDE5IDIwLjAwNi0xMi40ODEgNDguMjQ4LTI4LjM2MyA1MC43ODYtMjguNTYgMS42MDYtLjEyNSAxLjc0NiA2LjYyMSAyLjIxNCAxMDYuODY3LjQ5NyAxMDYuMzA0LjUxMyAxMDYuOTk4IDIuNSAxMDYuNjczIDIuNzIzLS40NDYgMTUuMjktNy4yNSAyMy45MTctMTIuOTUgOS42NTctNi4zOCAyOC45ODgtMjUuODQ4IDM1LjQ3LTM1LjcyMyA5LjkwOC0xNS4wOTMgMTcuMDIyLTMyLjM2NiAyMC43OTgtNTAuNSAyLjQ3MS0xMS44NjQgMi40NTktMzguMjM4LS4wMjMtNTAtNC42MjktMjEuOTM2LTE1LjI1My00NC42MTgtMjguMTA2LTYwLTYuMTgzLTcuNC0yOC4yNDItMzAuNzEzLTc4LjUzOC04My03Ny4xNC04MC4xOTQtODIuNTYtODYuMDktOTEuNTk3LTk5LjYxLTYuNDMtOS42MjItMTAuNTc5LTE4LjQ1OS0xMy42NjQtMjkuMTAxLTEuOTUzLTYuNzQtMi4yNDktMTAuMDEtMi4xOTUtMjQuMjg5LjA1Ni0xNC45NzcuMzEtMTcuMzExIDIuNzU2LTI1LjI4OCA5LjI0Ny0zMC4xNTMgMjkuNjEzLTUyLjQyNSA1OS4xLTY0LjYzMkMzMDIuNzI3IDIuMjI3IDMxNS42MjQuMDM2IDMyOSAuMDM1YzI4LjY5LS4wMDEgNTEuNTUgOS43OCA3NC4xNzggMzEuNzM3IDE2LjYzNiAxNi4xNDIgMjMuODk5IDI3LjE2OCA5Ni4wOCAxNDUuODU5IDYwLjUwNSA5OS40OSA2MS41NDcgMTAxLjI1NyA2Mi4yNzIgMTA1LjU0Ny44NTkgNS4wODEtLjQ4NiA2LjcxOS0zLjk4MSA0Ljg0OC0yLjg3Ni0xLjU0LTEwMS44MDMtMTA0LjM2Mi0xNjIuNjUtMTY5LjA1NC00OC4zMzMtNTEuMzg3LTUwLjk0Mi01My40ODgtNjYuMzk5LTUzLjQ1Mi05Ljk3Ni4wMjMtMTUuODE0IDIuNzYtMjMuMjU4IDEwLjkwNS02LjQ0NyA3LjA1NS04LjY3NSAxMy4yOTgtOC4wMTUgMjIuNDU5LjY3NSA5LjM1MyA0LjA3NyAxNS4zNTMgMTUuNTU1IDI3LjQyNiA1LjMyOCA1LjYwNSA0MS4zNTQgNDMuMjE5IDgwLjA1OCA4My41ODcgMzguNzAzIDQwLjM2OSA3My4wOTcgNzYuODE5IDc2LjQzIDgxIDkuNTM0IDExLjk1OSAxNy40MjMgMjQuNTE2IDI0LjI1MyAzOC42MDMgNDEuNzkxIDg2LjE5NyAxNi42NSAxOTAuMDU1LTU5LjgzIDI0Ny4xNTYtMTIuODgzIDkuNjItMTkuNDQxIDEzLjUwMi00Ny4wNyAyNy44NjdMMzYzLjUgNjE2LjU0NyAzNjMgODc2LjE5Yy0uMjc1IDE0Mi44MDQtLjgyMiAyNTkuOTY2LTEuMjE2IDI2MC4zNi0uMzk0LjM5NC0xNS43ODgtMTQuNTMxLTM0LjIwOS0zMy4xNjd6TTE4Ny41IDYzMy4wMDVjOTUuNzM2LTQ5LjA3OCAxMDEuNTMyLTUyLjE2OCAxMDMuOTUxLTU1LjQwNyAyLjAwNi0yLjY4NiAyLjA1NS00LjA0NiAyLjM0OC02NS4zMi4xNzYtMzYuNjc2LS4wNzctNjIuOTU2LS42MS02My40ODktMS44NzgtMS44NzgtMzQuNTE0IDI2LjM4OC02MC4yMDcgNTIuMTQ2LTM3LjI5OCAzNy4zOTItNjcuMDggNzUuNjUzLTk1LjAzIDEyMi4wOS0xMy4zMSAyMi4xMTEtMjYuODMgNDguNTItMjQuMzcgNDcuNjA0IDEuMDU1LS4zOTMgMzQuMzE4LTE3LjMyNCA3My45MTgtMzcuNjI0eiIvPjxwYXRoIGZpbGw9IiNlY2JiYzQiIGQ9Ik0zNTUuNzQzIDExMzEuODA4Yy0zLjAxMi0yLjkyLTE4LjEzNi0xOC4xNzgtMzMuNjEtMzMuOTFsLTI4LjEzMy0yOC42di0yMDcuNjVDMjk0IDY3Ny4xOTMgMjkzLjgzMSA2NTQgMjkyLjQ5MSA2NTQgMjkxLjA4IDY1NCAyMDcuOTg0IDY5NS44NTMgODkgNzU2LjQ5MyAxOS4zNjQgNzkxLjk4My44OTkgODAxLjI0LjU1NSA4MDAuODRjLS42NzctLjc5IDEuOTgzLTE0LjU4MyA2LjE0LTMxLjg0IDE2LjI2OC02Ny41NCA1MS40MzUtMTQ1Ljc0NSA5NC42NTgtMjEwLjUgNTUuMjYyLTgyLjc5MyAxMzAuMTE5LTE1NC4zNiAyMTYuNzg1LTIwNy4yNTdDMzM1LjE1IDM0MC44NiAzNTguOTIzIDMyOCAzNjEuMTA4IDMyOGMxLjg0NCAwIDEuODkyIDIuNjc5IDEuODkyIDEwNi40NDEgMCA3MC45NzcuMzM4IDEwNi42NSAxLjAxNiAxMDcuMDY5LjU1OC4zNDUgNS4zMzgtMS42NDggMTAuNjIyLTQuNDMgNDUuNDUyLTIzLjkyOCA3My4zMjctNjkuNDM2IDczLjM1Ni0xMTkuNzU4LjAxOC0zMS4yMjUtMTAuMTQtNTkuOTA0LTI5Ljk5NS04NC42ODMtNi45NjItOC42ODktMTUuMDg0LTE3LjMxMy03Ni40MTMtODEuMTM5LTc4LjM4NC04MS41NzYtODAuMzIzLTgzLjY0Ni04OC43Ni05NC43MjgtNy45MDktMTAuMzktMTUtMjMuOTU4LTE4LjQzNC0zNS4yNzItMi40NS04LjA3My0yLjczOC0xMC41OTYtMi44LTI0LjUtLjA4NC0xOC42NTcgMS43Ni0yNi45ODkgOS40MDgtNDIuNWE5OC4yMjggOTguMjI4IDAgMCAxIDQyLjcyMi00My42OUMyOTguNzMgMi45OSAzMTEuMzItLjAwMyAzMjkuMTkyLjAwM2MzNS42NzkuMDEyIDY2LjE4IDE3LjQ2NCA5MS43NTQgNTIuNDk3IDEwLjY4MSAxNC42MzIgNTAuNjMgNzkuMzA1IDEyNi4zNCAyMDQuNTI4IDEzLjk5IDIzLjE0IDE2Ljk2OCAzMC4xNyAxMy4zNjkgMzEuNTUxLTIuOTUgMS4xMzIgMy40MzIgNy41NDMtOTYuMjEyLTk2LjY0Ny0yOC42My0yOS45MzgtNjEuNzY1LTY0Ljc4Mi03My42MzItNzcuNDMyQzM0OC4wNDggNjguOTE1IDM0My44MiA2NS41NjYgMzI5IDY1LjUyNGMtMTAuMDUyLS4wMjgtMTUuMzY0IDIuMDkzLTIyLjQyMiA4Ljk1Mi02LjA4MyA1LjkxMi04Ljc3NSAxMS41OTYtOS4zNjEgMTkuNzYxLS41NjkgNy45MjEuODYgMTMuODM3IDQuNzY3IDE5LjczOSAxLjUzNSAyLjMxOSAyNS42OCAyOC4wOTYgNTMuNjU0IDU3LjI4MiAyNy45NzQgMjkuMTg2IDYzLjQxMiA2Ni4xNTUgNzguNzUxIDgyLjE1MyAxNS4zNCAxNiAzMC41NSAzMi4zNDMgMzMuOCAzNi4zMjEgMjAuMzY4IDI0LjkyMyAzNC40NjkgNTQuNjc4IDQxLjM1NyA4Ny4yNjggMi4xOTEgMTAuMzY4IDIuNzMyIDE2LjAzOCAzLjE3MiAzMy4yNDUuMzQgMTMuMzAzLjEgMjQuMjQ0LS42NjggMzAuNS01LjQ4NSA0NC42NjctMjUuMzg0IDg1LjU3NS01Ny4wNDUgMTE3LjI3My0xOC4yMTggMTguMjQtMzIuMjUzIDI3LjYtNzQuMDA1IDQ5LjM2MWwtMTcuNSA5LjEyMS0uNSAyNTkuNjY3Yy0uMjc1IDE0Mi44MTYtLjc4OSAyNTkuOTU1LTEuMTQxIDI2MC4zMDgtLjM1My4zNTItMy4xMDUtMS43NDgtNi4xMTctNC42Njd6TTE3NS43NjcgNjM5LjMyNkMyNjcuNTY5IDU5Mi4yMjQgMjg2LjE0MyA1ODIuNDUgMjkwIDU3OS4yMTJsMy41LTIuOTM4LjI3Mi02My4zMTVjLjE1My0zNS42MjQtLjExMy02My43LS42MS02NC4xOTYtMS4wMTctMS4wMTgtMTAuODUyIDYuNTk0LTI4LjUgMjIuMDU4LTUwLjE5NiA0My45ODMtOTIuNTYxIDk0Ljc4Ni0xMjYuOTA0IDE1Mi4xNzlDMTMwLjEyNSA2MzUuNzU1IDExMiA2NjkuMDQyIDExMiA2NzAuMzAzYzAgLjM4My40NTguNjk3IDEuMDE3LjY5N3MyOC43OTctMTQuMjUzIDYyLjc1LTMxLjY3NHoiLz48cGF0aCBmaWxsPSIjZTdhOGI0IiBkPSJNMzI3LjY1NCAxMTAyLjkyTDI5NCAxMDY4LjcyVjg2MS41MjhjMC0xMTMuOTU3LS4zLTIwNy40OTMtLjY2NS0yMDcuODU5LS42ODgtLjY4Ny02Mi40MTMgMzAuMzE0LTIwOC4xNjcgMTA0LjU1QzM4Ljc4NiA3ODEuODQuNjc4IDgwMS4wMS40ODMgODAwLjgxNmMtLjcxNC0uNzEzIDUuNTUyLTI5Ljc0NiA5LjU2My00NC4zMTYgMjQuODI4LTkwLjE2NyA3My40NDctMTgyLjQyNCAxMzQuOTEtMjU2IDQxLjY5OS00OS45MTUgOTQuNTE4LTk3LjI5MSAxNDguNTQ0LTEzMy4yMzcgMjcuODY2LTE4LjU0IDY1LjI3Mi0zOS45NDggNjcuOTg0LTM4LjkwOCAxLjM0Mi41MTUgMS41MTYgMTIuODM5IDEuNTE2IDEwNy4xMTQgMCA4NS40MDMuMjUyIDEwNi41MzEgMS4yNjkgMTA2LjUzMSAyLjA0NCAwIDE1LjY1OC03LjEzMyAyMy4yMzktMTIuMTc2IDMxLjQ2Ny0yMC45MzIgNTIuMzg2LTUzLjAxNiA1OC45Mi05MC4zNjkgMi4wMjYtMTEuNTg2IDIuMDMtMzMuMjcuMDA4LTQ0Ljk1NS0yLjEyMi0xMi4yNjYtNy41MDItMjcuOTY2LTEzLjUzOS0zOS41MDktMTAuMjE1LTE5LjUzNC0xNC40NTgtMjQuMjk2LTEwNy4zNDYtMTIwLjQ5MS02Ni4xMTQtNjguNDY3LTc2LjY4NC04MC42MjUtODUuMDE1LTk3Ljc4Ny02Ljc4LTEzLjk3LTguOTg4LTI0LjIxMy04Ljg4My00MS4yMTMuMTAzLTE2LjcxIDEuOTk0LTI1LjA4OSA4LjkwMy0zOS40NDQgNS45MDctMTIuMjczIDExLjM3Ny0xOS44MjIgMjEuMDczLTI5LjA4MkMyODAuMjU0IDkuMTg2IDMwMy4xNDMuMDEyIDMyOC45MTkuMDA0YzI3LjI1OS0uMDEgNTEuNzg3IDEwLjQyMyA3My45MSAzMS40MzkgMTQuNzAxIDEzLjk2NCAyNS41NjUgMzAuNDQyIDkxLjY4MyAxMzkuMDU3IDY4LjA0NCAxMTEuNzggNjkuMjM1IDExMy44NjUgNjcuMDI4IDExNy40MzUtMS4xMTIgMS43OTktMi40MDcgMS4yMjgtNy4yMjMtMy4xODUtNi4zMjUtNS43OTYtMTI4Ljc1MS0xMzMuNjItMTY2LjE4OC0xNzMuNTE0LTMyLjI5LTM0LjQxLTM5LjU1My00MS4xMTgtNDcuOTE3LTQ0LjI1NC0xNi4yNC02LjA4OS0zMy40NTEgMS40Mi00MS4wMjUgMTcuODk4LTUuMyAxMS41MzQtMi43NDQgMjMuNzc4IDcuMzQ1IDM1LjE3MyAyLjY1MiAyLjk5NiAzOC44OTUgNDAuOTk3IDgwLjUzOSA4NC40NDdzNzcuOTU4IDgxLjcgODAuNjk4IDg1YzE4LjUwMSAyMi4yODUgMzMuMzY0IDUyLjQ5NiA0MC4yNzQgODEuODY0IDkuMTY0IDM4Ljk0MyA1LjcwNiA4Mi44OTUtOS40NzUgMTIwLjQ0MS0xMC41NDQgMjYuMDc3LTIzLjE3NiA0NC45NTctNDMuOTk1IDY1Ljc1Ni0yMC4xMzggMjAuMTE5LTMxLjg1NCAyOC4wOTEtNzAuMzI2IDQ3Ljg1M0wzNjMgNjE2LjMyOGwtLjAxNSAyNTkuMDg2Yy0uMDA4IDE0Mi40OTctLjM5IDI1OS42NzUtLjg0NiAyNjAuMzk1LS41OTIuOTM0LTEwLjQ3NC04LjQ5LTM0LjQ4NS0zMi44OXpNMjI2IDYxMy43NmM1OS43NzUtMzAuNzkgNjQuMjkyLTMzLjI5MyA2Ni4zMzQtMzYuNzUgMS41MDctMi41NSAxLjY2Ni04LjgzIDEuNjY2LTY1LjkxNSAwLTUwLjEyMi0uMjYtNjMuMDk2LTEuMjYyLTYzLjA5Ni0uNjk0IDAtOC40NTYgNi4wMjItMTcuMjUgMTMuMzgyLTU2LjEzOCA0Ni45OS0xMDIgMTAwLjkzNy0xMzkuMzkzIDE2My45NjgtOS4yNSAxNS41OTMtMjQuMDk1IDQzLjY2NS0yNC4wOTUgNDUuNTY0IDAgMS4yMzYgMjQuMTkzLTEwLjg5MyAxMTQtNTcuMTUzeiIvPjxwYXRoIGZpbGw9IiNlMjk3YTQiIGQ9Ik0zMjcuNzUgMTEwMi43MTlsLTMzLjc1LTM0LjU1Vjg2MC41ODRDMjk0IDcyMC41NjggMjkzLjY2OSA2NTMgMjkyLjk4MyA2NTNjLTEuMDMgMC04Ni4wNCA0Mi45NDYtMjE3LjQ1NyAxMDkuODU1LTM5LjU4NiAyMC4xNTUtNzIuNjE2IDM2LjgwMy03My40IDM2Ljk5Ny0xLjg5My40NjgtMS4xNy00LjcyMiAzLjQwMy0yNC40MDhDMTkuNTQgNzE1LjExOCA0OC4zNTQgNjQ2LjAwNSA4NC41MTQgNTg1Ljk4YzYwLjM4OS0xMDAuMjQgMTQ2LjUxNS0xODQuMzE0IDI0OS4zNC0yNDMuMzk4QzM0Ni40ODkgMzM1LjMyNCAzNjAuMzYgMzI4IDM2MS40NzYgMzI4Yy4yODkgMCAuNTI1IDQ3LjQzOC41MjUgMTA1LjQxOCAwIDU3Ljk4LjI3MyAxMDYuMTMuNjA3IDEwNyAuODg5IDIuMzE3IDIuNjM2IDEuOTg1IDEwLjY2OC0yLjAyNyAzNy41My0xOC43NDQgNjMuOTQzLTUzLjQzNyA3Mi44NjItOTUuNzAzIDMuMDI2LTE0LjMzNyAzLjAyNi0zNy4wMzkgMC01MS4zNzYtMy44NzktMTguMzgxLTkuNzYtMzIuNzI5LTE5LjU5OS00Ny44MTItOC41NzEtMTMuMTQtMTEuNzI1LTE2LjU3NS04OS41MzctOTcuNS04Ni41NzQtOTAuMDM3LTg3LjM2LTkwLjkzNC05Ni40OS0xMTAuMjA5LTYuNDQtMTMuNTkzLTguODEyLTI0LjM4Mi04Ljc1LTM5Ljc5MS4xMDItMjUuNzg4IDkuNjMzLTQ4LjUyOSAyOC4wNDMtNjYuOTE1QzI3OC4yNjQgMTAuNjUgMjk5LjM5IDEuMzIyIDMyNSAuMzAyYzI1LjY0Mi0xLjAyMiA0OC4yMSA3LjAxNiA3MC43NzggMjUuMjEgMTguMjIzIDE0LjY5MSAyNS4zMTggMjUuMDUzIDkxLjQgMTMzLjQ4OCA1OC4wNTUgOTUuMjYyIDczLjIwMSAxMjAuNjU4IDc0LjEyMiAxMjQuMjg2IDIuOTI3IDExLjUyNi0xLjczNSA3LjI1Mi03MC45MjctNjUuMDMyQzQwNS41NTYgMTI5LjY0OCA0MTAuNzg0IDEzNS4xMzcgMzg2LjMxIDEwOWMtMjkuNzEyLTMxLjczLTM1LjcxMS0zNy4zNTYtNDMuOTQyLTQxLjIxNS0xMy4zOS02LjI3OC0yNi41ODMtMy42NzYtMzYuODEyIDcuMjYtNi43MzEgNy4xOTYtOS4wMTQgMTIuNzYtOS4wMSAyMS45NTUuMDA1IDEwLjk0MSAyLjk0NCAxNi4zMjcgMTYuODMyIDMwLjg1NSA2LjEyMiA2LjQwNSA0MS43MyA0My41NTcgNzkuMTI3IDgyLjU2IDM3LjM5OCAzOS4wMDMgNzAuODUyIDc0LjMyOCA3NC4zNDMgNzguNSAzMS4wMjMgMzcuMDc2IDQ3LjcxNiA4Ni4xIDQ1LjgyNSAxMzQuNTg1LTIuMDk0IDUzLjY5NC0yMy44NTcgMTAyLjE3Ny02Mi4wMjEgMTM4LjE2NS0xNi43MTUgMTUuNzYxLTMxLjg3MiAyNS42NDUtNjcuMTUxIDQzLjc4Ni0xMC40NSA1LjM3My0xOS40NSAxMC4xOTMtMjAgMTAuNzEtLjY2LjYxOS0xLjE3IDg5LjU3Ny0xLjUgMjYxLjAyNGwtLjUgMjYwLjA4NHpNMTc2Ljc4MiA2MzkuMzE0Yzk3Ljg5Ni01MC4yMiAxMTAuNDY3LTU2Ljg0NCAxMTMuOTY4LTYwLjA1M2wzLjI1LTIuOTc4VjUxMi4xNGMwLTU1LjQ0My0uMTk3LTY0LjE0MS0xLjQ1NC02NC4xNDEtMS45ODggMC0yMy42OTggMTguMDk2LTQyLjkxIDM1Ljc2Ny01Mi43NzIgNDguNTQtMTAxLjQ2NyAxMTMuMzk2LTEzNC43NDQgMTc5LjQ2LTQuMjY0IDguNDY4LTQuMzY0IDguNzczLTIuODYgOC43NzMuNTY3IDAgMjkuNzA1LTE0LjcwOSA2NC43NS0zMi42ODZ6Ii8+PHBhdGggZmlsbD0iI2UwOGU5ZCIgZD0iTTMyOC4yNSAxMTAyLjk4NUwyOTUgMTA2OS4xOTFWODYxLjU2NGMwLTE4MS44NzctLjE4My0yMDcuNjk3LTEuNDcyLTIwOC4xOTItMS40ODYtLjU3LTU0LjAwNCAyNS43MjgtMjA4LjM3IDEwNC4zMzZDMzkuMzE5IDc4MS4wNSAxLjU3IDc5OS45MDQgMS4yNyA3OTkuNjA1Yy0xLjMwNy0xLjMwNyA3LjQ0Ny0zOC4yNzQgMTQuMjMzLTYwLjEwNSAyNy40NS04OC4zMDUgNzUuMjAzLTE3NC45NDQgMTM1LjAzOC0yNDUgMTUuOTk5LTE4LjczMSA1Ni40LTU5LjE5IDc0Ljk1OC03NS4wNjUgMjcuNzk5LTIzLjc4IDU2LjA1OC00NC41NjQgODUuNS02Mi44ODcgMjAuNjE5LTEyLjgzMiA0OS4wMDgtMjguNjYgNTAuMTQ1LTI3Ljk1OS40Ny4yOTEuODU1IDQ4LjE3Ni44NTUgMTA2LjQxMSAwIDcxLjE5LjMzNiAxMDYuMDkgMS4wMjQgMTA2LjUxNSAxLjg4OCAxLjE2NiA2LjY4My0uNTg2IDE1LjYxMy01LjcwNCAzNS40NC0yMC4zMTMgNTkuMDM1LTUyLjQyIDY3LjQ3Mi05MS44MTEgMS44MTctOC40ODIgMi4yNDktMTMuNjcgMi4yNDktMjcgMC0yNC42ODQtMy43NzQtNDAuMjc4LTE1LjAyNS02Mi4wNzgtOS44NzItMTkuMTI5LTExLjMwNC0yMC43NTgtOTEuMzE3LTEwMy45MjItODEuMTg2LTg0LjM4My04Ny4wNjQtOTAuODM0LTk2LjEyLTEwNS40OTEtMTAuNDI3LTE2Ljg3OC0xNC40NDUtMzIuNS0xMy42MTItNTIuOTI4LjYyNC0xNS4zMTggMi4zMzgtMjIuNjc3IDguMi0zNS4yMDQgOC4zMTUtMTcuNzcgMTkuNDUyLTMwLjgxNyAzNC45LTQwLjg4NyA0MC42NTItMjYuNDk4IDg5LjU0Ny0yMC42MTUgMTI2Ljc1MyAxNS4yNTEgMTAuMTU2IDkuNzkgMTkuNTY4IDIxLjkgMzAuODY2IDM5LjcxMkM0NTYuMjM2IDEwOC4wODIgNTU3LjI4NSAyNzQuMjQgNTYwLjEzNSAyODAuNWM0LjQzIDkuNzMuNDY4IDEwLjA2LTkuMDQ2Ljc1LTUuOTQtNS44MTItNDkuMTk2LTUwLjkyNC0xMjAuNTc4LTEyNS43NS0xMC40OTQtMTEtMjguNTc3LTMwLjEyNS00MC4xODQtNDIuNS00Mi4wNDUtNDQuODI1LTQ2LjU0LTQ4LjM3Ni02MS4zMjctNDguNDU4LTkuMDY4LS4wNS0xNi41MzggMi45OTUtMjIuODY0IDkuMzIyLTEyLjQxOCAxMi40MTgtMTMuMjkxIDMwLjA2My0yLjE3MiA0My44ODggMi4xIDIuNjExIDIyLjE3OCAyMy44NzMgNDQuNjE3IDQ3LjI0OCAyMi40NCAyMy4zNzUgNTcuMjE4IDU5LjYgNzcuMjg2IDgwLjVzMzkuMTgyIDQxLjM3NSA0Mi40NzYgNDUuNWMyMi40NTUgMjguMTIxIDM2Ljg0OCA2MC44NyA0Mi4zNDQgOTYuMzQ2IDIuNjAzIDE2LjgwMiAyLjMyIDQ1LjIzNC0uNjIgNjIuMTU0LTEwLjA0IDU3LjgwMS00Mi44IDEwNi40MjUtOTIuNDE2IDEzNy4xNzItNS4wMzMgMy4xMi0xOC4zNzYgMTAuMzkyLTI5LjY1MSAxNi4xNjMtMTEuMjc1IDUuNzctMjEuNzM3IDExLjM0OC0yMy4yNDggMTIuMzk1bC0yLjc0OCAxLjkwMy0uMjUyIDI1OS44MjQtLjI1MiAyNTkuODIyek0xODQuMzY4IDYzNS42NTdjODkuNDE1LTQ1Ljg0NyAxMDMuNjE3LTUzLjMzOCAxMDYuNTc2LTU2LjIxNCAxLjc3Mi0xLjcyMyAyLjY0MS0zLjk2NCAzLjE2NS04LjE2Ljg3NS03LjAwNCAxLjExMy0xMTguODUxLjI2LTEyMi4wMzMtLjMzLTEuMjM4LS45ODItMi4yNS0xLjQ0Ny0yLjI1LS40NjQgMC02LjE1IDQuMzQzLTEyLjYzMyA5LjY1MUMyMjAuNTM4IDUwNS41NyAxNjkuOTggNTY1LjI5IDEzMS41OSA2MzIuMyAxMjIuNjUgNjQ3LjkwOSAxMTEgNjcwLjE0MiAxMTEgNjcxLjZjMCAxLjUgNy43LTIuMjcxIDczLjM2OC0zNS45NDN6Ii8+PHBhdGggZmlsbD0iI2RkODU5NSIgZD0iTTMyOC41IDExMDMuMjJsLTMzLTMzLjI4Mi0uNS0yMDguMjA1Yy0uNDUtMTg3LjI2NS0uNjU2LTIwOC4yMzYtMi4wNTUtMjA4LjUwNS0xLjUwOC0uMjktNjEuNDk0IDI5Ljg0LTIxNC40NDUgMTA3LjcxNS00MC43IDIwLjcyMi03NC43ODcgMzcuOTczLTc1Ljc1IDM4LjMzNS0yLjI2Ljg1MS0yLjIzNi0uMDk4LjI5LTExLjUzOUMyMi4xOTUgNzAwLjk3NSA2Mi44ODcgNjExLjk0NSAxMTguMzI4IDUzNS41YzQ1LjQ5LTYyLjcyMiAxMDcuNzMyLTEyMi4zOSAxNzMuNzItMTY2LjUzIDI0LjI3Ny0xNi4yNCA2NC45NC0zOS45NyA2OC40OS0zOS45NyAxLjI3NCAwIDEuNDYyIDEzLjY5NyAxLjQ2MiAxMDYuMzkzIDAgOTAuNzQ1LjIwOCAxMDYuNDczIDEuNDEzIDEwNi45MzUgMS44MDUuNjkzIDEzLjYtNC45NDkgMjIuODkzLTEwLjk0OSA0MC43NDgtMjYuMzEgNjQuNTQzLTcyLjA1NiA2Mi4zNTQtMTE5Ljg3OS0xLjIzOS0yNy4wNTYtOS40ODgtNTEuMDg3LTI0Ljk0Ny03Mi42NzYtNy4yNjYtMTAuMTQ1LTE3LjcxMy0yMS41MDQtNjQuNjMtNzAuMjctMTkuMDItMTkuNzY5LTQxLjEwOC00Mi43MzQtNDkuMDgzLTUxLjAzMy00OS43NDQtNTEuNzY0LTYxLjEyNy02NS4wMzktNjguMTk0LTc5LjUyMS03LjgzNS0xNi4wNTktMTAuMzQ1LTI4LjM1LTkuNDk0LTQ2LjUgMS4xMS0yMy42OCA5Ljc2My00My40OTMgMjYuNTc5LTYwLjg1NyA5LjUyNy05LjgzNyAxNy4zMTYtMTUuNDUxIDI5LjI1Ny0yMS4wODdDMzAzLjMwNSAyLjQwMiAzMTEuODEuNTY0IDMyOS41LjYyYzEzLjMyOC4wNDIgMTYuMDAzLjM0OCAyNCAyLjc0NyAxOC40OSA1LjU0OSAzMy45ODggMTQuNTQxIDQ4LjEzIDI3LjkyNyAxNC45OTcgMTQuMTk3IDIzLjAwMSAyNi4wMyA3My44NyAxMDkuMjA2IDQyLjQ3NyA2OS40NTMgODMuNzkyIDEzNy45NTQgODUuMTE4IDE0MS4xMjggMy4wNzQgNy4zNTguMjggOC41MjItNi4yODYgMi42Mi00Ljk2Mi00LjQ2Mi0xMTIuMi0xMTYuNDctMTUzLjgxNy0xNjAuNjYtNTMuMzc0LTU2LjY3Ni01Ni4zNDgtNTkuMTE0LTcyLjAxNS01OS4wNTctOS42NjUuMDM1LTE1LjYxNSAyLjUyNS0yMi41NDMgOS40MzctNy4xMTMgNy4wOTctOS40NjIgMTIuODMtOS40MzMgMjMuMDMyLjAyIDcuMzMyLjQwNyA5LjIzNCAyLjgxNSAxMy44NDUgMy40NjIgNi42My4yOCAzLjIwNiA4Ny41MTQgOTQuMTU1IDM5LjgyOSA0MS41MjUgNzUuNDU5IDc5LjEgNzkuMTc3IDgzLjUgMzIuNjY2IDM4LjY1MiA1MC4xMzMgOTIuNTU5IDQ2LjA0NCAxNDIuMTA0LTQuOTUgNTkuOTkzLTMyLjQzMyAxMTAuMzI3LTc5LjY4IDE0NS45MzUtMTAuNDU3IDcuODgyLTIyLjMwMyAxNC44NDQtNDYuNTU0IDI3LjM2LTExLjkxMiA2LjE0OC0yMi4xNSAxMS43NjgtMjIuNzQ4IDEyLjQ5LS43NzcuOTM2LTEuMTYgNzUuNTM1LTEuMzQgMjYwLjcxMWwtLjI1MiAyNTkuNHpNMTcwLjY4IDY0Mi44MzZjOTkuMzY4LTUwLjk1NiAxMTUuNjc2LTU5LjU0OCAxMTkuODItNjMuMTI0bDQtMy40NTIuMzA2LTYyLjMzOGMuMTY5LTM0LjI4Ni4wNDgtNjMuMzctLjI2OS02NC42My0uMzE2LTEuMjYxLTEuMDYtMi4yOTMtMS42NTMtMi4yOTMtMS40NDMgMC0xOS4zNSAxNC43NTUtMzUuMzg0IDI5LjE1OC01Ni4wMDQgNTAuMzA1LTEwMS4wMSAxMDguMjM3LTEzNy44OTYgMTc3LjQ5OEMxMTIuMDYxIDY2Ny44MiAxMDkuODcyIDY3MyAxMTEuNDMgNjczYy4yMzcgMCAyNi45LTEzLjU3MyA1OS4yNS0zMC4xNjN6Ii8+PHBhdGggZmlsbD0iI2Q5NzU4NyIgZD0iTTMyOC4yNSAxMTAyLjcxOGwtMzMuMjUtMzQuMDlWODYwLjg3NGMwLTEzOC4xOC0uMzM3LTIwNy45NjMtMS4wMDUtMjA4LjM3Ni0uOTA3LS41Ni04NC45ODYgNDEuNzA5LTIzNy40OTUgMTE5LjM5Ni0zMC4yNSAxNS40MS01NS4xNDUgMjcuNjAzLTU1LjMyMiAyNy4wOTctLjUxMy0xLjQ2OSA2LjQ4LTMxLjA0IDExLjQ1NS00OC40MzVDMzcuNzY5IDY2Mi42NjYgODUuOTU4IDU3Mi4yMTUgMTQ1LjU4OSA1MDFjNTAuMDY2LTU5Ljc5MyAxMTAuODQ3LTExMS42MjYgMTc3LjkxMS0xNTEuNzIxQzM0MC40NDEgMzM5LjE1IDM1OS4xMzkgMzI5IDM2MC44NTUgMzI5Yy44NTMgMCAxLjE0NSAyNy4xOSAxLjE0NSAxMDYuNTMxIDAgOTEuNTQuMjAyIDEwNi42MSAxLjQzMiAxMDcuMDgxLjc4OC4zMDMgNS4wNjEtMS4yOCA5LjQ5Ni0zLjUxNSAzOC40NjYtMTkuMzk2IDY0LjMzLTUyLjgzIDczLjU2Ny05NS4wOTcgMi40NjUtMTEuMjc5IDMuMDQ4LTM1LjM3MyAxLjEzOS00Ny4wMTItNC4xOS0yNS41NDEtMTQuOTQtNDguOTg3LTMxLjE3NC02Ny45ODgtNi41Mi03LjYzMS0zMC4yOTgtMzIuNjk4LTc0LjQ2Ny03OC41LTg2Ljg4My05MC4wOTctOTIuMDUtOTUuOTY2LTEwMS4wMjQtMTE0Ljc0LTUuMjY0LTExLjAxMS04LjAxMi0yMi4wMjctOC42NzEtMzQuNzYtLjY2Ni0xMi44NjYuNzEyLTIyLjM3NSA1LjExLTM1LjI2MiA0LjY1NC0xMy42MzQgMTEuMzQtMjQuMzIyIDIyLjA5Mi0zNS4zMTcgMTMuMjMzLTEzLjUzIDI2LjIxNy0yMS4zMDYgNDUuMjE2LTI3LjA3OUMzMTIuNDMzLjk5NyAzMTUuMjYuNjY1IDMyOCAuNjA5YzEyLjcyMi0uMDU2IDE1LjY2NS4yNiAyNCAyLjU3NCAxOC40NTIgNS4xMjQgMzUuMDMgMTQuNDk2IDQ5LjQzNyAyNy45NTFDNDE1LjU0NiA0NC4zMTEgNDI0Ljk4NCA1OC4yODIgNDc0Ljk4IDE0MGMzNS4yNjggNTcuNjQ2IDg0LjQ5MyAxMzkuMjggODUuODA0IDE0Mi4yOTcgMi45MDcgNi42ODcuMjc1IDcuNTUzLTUuOTQgMS45NTMtNS42MDMtNS4wNDgtMTI2Ljg3NC0xMzEuNjkyLTE2NC41NC0xNzEuODMtMzMuMi0zNS4zNzktMzkuMjc3LTQxLjE5Mi00Ny4xMzEtNDUuMDg4LTExLjc5Ni01Ljg1LTI2LjAxNC0zLjc3Ni0zNi4wNjcgNS4yNjMtMTMuODc3IDEyLjQ3Ni0xNC45NiAzMS44MjQtMi41OTEgNDYuMzE0IDIuNDgxIDIuOTA3IDM4Ljg4OCA0MS4xMyA4MC45MDIgODQuOTM4IDQyLjAxNSA0My44MSA3OC45ODIgODIuODAzIDgyLjE0OCA4Ni42NTMgMjIuNTEzIDI3LjM2OSAzNy45MzkgNjIuOTM2IDQyLjk4NSA5OS4xMDYgMi4wMiAxNC40NzYgMS41NDQgNDguMjA0LS44NiA2MC44OTQtOS40NjMgNDkuOTc4LTMzLjUxNyA5MC42Ni03MS44MyAxMjEuNDg2LTEyLjc3NiAxMC4yOC0yMy43MzcgMTYuOTUtNTEuMzYgMzEuMjU0LTEyLjY1IDYuNTUtMjMuMzM2IDEyLjIzNS0yMy43NDYgMTIuNjMxLS40MS4zOTctLjc1MiAxMTcuODEzLS43NTggMjYwLjkyNS0uMDA2IDE0My4xMTItLjEyIDI2MC4xNi0uMjUzIDI2MC4xMDgtLjEzNC0uMDUzLTE1LjIwNS0xNS40MzctMzMuNDkzLTM0LjE4NnpNMTc4LjkwNiA2MzguODVjNzEuMjMtMzYuNTI4IDEwNC41NS01My44MzUgMTA5Ljk1OS01Ny4xMTQgNi4yNi0zLjc5NSA2LjEzNS0yLjM0OCA2LjEzNS03MS4yMzQgMC01NC45MzEtLjE4NS02Mi42MzUtMS41MTMtNjMuMTQ0LTIuNzMxLTEuMDQ4LTM1LjI5MyAyNi43MzMtNTkuMTggNTAuNDktNDYuOTEgNDYuNjU4LTg1LjE0OCA5OC43ODctMTE2LjQzNSAxNTguNzM2LTYuODk4IDEzLjIxOC04LjA3NyAxNi40MTctNi4wNSAxNi40MTcuMjcgMCAzMC40NTctMTUuMzY4IDY3LjA4NC0zNC4xNXoiLz48cGF0aCBmaWxsPSIjZDU2NjdhIiBkPSJNMzI3LjE2IDExMDEuMTAzTDI5NSAxMDY4LjE0N1Y4NjAuMDczQzI5NSA2ODMuOTk2IDI5NC43ODggNjUyIDI5My42MjIgNjUyYy0xLjMxNSAwLTU4LjYzNSAyOC44NTUtMTk0LjEyMiA5Ny43Mi0zNC4xIDE3LjMzMi03MC4yNzYgMzUuNzk1LTgwLjM5MiA0MS4wMjktMTYuNjU0IDguNjE2LTE4LjM0NCA5LjI5LTE3Ljg4NSA3LjEzM0MxNy45NjggNzE5LjE2NSA0Ny42NDIgNjQ2LjI2OCA5MS42NyA1NzUuNjljNTAuMzE5LTgwLjY2MyAxMjAuMzM3LTE1Mi41ODMgMjAxLjUwMS0yMDYuOTc2IDI0LjkzOC0xNi43MTMgNjUuOTIxLTQwLjM5NCA2Ny44NDYtMzkuMjA0LjYzNC4zOTEuOTgzIDM4LjI0Ni45ODMgMTA2LjU4IDAgOTguMTg3LjEyMyAxMDYuMDE5IDEuNjc1IDEwNi42MTQgMi4wNC43ODMgMTQuNjUzLTUuNTM3IDI1Ljc5MS0xMi45MjMgMTAuMjc5LTYuODE2IDI0Ljk1OC0yMC44NyAzMy4xMzgtMzEuNzI1IDExLjc2NC0xNS42MTMgMjEuMzczLTM4LjA5NiAyNC43OC01Ny45ODMgMi4xMDUtMTIuMjggMi4xMDUtMzMuODY3IDAtNDYuMTQ4LTMuNDQ3LTIwLjEyMS0xMi4zNS00MC43NDMtMjQuNjc2LTU3LjE2My04LjE1NC0xMC44NjMtMTcuNjk3LTIxLjA4OS04NC43MDItOTAuNzYzLTU4LjQ1MS02MC43NzktNjcuMDMtNjkuODI0LTc2LjY0NC04MC44MTctMTQuNTA0LTE2LjU4LTIyLjc3LTMxLjUzNC0yNy4wNTUtNDguOTQ2LTIuNTI3LTEwLjI2Ny0yLjI3Ny0zMC4zMDUuNTItNDEuNjE0IDYuODM3LTI3LjY0MiAyNS42MDMtNTAuODMgNTEuNjczLTYzLjg0NyA2LjMzLTMuMTYgOS43OTctNC40MiAyNC41LTguOTA0IDIuOTE0LS44ODggOS4yNTgtMS4zNTIgMTgtMS4zMTYgMTYuNDU0LjA2OSAyNi41MjYgMi42MDIgNDMuNSAxMC45NDEgMTguNTk1IDkuMTM1IDMyLjc3MyAyMS41MTMgNDYuOTkgNDEuMDIyQzQzMC4wNjMgNjcuMDI1IDQ1My41NjIgMTA0LjkzIDUyNS44MDcgMjI0IDU1NC42OTggMjcxLjYyIDU2MiAyODQuMzEzIDU2MiAyODYuOTE2YzAgMi44NDMtNS4wMjctLjcyMi0xNC41MjQtMTAuMjk5LTE2Ljg3NC0xNy4wMTctMTIxLjQ0NS0xMjYuNDE5LTE1My4wNzgtMTYwLjE1LTMzLjYxLTM1Ljg0LTQzLjQ3Ny00NS40My01MC41NjEtNDkuMTQxLTQuNzQ1LTIuNDg2LTYuMzktMi43OTgtMTQuODM3LTIuODExLTExLjUzLS4wMTgtMTYuMzk1IDIuMDM4LTI0LjA5OSAxMC4xODMtNi44MTIgNy4yMDMtOS4yOCAxMi45ODItOS4zMTEgMjEuODAyLS4wMzggMTAuNzQxIDMuNjYyIDE3LjY5NCAxNi42MDUgMzEuMjAzIDUuNjg5IDUuOTM4IDQwLjc2IDQyLjUyMiA3Ny45MzUgODEuMjk3czcwLjI0MiA3My41NjkgNzMuNDgxIDc3LjMyYzIzLjUwNyAyNy4yMTkgMzkuMzIxIDYwLjQ0OCA0NS41MzUgOTUuNjggMi42MDggMTQuNzg2IDMuNDk4IDQwLjEzIDEuOTM1IDU1LjEwMi00Ljk4NCA0Ny43NDctMjcuNTE0IDkzLjE5Mi02MS45MzIgMTI0LjkyMy0xNy4yMjkgMTUuODgzLTI4LjkyIDIzLjQ5LTY0LjUwOCA0MS45NzVMMzYyLjUgNjE1LjVsLS41IDI1OC45MTdjLS4zNTggMTg1LjQzOC0uODEgMjU5LjAyLTEuNTkgMjU5LjI4LS41OTguMi0xNS41Ni0xNC40NjgtMzMuMjUtMzIuNTk0ek0xMjcuMjU2IDY2NS42MTFjNy44MzUtNC4wNjQgNDEuMjQ1LTIxLjIzNiA3NC4yNDUtMzguMTYgNzcuMjEyLTM5LjU5OCA4Ny40NzUtNDUuMDQ0IDkwLjUtNDguMDNsMi41LTIuNDY2di02NC43MTRjMC01OS40NzgtLjEzNC02NC43NC0xLjY1OS02NS4wMzMtLjk2Mi0uMTg1LTcuODg5IDQuODgtMTYuNSAxMi4wNjYtNTYuMzk2IDQ3LjA2My0xMDEuNDcgOTkuNjUtMTM5LjA3IDE2Mi4yNS05Ljk1NyAxNi41OC0yNy4yNzEgNDguNTMtMjcuMjcxIDUwLjMyNyAwIDIuMjE4IDMuMTM0IDEuMDg1IDE3LjI1NS02LjI0eiIvPjxwYXRoIGZpbGw9IiNkMjViNzAiIGQ9Ik0zMjcuNzUgMTEwMS4yMzVMMjk1IDEwNjguNDNWODYwLjIxNUMyOTUgNjY3LjgwMyAyOTQuODc1IDY1MiAyOTMuMzU4IDY1MmMtLjkwMyAwLTI0Ljg2NSAxMS43NjItNTMuMjUgMjYuMTM3QzE0NC4wMDEgNzI2LjgxIDcuNTE4IDc5Ni4yMjUgNC4xMjYgNzk4LjE1N0wuNzUyIDgwMC4wOGwuNTQzLTIuMjljLjI5OC0xLjI1OSAxLjkwMS04LjE0MiAzLjU2Mi0xNS4yOTZDMjUuNTk0IDY5My4xNyA2Ny44MjcgNjAzLjc0NiAxMjUuNDQgNTI3LjE3YzU4LjQxNC03Ny42NDEgMTM5Ljc1OC0xNDcuMzM5IDIyNC44MS0xOTIuNjIzbDEwLjc1LTUuNzI0VjQzNC4zM2MwIDU4LjAyOC4yNzMgMTA2LjIxOC42MDcgMTA3LjA4OC45NjkgMi41MjQgNC4zMzEgMS44NjcgMTIuODI2LTIuNTA3IDM4LjYwNi0xOS44NzkgNjQuOTc1LTU1LjE4NSA3My4xMjUtOTcuOTExIDIuNjMtMTMuNzg3IDIuNDQzLTM2LjE5Ny0uNDEzLTQ5LjY4OC00LjI2OS0yMC4xNTctMTIuNzc3LTM5LjQ4NS0yNC4wMzktNTQuNjA0LTcuMjUtOS43MzQtMTguNTIzLTIxLjgzLTc3LjU0NS04My4yMDgtODEuMzU5LTg0LjYwNS04Ny43NS05MS41MTctOTYuMzc1LTEwNC4yMzMtMjUuNjQtMzcuNzk4LTIxLjMyMS04NS44NyAxMC42NTYtMTE4LjYwN0MyNzIuNDI4IDE3Ljc3NCAyODkuNDg0IDcuNjg2IDMwNSAzLjk0OWMzLjAyNS0uNzI5IDYuMDMyLTEuNzIgNi42ODItMi4yMDNDMzEzLjUxNi4zODQgMzMzLjg1Ni0uMzA1IDM0MCAuNzg3YzIzLjI0NSA0LjEzMyA0NC40MjQgMTQuOTM1IDYxLjU4NCAzMS40MSAxNi45NzIgMTYuMjkyIDIzLjMxOCAyNi4wOTIgMTE5LjU3NiAxODQuNjIzIDIwLjgxMiAzNC4yNzYgMzcuODQgNjIuNTU4IDM3Ljg0IDYyLjg0OXMuNzM0IDIuMDc1IDEuNjMgMy45NjZjNC4xODMgOC44MTMtMy4xMzcgMy4zOTEtMjEuODQtMTYuMTgtOC45Ni05LjM3NC00MC4zODgtNDIuMjI0LTY5Ljg0LTczLTI5LjQ1NC0zMC43NzUtNjMuNzIyLTY2Ljc1NS03Ni4xNTItNzkuOTU1LTI2LjYwOS0yOC4yNTgtNDEuOTIxLTQzLjM5LTQ2Ljg4LTQ2LjMzMS01LjQzOS0zLjIyNS0xNS4zOTYtNS40Ny0yMC44MDUtNC42OS0xMS4yNDggMS42MjMtMjEuOTc3IDkuNzE4LTI2LjkzNiAyMC4zMjUtMy43MyA3Ljk3OC0zLjc2NCAxOC4zNDYtLjA4MyAyNi4yMSAzLjE4MiA2LjgwMiAyLjMzMyA1Ljg4MiA4NC44ODUgOTEuOTg2IDc3LjQgODAuNzMgODEuMTIgODQuNjggODcuMjM3IDkyLjYzNiAyOC40NiAzNy4wMTUgNDMuMzYgODMuNTMzIDQxLjQzNiAxMjkuMzY0LTIuODAyIDY2LjY5OS0zNS40MTkgMTIzLjczNC05MS42NTIgMTYwLjI2OC00LjY3NSAzLjAzNy0xOS4wNyAxMC45OTctMzEuOTg4IDE3LjY4OC0xMi45MTkgNi42OS0yNC4yOCAxMi44ODItMjUuMjQ4IDEzLjc1OC0xLjY3IDEuNTExLTEuNzczIDE0LjgwNS0yLjAxMiAyNTkuOTZsLS4yNTIgMjU4LjM2N3pNMTc5IDYzOS4zMWMxMDAuNDY2LTUxLjUwMyAxMDkuMTYtNTYuMTIgMTEyLjc1Ny01OS44ODZsMy4yNTgtMy40MS0uMjU4LTY0LjY3M2MtLjE4OC00Ny4zMjUtLjU2My02NC43NzUtMS4zOTctNjUuMDUzLS42MjctLjIxLTYuNjg4IDQuMTY1LTEzLjQ2OCA5LjcyLTY3LjEwNiA1NC45ODYtMTIxLjUzOSAxMjIuMDM3LTE2Mi4wMTggMTk5LjU3Ni04LjA2MiAxNS40NDMtOS4zMzcgMTkuMTg2LTYuMTI0IDE3Ljk2OC45NjMtLjM2NSAzMS4yMjUtMTUuNzc0IDY3LjI1LTM0LjI0MnoiLz48cGF0aCBmaWxsPSIjZDA1NTZiIiBkPSJNMzI4LjI1IDExMDEuNzM1TDI5NiAxMDY5LjQzdi0yMDcuMjhjMC0xNDQuNDAzLS4zMjItMjA3Ljg4My0xLjA2Mi0yMDkuMjY2LS45OTgtMS44NjQtNS4wNTkuMDM0LTY2Ljc1IDMxLjIwMi0zNi4xMjkgMTguMjUyLTEwMS4zMzggNTEuMzUtMTQ0LjkxIDczLjU1QzM5LjcwNCA3NzkuODM3IDMuNjMgNzk4IDMuMTEgNzk4cy0xLjE3LjU2My0xLjQ0OCAxLjI1Yy0uMjk5Ljc0Mi0uNTM2LjUzMy0uNTgzLS41MTQtLjA0My0uOTcuMzQ2LTIuNTQ1Ljg2Ni0zLjUuNTItLjk1NSAyLjE0NS03LjM2MSAzLjYxMi0xNC4yMzYgOC45MjEtNDEuODIgMjcuMzYzLTkzLjE3IDUwLjI4LTE0MCA2My4wNjItMTI4Ljg3MiAxNjEuMjQzLTIzMi4wMDMgMjg4LjMwMi0zMDIuODM5IDguMDUxLTQuNDg4IDE1LjEzOS04LjE2MSAxNS43NS04LjE2MS44MDggMCAxLjExMSAyOC45MTcgMS4xMTEgMTA1Ljk2NSAwIDEyMi40NDUtMS4yNjQgMTEwLjM0NSAxMC45MTcgMTA0LjUwOCAzOS4yOC0xOC44MjUgNjYuOTYyLTU1LjA0MyA3NS43NC05OS4wOTkgMi42My0xMy4xOTUgMi4zOS0zNy41NzctLjUwMS01MS4xMDgtNC45MzYtMjMuMDk0LTE2LjAyLTQ1LjQxNi0zMS4xNjgtNjIuNzY2LTYuODgyLTcuODgyLTI5Ljg5NS0zMi4wODctNzYuNTM0LTgwLjUtODIuNTQtODUuNjc4LTg5LjEzNi05My4xNS05Ny40MzctMTEwLjM4OC01Ljg4Mi0xMi4yMTUtOC4xMDctMjEuMjE4LTguNzQtMzUuMzczLS44MzQtMTguNjY3IDEuODktMzEuNzEyIDkuOTY4LTQ3Ljc0IDYuMzc2LTEyLjY0OCAxOS4xLTI3LjEzNyAzMS4wNjMtMzUuMzY3IDcuMDktNC44NzggMjEuNzcxLTExLjY3NCAyOS4zMjgtMTMuNTc1IDMuNzc1LS45NSA3LjU5NS0yLjEwOCA4LjQ5LTIuNTczQzMxNC44OC41NTEgMzMyLjE2Ni0uMTk0IDMzOC41Ljg0N2MyMy42NDcgMy44ODcgNDUuMTMyIDE0LjQ5NiA2Mi41NjIgMzAuODkzIDE1LjMzIDE0LjQyMiAyNS45OTggMzAuNjI3IDk2LjkzNyAxNDcuMjZDNTU3LjUxIDI3Ni44NDEgNTYyIDI4NC40MyA1NjIgMjg3LjE1NmMwIDEuMTQ5LTMuMTMyLS4xOTItNi4wMTgtMi41NzYtMy44Mi0zLjE1NS0xMTcuNTctMTIxLjgxOC0xNjAuNjQzLTE2Ny41OC00Ni41MDEtNDkuNDA0LTUxLjU1OC01My40OC02Ni4zNi01My40OTMtNi40OS0uMDA2LTguNDM3LjQ0NC0xNC4xOTcgMy4yOC03LjM4NyAzLjYzNi0xMy4zMDIgOS41NzUtMTYuOTg1IDE3LjA1LTEuODU1IDMuNzY2LTIuMjk0IDYuMjk4LTIuMjgzIDEzLjE2My4wMTIgNy4zNDMuMzkzIDkuMjIzIDIuNzk3IDEzLjgxIDMuNTUzIDYuNzc5IDEuODgyIDQuOTc0IDgxLjY2NSA4OC4xOSA4Mi40NyA4Ni4wMTggODQuMzg4IDg4LjA2MiA5MS40MTUgOTcuMzk5IDU1LjMyMyA3My41MDcgNTMuNDk5IDE3NS4zNDEtNC40MSAyNDYuMTAxLTcuMDc1IDguNjQ2LTIxLjMyIDIyLjY4NS0yOS45ODEgMjkuNTQ5LTEzLjE4IDEwLjQ0NS0yOS4yNyAxOS45ODYtNTkuNSAzNS4yODMtNy4xNSAzLjYxOC0xMy42NzUgNy4wMzItMTQuNSA3LjU4Ny0xLjMyNS44OS0xLjU1OCAzMS4yOC0yIDI2MC4wNjVsLS41IDI1OS4wNTd6TTE3OC4wNTggNjM5LjkzOGM5NS42ODMtNDkuMDUzIDExMC45NjMtNTcuMTEyIDExMy45Ni02MC4xMSAzLjc4Mi0zLjc4MiAzLjk2Ny03LjE4NyAzLjk3NS03My4zODcuMDA2LTQ2LjA2Mi0uMjUtNTcuNDExLTEuMzMtNTguODg3LS43MzYtMS4wMDYtMS44MzYtMS42NTUtMi40NDUtMS40NDItMy40ODggMS4yMjItMzYuNjUgMzAuMzI5LTU0LjU1NyA0Ny44ODgtMjkuNjg3IDI5LjExLTUwLjQzNiA1My4yNDctNzMuMDY3IDg1LTE4LjIwNSAyNS41NDItMzYuMTczIDU1LjE2NC00OC45NzEgODAuNzMzLTUuMzg4IDEwLjc2NC02LjU3IDE0LjI2Ny00LjgxNSAxNC4yNjcuNDQ0IDAgMzAuNzA2LTE1LjMyOCA2Ny4yNS0zNC4wNjJ6Ii8+PHBhdGggZmlsbD0iI2NlNGI2MiIgZD0iTTMyNy41ODYgMTEwMC44MDRMMjk2IDEwNjguNjA4Vjg2MS4zODZjMC0xMTMuOTcyLS4yNzMtMjA3LjkzNC0uNjA3LTIwOC44MDQtLjMzNC0uODctMS4wMjUtMS41ODItMS41MzUtMS41ODItLjg5NCAwLTY3LjU1NyAzMy42NzMtMjE5LjM1OCAxMTAuODA0LTM5LjYgMjAuMTItNzIuMzMgMzcuMDU4LTcyLjczNSAzNy42NC0uNDQuNjMzLS43NC4zOC0uNzUtLjYzNS0uMDA4LS45My4zODMtMS45MzcuODctMi4yMzguNDg2LS4zIDEuMjAyLTIuNjkgMS41OS01LjMwOUM2LjE0NyA3NzMuMjQgMjAuODIxIDcyNC4yOSAzMi40ODMgNjk0LjUgNjcuNTkgNjA0LjgyNCAxMTkuMzY2IDUyNS4wNTYgMTg2IDQ1Ny45ODdjNDIuNTMtNDIuODA2IDg4LjQ2MS03OC43MiAxMzktMTA4LjY4M0MzMzguODc4IDM0MS4wNzYgMzU5LjE1MiAzMzAgMzYwLjMzNCAzMzBjLjM2NiAwIC42NjYgNDcuNjQ1LjY2NiAxMDUuODc4IDAgOTQuMjEyLjE3IDEwNi4wMTggMS41NDMgMTA3LjE1OCAyLjI1OCAxLjg3NCAxOS44MzMtNy4xMjQgMzIuMzg2LTE2LjU4IDYxLjk0LTQ2LjY2IDczLjI0Ny0xMzQuMTM2IDI1LjEwOC0xOTQuMjU4LTYuNzY2LTguNDUtMjMuNjU5LTI2LjM3Ni03Ni4wNDctODAuNjk4LTg2LjAyNC04OS4yLTkyLjQ2OC05Ni40NTctMTAxLjIxOC0xMTQtNi44NzgtMTMuNzkyLTkuNzgtMjYuMTEtOS43NTktNDEuNDM0LjA0OS0zNS40OSAyMC43NzItNjguMzQ4IDUzLjQ4Ny04NC44MTJDMjkyLjg2MiA4LjA1MyAzMDcuODQgMyAzMTAuOTY4IDNjMS4wMjYgMCAyLjA0NC0uNTM3IDIuMjYzLTEuMTk0LjUzMy0xLjU5OCAyNy40ODItMS43NjMgMzAuODY3LS4xODggMS4zMi42MTQgNS45ODcgMi4xMDggMTAuMzcgMy4zMiAyNC41MDkgNi43NzUgNDYuODEgMjMuMzU2IDY0Ljc1NCA0OC4xNDMgOC43MjIgMTIuMDQ4IDMxLjY0MiA0OC43NTYgNzYuNDM4IDEyMi40MTkgNTguNDMgOTYuMDgzIDYzLjY4OCAxMDQuODcxIDY0LjEzIDEwNy4xODQuMjQ0IDEuMjc0Ljg0IDIuMzE2IDEuMzI3IDIuMzE2LjQ4NSAwIC44NDcuNzg4LjgwNCAxLjc1LS4wNDggMS4wNTYtLjI4IDEuMjUyLS41ODUuNDk0LS4yNzktLjY5MS0uOTUyLS45ODItMS40OTUtLjY0NXMtMi4xNDItLjQ1LTMuNTUtMS43NDRjLTQuODM0LTQuNDQ1LTEzMy44ODctMTM5LjM1Ni0xNjMuOTI0LTE3MS4zNjUtMzQuNDYyLTM2LjcyNi00MC45OS00Mi45ODEtNDkuMDQ3LTQ3LTUuMDE2LTIuNTAxLTYuOTk0LTIuOTA4LTE0LjMyLTIuOTQ2LTcuMzEtLjAzOC05LjI4Ny4zNDMtMTQuMTI1IDIuNzE4LTYuMzUxIDMuMTItMTMuNTg4IDEwLjMxMy0xNi45NDggMTYuODQ2LTEuNTUxIDMuMDE3LTIuMzk0IDYuNzQtMi42OSAxMS44OTItLjUyNyA5LjEzNSAxLjc2NSAxNi4xMyA3LjU5MiAyMy4xNzUgMi4xMjYgMi41NyAzOC4zMTUgNDAuNTk2IDgwLjQyIDg0LjUgNDIuMTAzIDQzLjkwNCA3OS4zODIgODMuMiA4Mi44NCA4Ny4zMjUgMzEuOTg1IDM4LjE1MiA0OC45MzYgOTEuMzQ5IDQ0LjkzIDE0MS0zLjk5NiA0OS41Mi0yNC41NCA5NC4wMDktNTguNjc2IDEyNy4wNjMtMTguMjU1IDE3LjY3Ny0yOS44NzIgMjUuNTUxLTYzLjM0MyA0Mi45MzYtMTIuOTI1IDYuNzEzLTI0LjUxMyAxMi44NDUtMjUuNzUgMTMuNjI2bC0yLjI1IDEuNDIxdjI1OC40NzdjMCAxNTUuMzczLS4zNjQgMjU4LjQ3Ny0uOTE0IDI1OC40NzctLjUwMiAwLTE1LjEyNy0xNC40ODgtMzIuNS0zMi4xOTZ6bS0xNTAuNzgyLTQ1OS45OWM4OC4wMjMtNDUuMTUyIDExMS4xNzItNTcuMjc3IDExNC41NTYtNjAuMDAyIDIuMTUtMS43MyAzLjA5LTMuNTkyIDMuNzAyLTcuMzE2Ljk0LTUuNzM1IDEuMjUtMTIzLjUyLjMzMS0xMjUuOTE0LTEuMDM1LTIuNjk3LTMuNDEzLTEuNzktMTAuNzgyIDQuMTE2QzIxOC4zMTQgNTA0LjgyIDE2Mi44NTUgNTcxLjQ5NiAxMjEuNzQ1IDY0Ny41Yy0xMi43MzUgMjMuNTQ2LTEzLjkyIDI2LjUtMTAuNjMyIDI2LjUuNTQ4IDAgMzAuMTA5LTE0LjkzNCA2NS42OTEtMzMuMTg2eiIvPjxwYXRoIGZpbGw9IiNjYjQyNWIiIGQ9Ik0zMjcuNzUgMTEwMC41NTdMMjk2IDEwNjguMjA0Vjg2MC4wN2MwLTE4Mi4yMzUtLjE4My0yMDguMjA0LTEuNDctMjA4LjY5OC0xLjQ2Ni0uNTYyLTU4LjU0NCAyOC4wMS0yMDkuNTMgMTA0Ljg4Ni00My4xNzUgMjEuOTgyLTc5LjM1MiA0MC40MTgtODAuMzk0IDQwLjk2Ny0xLjc3NC45MzUtMS44NTIuNjg0LTEuMjMyLTMuOTkuMzY0LTIuNzQzIDIuMjQ2LTExLjQ1NiA0LjE4My0xOS4zNjJDMzMuMTg1IDY2OS4yNSA4OC42NSA1NjUuMTcgMTYyLjU2NyA0ODNjMTMuMDUyLTE0LjUwOCA0My40NzItNDQuNjc2IDU3LjkzMy01Ny40NSAyMi44NjMtMjAuMTk5IDUyLjgxOC00Mi45ODYgNzktNjAuMDk3QzMxOC4yIDM1My4yMyAzNTguMDcxIDMzMCAzNjAuMzQ3IDMzMGMuMzU0IDAgLjc1OCA0OC4wMzEuODk4IDEwNi43MzYuMjkyIDEyMi4wNS0uOTQ1IDEwOS42NTIgMTAuNDA1IDEwNC4zNCAyNi40NjItMTIuMzgzIDUzLjYzNC0zOS42NTYgNjUuNTIyLTY1Ljc2NiA5LjM4Ni0yMC42MTUgMTIuMzAzLTM0LjQ0MiAxMi4zMDMtNTguMzEgMC0yNS44NTMtMy40MDktNDAuMjU1LTE0Ljc5LTYyLjQ4Ni05LjcxMi0xOC45Ny0xMi45MDUtMjIuNjA1LTkyLjY2My0xMDUuNTE0LTU0LjI4Ny01Ni40MzItNjkuNjY0LTcyLjU4Ny03OC41MjUtODIuNS0xNC40OTUtMTYuMjE2LTIzLjI2LTMxLjI2OS0yNy42Ni00Ny41LTMuMTg5LTExLjc2Ni0zLjE5MS0zMy41OTMtLjAwNS00NS41IDIuOTYtMTEuMDU4IDExLjA1My0yNi45OTUgMTguMjU1LTM1Ljk0OCAxMy4yOTUtMTYuNTI4IDM0LjIxOC0yOS42NDUgNTMuNzA0LTMzLjY3IDMuMzUyLS42OTIgNS45MDQtMS41NjYgNS42Ny0xLjk0My0uMjMyLS4zNzYgMy4yMS0xLjAwMSA3LjY1LTEuMzg4IDkuMDI0LS43ODggMjMuMTU4LjIwNCAyMi4zMTcgMS41NjUtLjMuNDg2LjU4Mi44ODQgMS45NjEuODg0IDMuOTg1IDAgMTguNDE4IDQuODQ1IDI2Ljc0NSA4Ljk3OSAxNy4xNDggOC41MTEgMzIuNjczIDIyLjA5IDQ2LjMzMiA0MC41MjEgOC43OTcgMTEuODcxIDMxLjM3MSA0OC4wMiA4My4wNTcgMTMzQzU1MS42NzggMjY3Ljk2MyA1NjAgMjgyLjA3MyA1NjAgMjg0LjY0NWMwIDQuNDc2IDYuMjA4IDEwLjY5NS05OC40MTEtOTguNTg4LTIwLjMwMS0yMS4yMDctNDkuMzc1LTUxLjgzMi02NC42MS02OC4wNTctNDkuMTIzLTUyLjMxOC01MS44NzQtNTQuNTA4LTY4LjQ3OS01NC40OS03LjgxMi4wMDctOS42NzIuMzYyLTE0LjA4NiAyLjY4My02LjM3IDMuMzUtMTMuNjggMTAuNjg2LTE2LjY0NSAxNi43MDMtMS44OCAzLjgxNi0yLjI2NiA2LjIzLTIuMjU0IDE0LjEwNC4wMTMgOC40MjYuMzI4IDEwLjA5OCAyLjc4NSAxNC43ODYgMy4xODEgNi4wNy0uMjkyIDIuMzQ0IDg5LjIwMiA5NS43MTQgMzcuNDI5IDM5LjA1IDcwLjA4NSA3My4yNSA3Mi41NyA3NiAyNi42NzkgMjkuNTIzIDQzLjM2OCA2NS4zMTQgNDkuNDI3IDEwNiAxLjk3IDEzLjIzIDEuOTM5IDQwLjI5My0uMDYzIDU0LjY0OC03LjcwOSA1NS4yNjgtMzguMzAzIDEwNC43NS04My45MzYgMTM1Ljc1Ny0xMS4wOCA3LjUzLTI1LjEyIDE1LjQyOS00NS41IDI1LjYwMS03LjQyNSAzLjcwNi0xNC43MzcgNy42MTQtMTYuMjUgOC42ODRsLTIuNzUgMS45NDZ2MjU4LjQzMmMwIDE0Mi4xMzgtLjMzNyAyNTguNDEyLS43NSAyNTguMzg3LS40MTItLjAyNS0xNS4wMzctMTQuNjA0LTMyLjUtMzIuMzk4ek0xNjEuNSA2NDguOTE1YzYxLjY3LTMxLjU1MyAxMTYuNTA4LTU5LjkxNSAxMjQuMTE2LTY0LjE5MiAzLjIxNy0xLjgwOSA2Ljg3LTQuODAzIDguMTE2LTYuNjU0bDIuMjY4LTMuMzY1di02Mi43N2MwLTM0LjUyNC0uMjczLTYzLjQ4Mi0uNjA3LTY0LjM1Mi0xLjI0LTMuMjMtNC43MDEtMS4yODQtMTkuMTk1IDEwLjc4Ni01OS4zNDcgNDkuNDI0LTEwNy45OTggMTA3LjIwMi0xNDUuNjIyIDE3Mi45NEMxMjAuNzI0IDY0OC41MjUgMTA5IDY3MS4xNyAxMDkgNjcyLjk4NmMwIC41NTguNzg4IDEuMDEyIDEuNzUgMS4wMDcuOTYzLS4wMDQgMjMuOC0xMS4yODkgNTAuNzUtMjUuMDc3ek0xLjA3OSA3OTguNDE3Yy4wNDgtMS4xNjUuMjg1LTEuNDAyLjYwNC0uNjA0LjI4OS43MjEuMjUzIDEuNTg0LS4wNzkgMS45MTYtLjMzMi4zMzItLjU2OC0uMjU4LS41MjUtMS4zMTJ6bTU2MC01MTJjLjA0OC0xLjE2NS4yODUtMS40MDIuNjA0LS42MDQuMjg5LjcyMS4yNTMgMS41ODQtLjA3OSAxLjkxNi0uMzMyLjMzMi0uNTY4LS4yNTgtLjUyNS0xLjMxMnoiLz48cGF0aCBmaWxsPSIjYzkzOTUzIiBkPSJNMzI3LjczIDExMDAuMjE0TDI5NiAxMDY4LjQyOFY2NTFoLTIuMDM1Yy0xLjkyMyAwLTU2LjQ4MiAyNy40MjgtMjE5LjI2MSAxMTAuMjMtMzguOTM4IDE5LjgwNi03MS4wNCAzNS43NjgtNzEuMzM3IDM1LjQ3LTEuNTItMS41MiA5LjE1Mi00My4xMjMgMTcuNjIzLTY4LjcgMjMuNzg1LTcxLjgwOCA1OS42ODctMTQwLjE4NCAxMDUuNTM3LTIwMSA0OS4zNzgtNjUuNDk2IDExNC4xMTktMTI0LjYwMiAxODQuOTczLTE2OC44NzdDMzI5LjQyOCAzNDYuOTIgMzU3LjcxOCAzMzEgMzU5LjY5NyAzMzFjMS4wNDkgMCAxLjM0MiAyMC4xMjYgMS41NDggMTA2LjI1bC4yNTUgMTA2LjI1IDIuMTU4LjMwN2MxLjE4Ny4xNyA1LjkxMi0xLjU3NSAxMC41LTMuODc3IDM4LjkzOC0xOS41MzQgNjcuMTQzLTU3LjQ2IDc0LjI2LTk5Ljg1NiAyLjAyOC0xMi4wODUgMi4wNTItMzQuMDg4LjA1LTQ1LjY5My00LjEwOC0yMy44LTE0Ljk3OC00Ny4yMDctMzAuMzQzLTY1LjM0LTYuNTktNy43NzgtMzIuNTY2LTM1LjE5OC03OC4xNjUtODIuNTEzLTg0LjkxNi04OC4xMTEtODguMzEyLTkxLjk3NS05Ny41NzQtMTExLjAyOC02LjgwMy0xMy45OTQtOC42NjYtMjIuMzc5LTguNjY2LTM5IDAtMTUuNjUyIDEuNjItMjMuNjY2IDcuNTY0LTM3LjQxMyAxMS4zMDUtMjYuMTUgMzYuNDE2LTQ3LjMyOSA2NC41NDgtNTQuNDQgNS4wNC0xLjI3NCA4LjkyNS0yLjU1NiA4LjYzMi0yLjg1czIuNjUzLS44NDYgNi41NDYtMS4yM2M4LjMyNS0uODIgMjMuODMyLjI4NCAyMS44MjggMS41NTQtLjk0NS42LS42MjMuODUzIDEuMDk4Ljg2NCA0LjI0Ni4wMjYgMTcuMjczIDQuMDc0IDI1LjY0NyA3Ljk3IDE4LjAzNyA4LjM4OCAzMy44MjMgMjEuNzYyIDQ3LjgwMyA0MC40OTQgMTAuNzUgMTQuNDA0IDQzLjMxMiA2Ny4wNDQgMTMwLjg2NiAyMTEuNTUxIDEzLjE4MiAyMS43NTYgMTUuMTAyIDI3LjU3NiA2LjUxNiAxOS43NS0xLjk2Mi0xLjc4Ny0yNC44NTQtMjUuNTI1LTUwLjg3Mi01Mi43NXMtNTYuMzQzLTU4Ljk1LTY3LjM4OC03MC41LTMwLjAzNi0zMS41NzUtNDIuMjAzLTQ0LjVjLTQ1LjAzNy00Ny44NDctNDkuMTA0LTUxLjE1LTYzLjgwNS01MS44MTItMTAuODItLjQ4OC0xNy41ODUgMi4wMy0yNS4wNTggOS4zMjUtOS41NzYgOS4zNS0xMy4xNzcgMjAuOTctOS45NTUgMzIuMTMgMy4yIDExLjA5LTMuNzY2IDMuMjM4IDg1LjQ5NCA5Ni4zNTcgMzcuMTY4IDM4Ljc3NSA3MS4xODQgNzQuMzUxIDc1LjU5MiA3OS4wNTggMjcuOTc2IDI5Ljg3MyA0NC42MTggNjMuMzA1IDUxLjk5MSAxMDQuNDQyIDIuMTY1IDEyLjA3NyAyLjk3MiAzOS4zOSAxLjU0OSA1Mi40MDQtNi42OCA2MS4wODMtMzguNTQ2IDExMi44NDMtOTAuMTEzIDE0Ni4zNjgtNC42NzUgMy4wMzktMTkuNzUgMTEuMzg2LTMzLjUgMTguNTQ5bC0yNSAxMy4wMjMtLjI1MiAyNTguNTc4Yy0uMTM4IDE0Mi4yMTgtLjU5OCAyNTguNTc4LTEuMDIgMjU4LjU3OHMtMTUuMDQ4LTE0LjMwNC0zMi40OTktMzEuNzg2ek0xNzMuODMyIDY0Mi44NjljODAuOTE3LTQxLjQ4OCAxMTEuOTEyLTU3LjU5NSAxMTUuODIyLTYwLjE4NiA2LjY2MS00LjQxNiA2LjM0NS0uODU1IDYuMzQ1LTcxLjM4NyAwLTYzLjUwNS0uMTMzLTY2LjI5Ni0zLjE2MS02Ni4yOTYtLjQxOSAwLTYuMDY2IDQuMzQ4LTEyLjU1IDkuNjYxLTUwLjUwMSA0MS4zODgtOTUuMDkgOTAuNzMxLTEyOS41MyAxNDMuMzM5LTE5LjA0NyAyOS4wOTctNDIuNzIyIDcyLjA0OS00MS40ODYgNzUuMjY5LjM2NS45NTIuOTQgMS43MzEgMS4yNzkgMS43MzFzMjguODE1LTE0LjQ1OSA2My4yODEtMzIuMTMxek0xLjA4IDc5OC40MTdjLjA0OC0xLjE2NS4yODUtMS40MDIuNjA0LS42MDQuMjg5LjcyMS4yNTMgMS41ODQtLjA3OSAxLjkxNi0uMzMyLjMzMi0uNTY4LS4yNTgtLjUyNS0xLjMxMnoiLz48cGF0aCBmaWxsPSIjYzczMjRkIiBkPSJNMzI4LjI1IDExMDAuMjI0TDI5NyAxMDY4LjIxOFY4NjEuNjc0YzAtMTM1LjM4Mi0uMzQ1LTIwNy40NS0xLTIwOS4xNzYtLjc3NC0yLjAzNC0xLjQ2LTIuNDg3LTMuMDIyLTEuOTkxLTIuMjM4LjcxLTEwMC40NyA1MC4zODItMjE0Ljg3IDEwOC42NUMzNy4xOSA3NzkuOTk3IDMuNTggNzk2LjkxNCAzLjQxNSA3OTYuNzVjLS4xNjQtLjE2NC43NTItNS4yNTYgMi4wMzUtMTEuMzE2IDE2LjMyNy03Ny4wODYgNTUuODUtMTY1LjM0NyAxMDYuNTg2LTIzOC4wMjJDMTY2LjUgNDY5LjM5OSAyNDAuNTY3IDQwMC42ODUgMzI0IDM1MC43NjQgMzM2LjE5MyAzNDMuNDcgMzU4LjYxMyAzMzEgMzU5LjUzNyAzMzFjLjI1NSAwIC40NjMgNDcuMjEzLjQ2MyAxMDQuOTE4IDAgNTcuNzA1LjI3MyAxMDUuNjMuNjA3IDEwNi41IDIuNTIgNi41NjUgMzAuNDAyLTkuNDA2IDQ5LjUzMi0yOC4zNyA0OS44MTMtNDkuMzg1IDU0LjMwNS0xMjcuNzQyIDEwLjQ1Ny0xODIuNDI1LTYuODY2LTguNTYzLTIyLjI4Ni0yNC45Mi04Mi42MDMtODcuNjIzLTYxLjIyMy02My42NDUtNjkuNzc4LTcyLjcwMy03OC40NDktODMuMDYxLTE4LjIwNS0yMS43NDgtMjUuNTIzLTQwLjEyMi0yNS41MzctNjQuMTI0LS4wMS0xNy4yNTIgMy4wNzUtMjkuNzI1IDExLjA2Mi00NC43MTUgOC45MzgtMTYuNzc0IDIzLjMwNC0zMC41MTMgNDEuNDMxLTM5LjYyMiAxMC4xNTItNS4xMDIgMjMuMTU3LTkuMzM3IDI5LjQxLTkuNTc4bDIuNTktLjEtMi41LS43MjdDMzExLjkyMS44ODQgMzI3LjYyNS0uMjYgMzM2LjEyMS42MDZjNS41LjU2IDYuNzQzLjkzNSA0Ljg3OSAxLjQ3My0yLjM5Ni42OTItMi4zNzIuNzI2LjU2Mi44MjEgNS42OTIuMTg2IDE4Ljg4OCA0LjIxMiAyOC4xNzIgOC41OTcgMTguNDU4IDguNzE3IDMzLjQ0MyAyMS4zOTUgNDcuNDkzIDQwLjE4IDguNTU1IDExLjQzNyAzNS4yMzQgNTQuMTUyIDg1LjQ1OSAxMzYuODIzIDU3LjEzIDk0LjAzNyA1OS4xMzUgOTcuNSA1Ni40NjYgOTcuNS0uNTQxIDAtMzAuODE3LTMxLjE2Mi02Ny4yOC02OS4yNS04Ny4xNDUtOTEuMDI3LTgwLjUyNi04NC4wNzgtMTA0LjU0Mi0xMDkuNzUtMjguMDYtMjkuOTk2LTM2LjA0OC0zNy41MDctNDMuNjY2LTQxLjA2Mi0xNC44MTUtNi45MTItMjkuMDc2LTMuOTItNDAuNTAzIDguNDk2LTUuNjAyIDYuMDg3LTguMzUgMTIuNDI2LTguOTEgMjAuNTUtLjUwNSA3LjMxOCAxLjcxNCAxNC43MjQgNi41MzQgMjEuODEyIDEuNDkzIDIuMTk2IDM3LjQwOCA0MC4xNTMgNzkuODEgODQuMzQ5IDQyLjQwMyA0NC4xOTUgNzkuNjYgODMuMjggODIuNzkzIDg2Ljg1NSAxMi42MSAxNC4zODYgMjUuOTY3IDM2LjU0OSAzMy41MDcgNTUuNiAyOS42NTUgNzQuOTIyIDEwLjQ1OSAxNjEuOTUyLTQ3Ljc4MiAyMTYuNjI4LTE2LjgxNyAxNS43ODctMzEuMDg0IDI1LjA4OC02Ni4zNTUgNDMuMjUzLTExLjQwNyA1Ljg3NS0yMS4wODIgMTEuMjA4LTIxLjUgMTEuODVTMzYwLjI3NSA3MzIuNTQgMzYwIDg3NC4zNjZsLS41IDI1Ny44NjV6bS0xNjEuNTYyLTQ1My4zM2M3OC41MDItNDAuMjU0IDExOC4yNi02MC44NzUgMTIyLjUzNy02My41NTQgNy43MTYtNC44MzMgNy4yMzctLjQ2MiA3LjU5Mi02OS4zOTUuMTc1LTMzLjkwNS0uMDc4LTYzLjE3NS0uNTYzLTY1LjA0NC0uNTA1LTEuOTUxLTEuNjE0LTMuNTQtMi42MDMtMy43My0zLjUwNy0uNjc1LTM2LjY0IDI3Ljc3Ny02Mi42NiA1My44MTEtNDcuMzM1IDQ3LjM1Ny04Ny4zMzYgMTAyLjg0LTExOC40NjQgMTY0LjMxMi00LjU5IDkuMDYyLTUuMDQ4IDExLjcwNi0yLjAzIDExLjcwNi43NTggMCAyNi4wNDQtMTIuNjQ4IDU2LjE5LTI4LjEwNnpNMS4wNzggNzk4LjQxN2MuMDQ5LTEuMTY1LjI4Ni0xLjQwMi42MDUtLjYwNC4yODkuNzIxLjI1MyAxLjU4NC0uMDc5IDEuOTE2LS4zMzIuMzMyLS41NjgtLjI1OC0uNTI1LTEuMzEyeiIvPjxwYXRoIGZpbGw9IiNjNjJiNDciIGQ9Ik0zMjguMjUyIDEwOTkuNWwtMzEuMjQ3LTMxLjgyMi0uMjUzLTIwOC41ODlMMjk2LjUgNjUwLjVsLTIuMDQtLjI5MmMtMS45NzEtLjI4Mi01OC4yMjcgMjcuOTE0LTIxNi4zNjEgMTA4LjQ0NEMzNy43MjkgNzc5LjIxIDQuNDY2IDc5NS44IDQuMTgzIDc5NS41MTdjLS4yODMtLjI4My40OTctNS4xMjggMS43MzQtMTAuNzY2IDIxLjI2LTk2Ljk2MyA3NS40NTUtMjA0Ljg0MyAxNDIuODczLTI4NC4zOTggNTcuMDM0LTY3LjMwMSAxMjQuOTgzLTEyMi40NjggMjAzLjQ2LTE2NS4xODZsNy43NS00LjIxOXYyMTMuMDE0bDIuNTA0LjYyOGM2LjQ2NiAxLjYyMyAzMi45MTYtMTQuOTI0IDQ4LjAzMS0zMC4wNDkgMTUuODk5LTE1LjkwOCAyNi4yOS0zMi43OTUgMzMuNDg4LTU0LjQyIDEzLjE0My0zOS40OTIgNy4yNTQtODQuMTY0LTE1LjY2LTExOC43NzYtOC4wNjctMTIuMTg3LTE3LjI5Ni0yMi4yMjYtODUuODEtOTMuMzQ1LTc0LjgxLTc3LjY1Mi04Mi43OTYtODYuMjk4LTkxLjYzLTk5LjE5NS02Ljc3Ni05Ljg5LTExLjA5OS0xOC45NDktMTQuMjI0LTI5LjgwNS0zLjE3OC0xMS4wMzktMy4xMTgtMzQuMTI2LjExNy00NS41IDYuMjk5LTIyLjE0NiAyMS4wMDUtNDIuNTU5IDM5LjUxMi01NC44NDIgMTEuOTU0LTcuOTM1IDMxLjYyLTE1LjQwMiA0MS42MS0xNS44bDMuNTYyLS4xNDItNC0uNjZDMzEwLjU0NS45MDggMzI5LjQyNC0uMzA2IDMzNyAuODAyYzUuNy44MzQgNi4wMDcuOTgxIDIuNSAxLjE5Ny0zLjY0NS4yMjMtMy40NjcuMzIxIDIgMS4xMDEgMjguMTkzIDQuMDI0IDU1LjczOCAyMi4xNTEgNzYuNDQ0IDUwLjMwNyA5LjQ1OCAxMi44NjIgOTMuMjA5IDE0OC43MzcgMTM1LjM4IDIxOS42MzcgNi40MjMgMTAuOCA3LjIzOSAxMy44IDIuNTUzIDkuMzkzLTUuOTMtNS41NzctMTMzLjYwMi0xMzkuMDM0LTE2NC4wNTMtMTcxLjQ4NkMzNTYuODY4IDczLjY5NyAzNTIuOTIxIDY5Ljk1OCAzNDQgNjUuNjQ0Yy01LjgyNy0yLjgxOS03LjQzMi0zLjE0Mi0xNS41LTMuMTI0LTExLjE4NC4wMjUtMTYuNDQ0IDIuMjg3LTI0LjY1IDEwLjYtNy42OTggNy44MDItMTAuMjAyIDE0LjQwOS05LjYxOCAyNS4zOC40NzUgOC45MTQgMi45MjIgMTQuOTA0IDkuMTE1IDIyLjMxNyAxLjkyNyAyLjMwNyAzNC4yNTcgMzYuMjU0IDcxLjg0NCA3NS40MzkgMzcuNTg3IDM5LjE4NCA3My4wMyA3Ni4xOTQgNzguNzYgODIuMjQ0IDI3LjU5MiAyOS4xMjUgNDQuNjg0IDYxLjI0MiA1Mi42NyA5OC45NjcgMy40OSAxNi40ODggNC40NTQgNDkuMjYyIDEuOTU4IDY2LjUzMy01LjE1MiAzNS42NDEtMjAuMjI4IDcwLjE1NS00Mi41OSA5Ny41LTguNTY1IDEwLjQ3NS0yNi4zMzQgMjcuMTMzLTM3LjAyMyAzNC43MS0xMi43MTQgOS4wMTEtMTguMjg3IDEyLjI0Mi00NS4zNSAyNi4yOWwtMjMuMTE2IDEyLS41IDI1OC40MTItLjUgMjU4LjQxMXptLTE2MC4zMi00NTIuNzI3YzY3LjgxMi0zNC43NjcgMTEyLjk4NC01OC4xMjcgMTE5LjcxLTYxLjkwNyA5LjU0NC01LjM2MyA4LjgxOS4zMzcgOS4xNDUtNzEuODY2LjE1OC0zNC45MjUuMDM3LTY0LjUxMy0uMjY5LTY1Ljc1LS45ODktNC00Ljk3Mi0yLjgyLTEzLjM0NyAzLjk2LTcwLjg4IDU3LjM3Mi0xMjQuMzIgMTIyLjk5Ni0xNjguNTEzIDIwNi45MzUtNy43NTMgMTQuNzI0LTguNTU0IDE4LjkwOS0zLjMgMTcuMjQxIDEuMTAzLS4zNSAyNi41Ni0xMy4yMjYgNTYuNTczLTI4LjYxM3pNMS4wNzggNzk4LjQxN2MuMDQ4LTEuMTY1LjI4NS0xLjQwMi42MDQtLjYwNC4yODkuNzIxLjI1MyAxLjU4NC0uMDc5IDEuOTE2LS4zMzIuMzMyLS41NjgtLjI1OC0uNTI1LTEuMzEyeiIvPjwvc3ZnPg==;" vertex="1" parent="I9OwONVPuuNTIhYXYgKd-32">
          <mxGeometry x="51.489999999999995" y="30" width="47.03" height="95" as="geometry" />
        </mxCell>
        <mxCell id="I9OwONVPuuNTIhYXYgKd-37" value="" style="rounded=1;whiteSpace=wrap;html=1;labelBackgroundColor=none;dashed=1;container=1;pointerEvents=0;collapsible=0;recursiveResize=0;strokeWidth=2;shadow=1;" vertex="1" parent="1">
          <mxGeometry x="781.2" y="510" width="150" height="179" as="geometry" />
        </mxCell>
        <mxCell id="I9OwONVPuuNTIhYXYgKd-38" value="&lt;h1 style=&quot;forced-color-adjust: none; font-family: Helvetica; font-style: normal; font-variant-ligatures: normal; font-variant-caps: normal; letter-spacing: normal; orphans: 2; text-indent: 0px; text-transform: none; widows: 2; word-spacing: 0px; -webkit-text-stroke-width: 0px; white-space: normal; text-decoration-thickness: initial; text-decoration-style: initial; text-decoration-color: initial; font-size: 14px;&quot;&gt;&lt;font style=&quot;forced-color-adjust: none; font-size: 14px;&quot;&gt;Amazon Sagemaker&lt;/font&gt;&lt;/h1&gt;" style="text;whiteSpace=wrap;html=1;align=center;fillColor=none;labelBackgroundColor=none;labelBorderColor=none;fontColor=default;verticalAlign=middle;fontSize=14;fontStyle=1" vertex="1" parent="I9OwONVPuuNTIhYXYgKd-37">
          <mxGeometry x="10" y="140" width="130" height="17" as="geometry" />
        </mxCell>
        <mxCell id="I9OwONVPuuNTIhYXYgKd-40" value="" style="shape=image;verticalLabelPosition=bottom;labelBackgroundColor=none;verticalAlign=top;aspect=fixed;imageAspect=0;image=data:image/svg+xml,PHN2ZyB4bWxuczp4bGluaz0iaHR0cDovL3d3dy53My5vcmcvMTk5OS94bGluayIgeG1sbnM9Imh0dHA6Ly93d3cudzMub3JnLzIwMDAvc3ZnIiBvdmVyZmxvdz0iaGlkZGVuIiB4bWw6c3BhY2U9InByZXNlcnZlIiBoZWlnaHQ9Ijg5IiB3aWR0aD0iOTAiIHZpZXdCb3g9IjAgMCA5MCA4OSI+PGcgdHJhbnNmb3JtPSJ0cmFuc2xhdGUoLTc1NiAtMzQ0KSI+PGc+PHBhdGggdHJhbnNmb3JtPSJtYXRyaXgoMS4wMTEyNCAwIDAgMSA3NTYgMzQ0KSIgZmlsbC1vcGFjaXR5PSIxIiBmaWxsLXJ1bGU9ImV2ZW5vZGQiIGZpbGw9IiMwMUE4OEQiIGQ9Ik00Ljk0NDQ0IDQuOTQ0NDQgODQuMDU1NSA0Ljk0NDQ0IDg0LjA1NTUgODQuMDU1NSA0Ljk0NDQ0IDg0LjA1NTVaIi8+PHBhdGggdHJhbnNmb3JtPSJtYXRyaXgoMS4wMTEyNCAwIDAgMSA3NTYgMzQ0KSIgZmlsbC1ydWxlPSJldmVub2RkIiBmaWxsPSJub25lIiBzdHJva2Utb3BhY2l0eT0iMSIgc3Ryb2tlLW1pdGVybGltaXQ9IjQiIHN0cm9rZS1saW5lam9pbj0ibWl0ZXIiIHN0cm9rZS1saW5lY2FwPSJidXR0IiBzdHJva2Utd2lkdGg9IjEuOTc3NzgiIHN0cm9rZT0iIzg3OTE5NiIgZD0iTTAuOTg4ODg5IDAuOTg4ODg5IDg4LjAxMTEgMC45ODg4ODkgODguMDExMSA4OC4wMTExIDAuOTg4ODg5IDg4LjAxMTFaIi8+PHBhdGggdHJhbnNmb3JtPSJtYXRyaXgoMS4wMTEyNCAwIDAgMSA3NzMgMzYwLjgxMSkiIGZpbGwtb3BhY2l0eT0iMSIgZmlsbC1ydWxlPSJldmVub2RkIiBmaWxsPSIjRkZGRkZGIiBkPSJNMjYuNyAzNC4yMjMgMjYuNyAyNi44Njc2IDIxLjQwOTQgMjMuNzk5MSAyMi40MDIzIDIyLjA4ODMgMjYuNyAyNC41ODAzIDI2LjcgNC41ODc5OCAyMS4yODA5IDIuMDg3MDggMTUuODIyMiA0Ljg0MDE1IDE1LjgyMjIgMTEuODY3MiAxMy44NDQ0IDExLjg2NzIgMTMuODQ0NCA1LjgzNjk1IDguOSA4LjMzMDkyIDguODk5MDEgMTUuODg2IDE0LjgzNjMgMTkuMjA5NyAyMC43NjU3IDE1LjkxOTYgMjAuNzY1NyA3LjkxMTY0IDIyLjc0MzUgNy45MTE2NCAyMi43NDM1IDE2LjUwMjFDMjIuNzQzNSAxNi44NjEgMjIuNTQ4NiAxNy4xOTIzIDIyLjIzNDIgMTcuMzY2NEwxNS44MjMyIDIwLjkyNDQgMTUuODIyMiAyNS43MTE2IDIyLjIyNzMgMjkuNDE0QzIyLjU0NTcgMjkuNTg3MSAyMi43NDM1IDI5LjkyMDMgMjIuNzQzNSAzMC4yODIyTDIyLjc0MzUgMzYuNTAyNCAyNi43IDM0LjIyM1pNMjYuNyAzNi41MDUzIDE0LjU0ODUgNDMuNTA1NyAxMy41NjE2IDQxLjc5MDkgMjAuNzY1NyAzNy42NDE2IDIwLjc2NTcgMzAuODY5NiAxNC44Njc5IDI3LjY2MjcgOC4yNzAwOCAzMS40NjIgNy4yODMxNyAyOS43NDgyIDEzLjg0NDQgMjUuOTY5NyAxMy44NDU0IDIwLjkyMTQgNy45Mzk3OSAxNy42MTY2IDEuOTc5NzYgMjAuOTI0NCAxLjk3ODc3IDI1LjM2ODUgNy4xNjE1MyAyMi4zODMgOC4xNDg0NCAyNC4wOTc3IDEuOTc4NzcgMjcuNjUwOCAxLjk3OTc2IDMzLjEyNzMgNy44ODkzNiAzNi43OTExIDEzLjgyOTYgMzMuMzY4NiAxNC44MTY1IDM1LjA4MjMgOC45IDM4LjU2NzIgOC44OTkwMSA0NS43NDA2IDE0LjIzNDEgNDguOTczMiAyMS43MTYgNDQuNDg1NyAyMi43MzM2IDQ2LjE4MTYgMTYuMTQ1NiA1MC4xMzIyIDIxLjMyMzQgNTMuMjcwOSAyNi43IDUwLjc4OTggMjYuNyAzNi41MDUzWk0yOC42Nzc4IDMuOTU2MDggMjguNjc3OCA1MS40MjI3QzI4LjY3NzggNTEuODA4NCAyOC40NTMzIDUyLjE1ODQgMjguMTAzMiA1Mi4zMjA2TDIxLjY3NTUgNTUuMjg3M0MyMS41NDM5IDU1LjM0NzYgMjEuNDAyNSA1NS4zNzgzIDIxLjI2MTEgNTUuMzc4MyAyMS4wODMxIDU1LjM3ODMgMjAuOTA2MSA1NS4zMjk4IDIwLjc0NzkgNTUuMjM0OUw3LjM5Njg5IDQ3LjE0MjhDNy4xMDIyIDQ2Ljk2MzggNi45MjEyMyA0Ni42NDM0IDYuOTIxMjMgNDYuMjk3M0w2LjkyMjIyIDM4LjU2NzIgMC40Njk3MjIgMzQuNTE4N0MwLjE3ODk4OSAzNC4zMzc3IDAuMDAxOTc3NzggMzQuMDIwMiAwLjAwMTk3Nzc4IDMzLjY3ODFMMC4wMDE5Nzc3OCAzMy4wNzM5QzAuMDAwOTg4ODg5IDMzLjA1NDEgMCAzMy4wMzMzIDAgMzMuMDEzNkwwIDIxLjAwNjVDMCAyMC45ODY3IDAuMDAwOTg4ODg5IDIwLjk2NTkgMC4wMDE5Nzc3OCAyMC45NDYxTDAuMDAxOTc3NzggMjAuMzQxOUMwLjAwMTk3Nzc4IDE5Ljk4MyAwLjE5Njc4OSAxOS42NTE3IDAuNTExMjU2IDE5LjQ3NjdMNi45MjEyMyAxNS45MTk2IDYuOTIyMjIgNy43MjI3NkM2LjkyMjIyIDcuMzQ4OTYgNy4xMzI4NSA3LjAwNzc5IDcuNDY2MTEgNi44Mzk2OEwyMC44MTYxIDAuMTA2MzM2QzIxLjA4NTEtMC4wMzAxMzA1IDIxLjQwMjUtMC4wMzUwNzQ5IDIxLjY3NTUgMC4wOTA1MTRMMjguMTAzMiAzLjA1NzE4QzI4LjQ1MzMgMy4yMTkzNiAyOC42Nzc4IDMuNTY5NDIgMjguNjc3OCAzLjk1NjA4Wk01NS4yODg4IDMyLjUzNDlDNTUuMTc3IDMyLjI4NjcgNTQuOTY3NCAzMi4wOTU5IDU0LjcxMDMgMzIuMDA2OUw1MS4zMDk1IDMwLjgyOTFDNTEuNTkzMyAyOC43MDYgNTEuNTg4NCAyNi41NjUgNTEuMjkzNyAyNC40NDI5TDU0LjY5MTUgMjMuMjQ5M0M1NC45NDY2IDIzLjE1OTMgNTUuMTU1MyAyMi45Njc0IDU1LjI2NiAyMi43MTgyIDU1LjM3NjggMjIuNDcgNTUuMzgwNyAyMi4xODcyIDU1LjI3NDkgMjEuOTM2TDUxLjE5NDggMTIuMTQ0QzUxLjA5IDExLjg5MjkgNTAuODg2MiAxMS42OTYxIDUwLjYzMjEgMTEuNjAwMiA1MC4zNzg5IDExLjUwNDIgNTAuMDk1MSAxMS41MTcxIDQ5Ljg0OTkgMTEuNjM1OEw0Ni42MDA0IDEzLjIxMkM0NS4zIDExLjUxMDIgNDMuNzg0IDEwLjAwMjEgNDIuMDgwMiA4LjcxMjY0TDQzLjY0MjYgNS40NTYyMkM0My43NjAzIDUuMjEwOTggNDMuNzcyMiA0LjkyNzE3IDQzLjY3NDMgNC42NzQwMSA0My41NzY0IDQuNDE5ODcgNDMuMzc4NiA0LjIxNzE1IDQzLjEyNzQgNC4xMTMzMUwzMy4zMTc2IDAuMDc1NjgwN0MzMy4wNjY1LTAuMDI3MTYzOCAzMi43ODM2LTAuMDIyMjE5MyAzMi41MzQ0IDAuMDg4NTM2MiAzMi4yODYyIDAuMjAwMjgxIDMyLjA5NjQgMC40MDk5MjUgMzIuMDA2NCAwLjY2NzAzNkwzMC41NTM3IDQuODYwOTEgMzIuNDIzNyA1LjUwNzY1IDMzLjUzMzIgMi4zMDM2NSA0MS40MDY4IDUuNTQ0MjQgMzkuOTQxMiA4LjU5ODkxQzM5LjczMTYgOS4wMzUwMSAzOS44NjggOS41NTgxNCA0MC4yNjQ2IDkuODM2MDEgNDIuMjkwOCAxMS4yNTkgNDQuMDQ4MSAxMy4wMDgzIDQ1LjQ4NTkgMTUuMDMzNiA0NS43NjU4IDE1LjQyNzIgNDYuMjg4OSAxNS41NjU2IDQ2LjcyNCAxNS4zNTFMNDkuNzcxOCAxMy44NzE2IDUzLjA0OCAyMS43MzAzIDQ5Ljg2MTggMjIuODQ5OEM0OS40MDU5IDIzLjAxIDQ5LjEzMjkgMjMuNDc2NyA0OS4yMTYgMjMuOTUyNCA0OS42NDIyIDI2LjM5ODkgNDkuNjQ5MSAyOC44ODEgNDkuMjMyOCAzMS4zMjk1IDQ5LjE1MjcgMzEuODA2MSA0OS40Mjc2IDMyLjI3MDkgNDkuODg0NSAzMi40MjkxTDUzLjA3MzcgMzMuNTMzNyA0OS44MzQxIDQxLjQwNjMgNDYuNzg3MyAzOS45NDQ3QzQ2LjM1MjIgMzkuNzM1IDQ1LjgyODEgMzkuODcyNSA0NS41NTAyIDQwLjI2NzEgNDQuMTI3MiA0Mi4yOTMzIDQyLjM3NjkgNDQuMDUwNSA0MC4zNDY3IDQ1LjQ5MDQgMzkuOTUxMSA0NS43NzAyIDM5LjgxNzYgNDYuMjk0MyA0MC4wMjkyIDQ2LjcyODVMNDEuNTA2NiA0OS43NzIzIDMzLjY0NzkgNTMuMDQ3NSAzMi41Mjc1IDQ5Ljg1ODMgMzAuNjYxNSA1MC41MTM5IDMyLjEyOSA1NC42OTFDMzIuMjE5IDU0Ljk0ODEgMzIuNDEwOCA1NS4xNTU4IDMyLjY1OSA1NS4yNjY1IDMyLjc4NzYgNTUuMzIzOSAzMi45MjUxIDU1LjM1MjYgMzMuMDYyNSA1NS4zNTI2IDMzLjE5MTEgNTUuMzUyNiAzMy4zMjA2IDU1LjMyNjkgMzMuNDQyMiA1NS4yNzY0TDQzLjIzNDIgNTEuMTk0M0M0My40ODU0IDUxLjA5MDUgNDMuNjgyMiA1MC44ODY3IDQzLjc3OTEgNTAuNjMxNiA0My44NzQgNTAuMzc3NSA0My44NjEyIDUwLjA5NDYgNDMuNzQyNSA0OS44NDk0TDQyLjE2NzIgNDYuNjA0OUM0My44NzIxIDQ1LjMwMzUgNDUuMzg0MSA0My43ODc1IDQ2LjY3MzYgNDIuMDgzNkw0OS45MjExIDQzLjY0MjFDNTAuMTY2MyA0My43NTk4IDUwLjQ1MTEgNDMuNzcyNyA1MC43MDMzIDQzLjY3NDggNTAuOTU3NCA0My41NzY5IDUxLjE2MDIgNDMuMzc5MSA1MS4yNjQgNDMuMTI3OUw1NS4zMDE2IDMzLjMxODFDNTUuNDA0NSAzMy4wNjYgNTUuMzk5NSAzMi43ODMxIDU1LjI4ODggMzIuNTM0OVpNMzguNTY2NyAyNy42ODk0QzM4LjU2NjcgMjMuMjgyOSAzNS42MDk5IDE5LjM2OTkgMzEuMzc1NSAxOC4xNzIzTDMxLjkxMzQgMTYuMjY4N0MzNi45OTUzIDE3LjcwNjYgNDAuNTQ0NCAyMi40MDI4IDQwLjU0NDQgMjcuNjg5NCA0MC41NDQ0IDMyLjk4MjkgMzYuOTg4NCAzNy42ODExIDMxLjg5NzYgMzkuMTEzTDMxLjM2MjYgMzcuMjEwNEMzNS42MDQgMzYuMDE1OCAzOC41NjY3IDMyLjEwMDggMzguNTY2NyAyNy42ODk0WiIvPjwvZz48L2c+PC9zdmc+;" vertex="1" parent="I9OwONVPuuNTIhYXYgKd-37">
          <mxGeometry x="34.549999999999955" y="30" width="80.9" height="80" as="geometry" />
        </mxCell>
        <mxCell id="I9OwONVPuuNTIhYXYgKd-41" value="" style="rounded=1;whiteSpace=wrap;html=1;labelBackgroundColor=none;dashed=1;container=1;pointerEvents=0;collapsible=0;recursiveResize=0;strokeWidth=2;shadow=1;" vertex="1" parent="1">
          <mxGeometry x="1021.2" y="510" width="150" height="179" as="geometry" />
        </mxCell>
        <mxCell id="I9OwONVPuuNTIhYXYgKd-42" value="&lt;h1 style=&quot;forced-color-adjust: none; font-family: Helvetica; font-style: normal; font-variant-ligatures: normal; font-variant-caps: normal; letter-spacing: normal; orphans: 2; text-indent: 0px; text-transform: none; widows: 2; word-spacing: 0px; -webkit-text-stroke-width: 0px; white-space: normal; text-decoration-thickness: initial; text-decoration-style: initial; text-decoration-color: initial; font-size: 14px;&quot;&gt;&lt;font style=&quot;forced-color-adjust: none; font-size: 14px;&quot;&gt;Amazon Robomaker&lt;/font&gt;&lt;/h1&gt;" style="text;whiteSpace=wrap;html=1;align=center;fillColor=none;labelBackgroundColor=none;labelBorderColor=none;fontColor=default;verticalAlign=middle;fontSize=14;fontStyle=1" vertex="1" parent="I9OwONVPuuNTIhYXYgKd-41">
          <mxGeometry x="10" y="140" width="130" height="17" as="geometry" />
        </mxCell>
        <mxCell id="I9OwONVPuuNTIhYXYgKd-44" value="" style="shape=image;verticalLabelPosition=bottom;labelBackgroundColor=default;verticalAlign=top;aspect=fixed;imageAspect=0;image=data:image/svg+xml,PHN2ZyB4bWxuczp4bGluaz0iaHR0cDovL3d3dy53My5vcmcvMTk5OS94bGluayIgeG1sbnM9Imh0dHA6Ly93d3cudzMub3JnLzIwMDAvc3ZnIiBvdmVyZmxvdz0iaGlkZGVuIiB4bWw6c3BhY2U9InByZXNlcnZlIiBoZWlnaHQ9IjgwIiB3aWR0aD0iODEiIHZpZXdCb3g9IjAgMCA4MSA4MCI+PGcgdHJhbnNmb3JtPSJ0cmFuc2xhdGUoLTMxMyAtMTI0KSI+PGc+PGc+PGc+PGc+PHBhdGggZmlsbC1vcGFjaXR5PSIxIiBmaWxsLXJ1bGU9ImV2ZW5vZGQiIGZpbGw9IiNERDM0NEMiIGQ9Ik0zMTQgMTI0IDM5NCAxMjQgMzk0IDIwNCAzMTQgMjA0WiIvPjxwYXRoIGZpbGwtb3BhY2l0eT0iMSIgZmlsbC1ydWxlPSJldmVub2RkIiBmaWxsPSIjRkZGRkZGIiBkPSJNMzI5LjUgMTY1QzMyOS43NzUgMTY1IDMzMCAxNjUuMjI0IDMzMCAxNjUuNSAzMzAgMTY1Ljc3NiAzMjkuNzc1IDE2NiAzMjkuNSAxNjYgMzI5LjIyNSAxNjYgMzI5IDE2NS43NzYgMzI5IDE2NS41IDMyOSAxNjUuMjI0IDMyOS4yMjUgMTY1IDMyOS41IDE2NUwzMjkuNSAxNjVaTTMyOS41IDE2OEMzMzAuODc5IDE2OCAzMzIgMTY2Ljg3OCAzMzIgMTY1LjUgMzMyIDE2NC4xMjIgMzMwLjg3OSAxNjMgMzI5LjUgMTYzIDMyOC4xMjEgMTYzIDMyNyAxNjQuMTIyIDMyNyAxNjUuNSAzMjcgMTY2Ljg3OCAzMjguMTIxIDE2OCAzMjkuNSAxNjhaTTMzMCAxNTMuNUMzMzAgMTUzLjc3NiAzMjkuNzc1IDE1NCAzMjkuNSAxNTQgMzI5LjIyNSAxNTQgMzI5IDE1My43NzYgMzI5IDE1My41IDMyOSAxNTMuMjI0IDMyOS4yMjUgMTUzIDMyOS41IDE1MyAzMjkuNzc1IDE1MyAzMzAgMTUzLjIyNCAzMzAgMTUzLjVaTTMyOCAxNTMuNUMzMjggMTU0LjMyNyAzMjguNjczIDE1NSAzMjkuNSAxNTUgMzMwLjMyNyAxNTUgMzMxIDE1NC4zMjcgMzMxIDE1My41IDMzMSAxNTIuNjczIDMzMC4zMjcgMTUyIDMyOS41IDE1MiAzMjguNjczIDE1MiAzMjggMTUyLjY3MyAzMjggMTUzLjVaTTMzNy41IDE0NkMzMzcuNzc1IDE0NiAzMzggMTQ2LjIyNCAzMzggMTQ2LjUgMzM4IDE0Ni43NzYgMzM3Ljc3NSAxNDcgMzM3LjUgMTQ3IDMzNy4yMjUgMTQ3IDMzNyAxNDYuNzc2IDMzNyAxNDYuNSAzMzcgMTQ2LjIyNCAzMzcuMjI1IDE0NiAzMzcuNSAxNDZaTTMzNy41IDE0OEMzMzguMzI3IDE0OCAzMzkgMTQ3LjMyNyAzMzkgMTQ2LjUgMzM5IDE0NS42NzMgMzM4LjMyNyAxNDUgMzM3LjUgMTQ1IDMzNi42NzMgMTQ1IDMzNiAxNDUuNjczIDMzNiAxNDYuNSAzMzYgMTQ3LjMyNyAzMzYuNjczIDE0OCAzMzcuNSAxNDhaTTMzNCAxNTkuNUMzMzQgMTU5Ljc3NiAzMzMuNzc1IDE2MCAzMzMuNSAxNjAgMzMzLjIyNSAxNjAgMzMzIDE1OS43NzYgMzMzIDE1OS41IDMzMyAxNTkuMjI0IDMzMy4yMjUgMTU5IDMzMy41IDE1OSAzMzMuNzc1IDE1OSAzMzQgMTU5LjIyNCAzMzQgMTU5LjVaTTMzMiAxNTkuNUMzMzIgMTYwLjMyNyAzMzIuNjczIDE2MSAzMzMuNSAxNjEgMzM0LjMyNyAxNjEgMzM1IDE2MC4zMjcgMzM1IDE1OS41IDMzNSAxNTguNjczIDMzNC4zMjcgMTU4IDMzMy41IDE1OCAzMzIuNjczIDE1OCAzMzIgMTU4LjY3MyAzMzIgMTU5LjVaTTMzNy41IDE1MkMzMzguMzI3IDE1MiAzMzkgMTUyLjY3MyAzMzkgMTUzLjUgMzM5IDE1NC4zMjcgMzM4LjMyNyAxNTUgMzM3LjUgMTU1IDMzNi42NzMgMTU1IDMzNiAxNTQuMzI3IDMzNiAxNTMuNSAzMzYgMTUyLjY3MyAzMzYuNjczIDE1MiAzMzcuNSAxNTJaTTMzNy41IDE1N0MzMzkuNDMgMTU3IDM0MSAxNTUuNDMgMzQxIDE1My41IDM0MSAxNTEuNTcgMzM5LjQzIDE1MCAzMzcuNSAxNTAgMzM1LjU3IDE1MCAzMzQgMTUxLjU3IDMzNCAxNTMuNSAzMzQgMTU1LjQzIDMzNS41NyAxNTcgMzM3LjUgMTU3Wk0zMzAuNSAxNDNDMzMxLjMyNyAxNDMgMzMyIDE0My42NzMgMzMyIDE0NC41IDMzMiAxNDUuMzI3IDMzMS4zMjcgMTQ2IDMzMC41IDE0NiAzMjkuNjczIDE0NiAzMjkgMTQ1LjMyNyAzMjkgMTQ0LjUgMzI5IDE0My42NzMgMzI5LjY3MyAxNDMgMzMwLjUgMTQzWk0zMzAuNSAxNDhDMzMyLjQzIDE0OCAzMzQgMTQ2LjQzIDMzNCAxNDQuNSAzMzQgMTQyLjU3IDMzMi40MyAxNDEgMzMwLjUgMTQxIDMyOC41NyAxNDEgMzI3IDE0Mi41NyAzMjcgMTQ0LjUgMzI3IDE0Ni40MyAzMjguNTcgMTQ4IDMzMC41IDE0OFpNMzQyLjcwNyAxNDIuNzA3IDM0MS4yOTMgMTQxLjI5M0MzNDQuNDU5IDEzOC4xMjcgMzQ5LjU4MSAxMzYgMzU0LjAzOSAxMzYgMzU4LjQ1MiAxMzYgMzYzLjU0MyAxMzguMTI3IDM2Ni43MDcgMTQxLjI5M0wzNjUuMjkzIDE0Mi43MDdDMzYyLjUyMiAxMzkuOTM2IDM1Ny44OTYgMTM4IDM1NC4wMzkgMTM4IDM1MC4xMzkgMTM4IDM0NS40NzkgMTM5LjkzNiAzNDIuNzA3IDE0Mi43MDdaTTM1NC4wMzkgMTQxQzM1Ny40NTQgMTQxIDM2MC42MTMgMTQyLjIgMzYyLjcwNyAxNDQuMjkyTDM2MS4yOTMgMTQ1LjcwOEMzNTkuNTk3IDE0NC4wMTIgMzU2Ljg4NSAxNDMgMzU0LjAzOSAxNDMgMzUxLjE0MiAxNDMgMzQ4LjQwMSAxNDQuMDEyIDM0Ni43MDcgMTQ1LjcwN0wzNDUuMjkzIDE0NC4yOTNDMzQ3LjM1NCAxNDIuMjMxIDM1MC42MjMgMTQxIDM1NC4wMzkgMTQxWk0zODAgMTg1LjM4NCAzNzguMDI4IDE4Ni4zNzcgMzc4LjAyOCAxNzcuMDA5IDM4MCAxNzguNDk4IDM4MCAxODUuMzg0Wk0zNzYuMDI4IDE5MCAzNzQgMTkwIDM3NCAxNzQgMzc2LjAyOCAxNzQgMzc2LjAyOCAxODkuNjIzIDM3Ni4wMjggMTkwWk0zMzIgMTg4Ljc3MSAzMzIgMTc0IDMzNCAxNzQgMzM0IDE5MCAzMzIgMTkwIDMzMiAxODguNzcxWk0zMjggMTg1LjI4NiAzMjggMTc3LjY4NiAzMzAgMTc2LjkxNCAzMzAgMTg1Ljk3MSAzMjggMTg1LjI4NlpNMzU0IDE1NkMzNTkuMDY0IDE1NiAzNjMuODk1IDE1Ny45MzcgMzY3LjI1MyAxNjEuMzEyIDM3MC4zMzggMTY0LjQxNSAzNzIuMDI0IDE2OC41NjMgMzcyIDE3M0wzNzIgMTkwIDMzNiAxOTAgMzM1Ljk5OSAxNzMuMDMxQzMzNi4zMDQgMTYzLjMyMiAzNDQuMDQyIDE1NiAzNTQgMTU2Wk0zNTIgMTUxQzM1MiAxNDkuODgyIDM1My4wODggMTQ5LjY0NyAzNTQgMTQ5LjY0NyAzNTQuOTEyIDE0OS42NDcgMzU2IDE0OS44ODIgMzU2IDE1MUwzNTYgMTU0LjA5NkMzNTUuMzM4IDE1NC4wMzUgMzU0LjY3MSAxNTQgMzU0IDE1NCAzNTMuMzIzIDE1NCAzNTIuNjU2IDE1NC4wMzIgMzUyIDE1NC4wOTJMMzUyIDE1MVpNMzgyIDE3Ny41MDIgMzc4LjAyOCAxNzQuNTAyIDM3OC4wMjggMTcyIDM3My45NTcgMTcyQzM3My43NCAxNjcuNDE0IDM3MS44OTggMTYzLjE0NyAzNjguNjcxIDE1OS45MDIgMzY1Ljg0NCAxNTcuMDYgMzYyLjA4NyAxNTUuMTQyIDM1OCAxNTQuMzc2TDM1OCAxNTFDMzU4IDE0OC45NjMgMzU2LjQzIDE0Ny42NDcgMzU0IDE0Ny42NDcgMzUxLjU3IDE0Ny42NDcgMzUwIDE0OC45NjMgMzUwIDE1MUwzNTAgMTU0LjM2OUMzNDEuMjUxIDE1Ni4wMDkgMzM0Ljc5NyAxNjIuOTg4IDMzNC4wNzkgMTcyTDMzMCAxNzIgMzMwIDE3NC43NyAzMjYgMTc2LjMxNCAzMjYgMTg2LjcxNCAzMzAgMTg4LjA4NSAzMzAgMTkyIDM3OC4wMjggMTkyIDM3OC4wMjggMTg4LjYxNiAzODIgMTg2LjYxNiAzODIgMTc3LjUwMlpNMzQ3IDE3MEMzNDguMTAzIDE3MCAzNDkgMTcwLjg5NyAzNDkgMTcyIDM0OSAxNzMuMTAzIDM0OC4xMDMgMTc0IDM0NyAxNzQgMzQ1Ljg5NyAxNzQgMzQ1IDE3My4xMDMgMzQ1IDE3MiAzNDUgMTcwLjg5NyAzNDUuODk3IDE3MCAzNDcgMTcwWk0zNDcgMTc2QzM0OS4yMDYgMTc2IDM1MSAxNzQuMjA2IDM1MSAxNzIgMzUxIDE2OS43OTQgMzQ5LjIwNiAxNjggMzQ3IDE2OCAzNDQuNzk0IDE2OCAzNDMgMTY5Ljc5NCAzNDMgMTcyIDM0MyAxNzQuMjA2IDM0NC43OTQgMTc2IDM0NyAxNzZaTTM2MSAxNzBDMzYyLjEwMyAxNzAgMzYzIDE3MC44OTcgMzYzIDE3MiAzNjMgMTczLjEwMyAzNjIuMTAzIDE3NCAzNjEgMTc0IDM1OS44OTcgMTc0IDM1OSAxNzMuMTAzIDM1OSAxNzIgMzU5IDE3MC44OTcgMzU5Ljg5NyAxNzAgMzYxIDE3MFpNMzYxIDE3NkMzNjMuMjA2IDE3NiAzNjUgMTc0LjIwNiAzNjUgMTcyIDM2NSAxNjkuNzk0IDM2My4yMDYgMTY4IDM2MSAxNjggMzU4Ljc5NCAxNjggMzU3IDE2OS43OTQgMzU3IDE3MiAzNTcgMTc0LjIwNiAzNTguNzk0IDE3NiAzNjEgMTc2WiIvPjwvZz48L2c+PC9nPjwvZz48L2c+PC9zdmc+;" vertex="1" parent="I9OwONVPuuNTIhYXYgKd-41">
          <mxGeometry x="34.5" y="30" width="81" height="80" as="geometry" />
        </mxCell>
        <mxCell id="I9OwONVPuuNTIhYXYgKd-45" value="" style="shape=image;verticalLabelPosition=bottom;labelBackgroundColor=default;verticalAlign=top;aspect=fixed;imageAspect=0;image=data:image/jpeg,/9j/2wCEAAgGBgcGBQgHBwcJCQgKDBQNDAsLDBkSEw8UHRofHh0aHBwgJC4nICIsIxwcKDcpLDAxNDQ0Hyc5PTgyPC4zNDIBCQkJDAsMGA0NGDIhHCEyMjIyMjIyMjIyMjIyMjIyMjIyMjIyMjIyMjIyMjIyMjIyMjIyMjIyMjIyMjIyMjIyMv/AABEIAMgAyAMBIgACEQEDEQH/xAGiAAABBQEBAQEBAQAAAAAAAAAAAQIDBAUGBwgJCgsQAAIBAwMCBAMFBQQEAAABfQECAwAEEQUSITFBBhNRYQcicRQygZGhCCNCscEVUtHwJDNicoIJChYXGBkaJSYnKCkqNDU2Nzg5OkNERUZHSElKU1RVVldYWVpjZGVmZ2hpanN0dXZ3eHl6g4SFhoeIiYqSk5SVlpeYmZqio6Slpqeoqaqys7S1tre4ubrCw8TFxsfIycrS09TV1tfY2drh4uPk5ebn6Onq8fLz9PX29/j5+gEAAwEBAQEBAQEBAQAAAAAAAAECAwQFBgcICQoLEQACAQIEBAMEBwUEBAABAncAAQIDEQQFITEGEkFRB2FxEyIygQgUQpGhscEJIzNS8BVictEKFiQ04SXxFxgZGiYnKCkqNTY3ODk6Q0RFRkdISUpTVFVWV1hZWmNkZWZnaGlqc3R1dnd4eXqCg4SFhoeIiYqSk5SVlpeYmZqio6Slpqeoqaqys7S1tre4ubrCw8TFxsfIycrS09TV1tfY2dri4+Tl5ufo6ery8/T19vf4+fr/2gAMAwEAAhEDEQA/APHMUUpFJ+FAxCM0h6U803FACUlLg0dKAEpKWg0AJikxT/wpO1ADTSU6jjNIY3FFL+FGeaAEoxS0GgBuKMUtLjNACD6UopRRTENIowaXFJQAtJRRQAUZFGaM0AWat6dpl1qs0kNpHvkSMyFR1IH/AOuqldN4VuTp1lq2ooCZII4wgGMZLH/DH496ipJxjdG+Fpxq1VGW3/AOYNT3FjcWsEE0qYjnTfGwOQf8D7e4rT8T2MVtqKXFtj7NeRrPHtzgZHI59/51Nbb9S8G3kDtubT5VmiGMlUbIYfTODSc9FItYf35U3ulp/Xoc52pO9KaStDlL2n6Teamlw9sistum6QswUAc+v0P5VTjjeV1jjVndjhVUZJPpXYaSBp3gDUruXd/pTbYwDgH+EHjnIO449qzvDBit11C/8kT3drCHt4ye5OCcdSRkH6ZrBVW+Z9jv+qxvTjfWSu/T/hhF8KS28Qk1XULPT1I4SSTc5PptFZN9aQWroLe/hu1YctErLt+oYCo7ye5ubp5ruR3nY/M0nWoK0ipbtmFWVPaEbeb3/wAhKTrTqQ1ZgFIetLSUAAoOTVu3027uRuSIqnGXf5V/M1fTSbOE4vL1VfGSinB6Zx9e1XGnKQm0YuDQK3m0nTm5S6JTBw6sGyR7cdcjH+RSy+G2CI0V5A6v90tlc+nrV+wn01J5l1MHFBFaUmkSxfeuLYDGQWk2g/mBUZ0q7KlkRJF9Y3Vh/Oo9nPsPmRQzgdaDU8lpPFKY5IHVwcFSvNRvE6EhlII7EYqbMYwdaO9GKKQBSYopfwoAsYroLFVi8EapNn5priOED6fN/WsCuqW8bRvBenlIIJHvLmSUieIOpVfl6H8OetZVb6Jdzrwdryk9LJ/jp+pWRP7V8IMgVmuNNYsCOf3Z5I/Unv8AdqPwfIo1h7Z0DLcwvHyue36cZrR0DXri/vG0t7W0WK6R0IihCEnBI4HXGD2zz3rn4FfTdeiRsBobgKSw44OO46Vmk7Si/U6XKKlSrRd+j+X/AACCLT5pdWGnnCy+aY2I5xg8njrTtX0yXSNUmsJTveMj5gMbgQCMfnXbzWUehT6zrhACmMJbArg7mAzjp3x29fSqX2MeJYtH1CMM86SLBd7lznbyWx3H+NJV3v0Lll6ScF8d7/K9v+CQeK86Z4e0nRGUK6r50ij1xj2/iLfl1rlbK+uNOvI7q1k8uaP7rYBx271teNL37Z4lnAYMsCiEEZ5xyf1JrnsVpSj7mvU5cZU/2huD20XyOmHjnU5D/pEVvMuSWGzG72PUEe2KkhXSvEsT21tZm11MITEqAYcKM4yMZP1A4rle1bWg281ut1rRV1hs4m2PjhpWG1Vz/wACz+A9aUqcYq8dGaUcVVqS5KnvR637dzDPBwRSd6cxLMWYkk8kn1q/b2ccUP2m6ZQOdsZIyeDyfxxx/k9EYuR5z0K9tYTXTLj5Iycb26e/5VZM9lYjbDGs8vGXbkDoTVe6vpbg44SMcBF4GKqVfMo/Dv3FvuT3F5PdNmWQkdAo4A/CoO9FFQ227sYU4OwGNxx9aaKdSA0bDUJbVCzs7wgj93uIyetV5dQuZSx3gAknhFB/MDNQy/LsjH8I5+p5/wDrfhTra3a6m8tWRBgsWc4AA7mtFKT91CshDdXB58+TP+8act7OOHbzF9HGf16ipjp3/TxC3qFcNj8qhntXt2AfGTzwc0mpLVjJXhSe3M8AIK/6yPrt9x7VTwRVrTnK3qJ2kzGw9QeKrEbSRSlqriG45pM07GeKTb71IyzXSeIG8nwz4dtH5l8mSfJHIR2+Ufoa5w0+W4mnEQmleQRII03NnaoyQB7cmplG7T7GsKnJGUe/+Y6xunsL+3u4+XhkVwPXBzir3iKe2u9Xe7tGG2dVkZQT8jEcjmsmihxTlzCjVag6fTc2dd8RXOtRW8DgJBAOFHUtjkk1o+DNbj00XaTldqKZostg78Y/Htx+PauUIpMVLpRceXobQxlWNb2zd2PmmkuZ5J5m3SyMXY+pJyavaNd2Vpdu2oWi3UDxlChHIyRyPQis2ircU1YwhUcZc3U6tZ/BzRtvs7pWU8ASN83P6ZFZWs662pCO3ghS2sohtjiRQOPfHWsn8av2drFHEbu7JVF5RR1Y/wCFTCgm/wDM2qYuTjypJX7K1x1rClpELqcAuOY0J+v69MfnVCed55C8jlifU0+7uWupmcnC5O1fQVXraTWy2OXzDrQaXNIeetQMaaKU9aTvQAd6lhXfKoPc1F3qxana7MRkKpJ9qaAikYtIx65Pf0rX022T+z5nkaONp/kVn4OM9s+/X6Vkc1rm1+2fZ4GlEflwg4PPXn1+n4k1rS3uJlG8tDaOnzKyuoYMKXBOnk4JCy4z6ZHSrepRw2trb2Sz+dJG7uSB91TjC9/Qn8arS4j00A/ellDD6KCP5n9KJR5ZNC3RBbtsu4m7h1P60XabLydfSRugI7+9RZIYEHkd6talzfyPkfPhuO2RUfZH1KlLSHrRmpGWaQjFHvSUCCjFFB9aBiUhpVDOwVRkngAVaaOGzyJR5k/ZP4V+tCjcRWSKSU4RGc+ijNWDpd6Dh7dk924A/Gmm/uiNolZV64XgVWd2ckszMfc5qvdDUtlba0AJK3E/oPuL/wDFVDc3U92waaQtjhR0A+gqAGg9KTl0QWEpKXmkNSMOlFJS/jQAUhFLSUAHerNudsM57ldo59f/AK1Vqmxi1B55fn8uP600IYoycCrl0rySqNuxVRQNwxkY6/jnNUgcEEdaujWtQC4+1uwxj58Nge2aqPLazB36EdvbNPMI4lZ2J/hGcD1pL6R5JypRo1j+VUbOQPfPeppdc1GSPZ9pKLjB2ALn8qobs8nrTk4pWiCv1DtVvU9ov3Cjjjn1OOT785qoBlulXNXZW1ScocjIH6DNL7LDqU6OaQUuagCxkUlFFMBKM0cUnFAy9br9mtfteMuTtTOMA1QZizFmJLE5JPetPWAsYtYkPyCIMBn8M/XiqcdjdTLujt5GHrt4q5J/CJdyuaKtvpt8ilmtpNqjLELnH5VUqWmtwuJR1p6CPq5b6L/jUomtUJ22pk/66yHH/juKSSYytzSVf/tJVwE0+yXHqhb+ZNO/tYHIfTrAqeuItp/Ag8VfLHuLUzcUtbT2tkyxzyQvZxkZKGXfu98YBA7etVWvbSFiILJGTjBlOW9+mKHTtuwuZ2KK0Bd2Ex2z2nlL0Dw9R+HGajuLBo4jcQSLPbjq6fwn0IPI6ik4dVqFynVll/4l6N28wiq1WEG6wlOPuMD09eKlAQHmkxS85pOaQxKdgcU0UvpQBZtE8y8hQDOXXOPrUcrb5XYjqxPFTWPyvJNj/VoTnOME8Cqmeap/CLqO4owKQ0mT6VIyxRR3opgGM0KBuwTgdzRVnT7b7XeRxHlerfQf5xQld2Qmak9wkVut3bRIHCBFklOSOw2j15z9BWbOl3Lb/aLic4bkJnkj1wOAKthkvdQZiu62gBIA4DH/AOv/ACFV9SueTCMb2OZcdvRR7Ct5u92yUUEkkicPHI6N/eViDVtJl1GdI7shZXO0XAABz/tev16/WqI70qAs6gdyBWKbKaLb2MUYdZLyOOVGKtE8bhsj6KaasdgrZkuJmUDkJEBk+xJrS19EmzcooDRymFz0yABg4/MfhWDVzSjK1hLVF43Gnx48qyklbHWeXj8lA/nTk1GFGDLplpwcjO//AOKrP6dakiikuJ0iiUs7nCqKXO+g7IkZrjULkDlmPQdh/wDWqwzR2/8Ao9nGJp8fNMRnB/2amCvFI2nWcaPKVxNNjJB749B2qxJcW9httNOiWa6HDTdQD3x+fWrUerZLfYgEN8RH9sFr5cpyDPtXjnkEDIHX9KlSxntUS7syhLjBhzuVxgZwT/LrVK+tBCGe5vo3uzg+UgLdfU9B9Kz1dkYMjFSDkEHoabmovVfiFi9c28dwkt1aKEVTmSDvHnPT/ZGKZbRH7BdSnbt+VRk85znj8quXU8mLbWbcBHY7JcKAN468d80+ZETRJbm3C+TcSKCFyBG2MlefQ4x7U3BXbC5jUhzRnmrUGn3d1zDA7DGckYHJ45NYJN6IpuxUx60VPcWtxasFuIJIyeRuXAP0PemRJ5kgBztHLEdgOppNNOzC6LaJKmmNHFE7tMQ7lUzhFzj9efwFUKvW+oGHVI7pQUVTjarEYTpjI56VJr1obTVpVIVRJiQBe27nFW1eN10EmZ1GBRR+FQMnzRmik59aBi1paY/k2d9MBlljwD/dzwP1I/KsytGxQ3Fhd2sbfvW2yKvd9ucge/Ofwq6fxaClsS6L/qbvG4skZcKO+AayHJdyx6k5NPUzQybk3I69xwRUsNldXRZkjJ7ljwKG3JJC21KtaWkWZmuBdSfJbQHe7npkcgVPFY6fZrvv5jK45EUJ7+hNV73VZbmD7MipFbg5WKMYH41UYqOsvuDV7FjUpZLu2jManErl8EgkDtn3OSfpisz7HNs3HywPeVR/WoDyaSplJSd2NKxdj04s6h7m2Tc20fvAf5VoSwQ6PaS+XcxS37P5aeWf9WmOW+p6e1YWSCD0xVizlVb1JJiCueSe1OMktkJpmq0Z0rTVhi5u70AHHVR7e5yPzpywQ2UBjDlNoJuZweSecIozz/k1VurxW8QeZPGggilChABgIDx2/Gk1+SM34WCVXt9oZFQYC5Az+PFauUUm100ElqZs8iSTyOkflozEquc7R6VF0pavwWZggF9dofIz+7Qtgyn/AOJ9TXOk5Mq9i3EB/ZslgWOfK89gOm4kf+y4/GqdhqCW8UltcQfaLWUgvHu2kHswPqKrC5k8+SVgGaTO4EkZz16EUvmwcZt8c/wuR/PNW56poSRZS409bhJRZyqEOQhmDKSD3+UHGKmvNUt76QNNbTqo6Ilz8qjsACpxVTzrTBBtHz7TdP0p3nWX/Po+cd5uM/l0pqbta6E0WnvrFtPe0WO5VWcOC7LIVwCAAeMD14qC2hS6dbW2Wb52Hmu2MKvv6AdealuYIrVFeSwfy3H7uQSEq344/Tg1Xl1Kd7f7PGRDB3RBjPGOT3pt/wAwJdisYz5xjj+f5tqkd/StjxOCNRUMVLhMfL6dqh0e2VWbULkYggBZc/xv2A/OqF1cyXlzJPKcs5JP50vhp69Q3kRUc0Y4orIsnxkUhpc0UCE96ckjxOHRirryCDyKbSHrQBprrt0B86wyOP42jGaqT39zOTvkO3+6OAPwqtSZqnOT3YWQFiTyaSlpM1AwpKMUUAFIKWkzQBdd4LuJN8nlXCALlh8rgdMkdDT49E1CaQKluSCMhgQVx9c4rOxxUouZ1i8sTyCP+7uOPyq1KLfvIVuxtxadaacQ90Y3YA5Mpwu4Doq9W9KzNS1B9QuA5J2KAFBNUyckscknuaSqlUuuWKshKOt2J3oxRSg1kULRRQeKAL9lq81nE0JjjniJzskGcfSrJ1uBo9j6ZauMEZKAH8wKxs0d61VaaVrk8qL97qs93EkACxQIMLGg4/E96oCilHWolJyd2NKwtHPtR1NHFICXmiig0DNey8O3d5DFM09laxyruiN1crH5g3Fcgdeqmk1Hwxq2mQfaJrcPb9poXDoffIqfXR/xJPDr44Nm6/lK/wDjVHSdbvtFuRJaTMEJ+eFjmOQdwy9KxTm1dHXKFGMuSSfr/wAAzaK3fEtlaqbTVLBNlpfxlxGORG44Zc/WsHtVxlzK5hVpunNxYUneilAJ4qjMSkp7xuiqzIyhuVJGAfpTKAasJRRRQB0XgnTm1HxNbrsieOJWklEyB124xyD7kVoXdvpPibT7mfSLJbbULePznhTgOoJDYHTgYPHPWpfh6rxxa3dRqzvFahVRBksTuIAx7qKoWFrL4f0O91K6k8i8uYfs9rAfvlWI3OQegxwPr24rmlL33bdWPVpR5cPFNXTu35HL0dqDSqjO4VVLMTgADJNdJ5VhtLQVKkgggjgg0UAKKO9JirNvZXN2223gklb/AGFz/npQNRbdkV+1JVu90+706Xyru3eFyMgMMZFVccZ7UJ3E4tOzENL2q1pum3er30VlZwmWeQ4AHb3J7Cp9Z0iTRLxbSaaKWXy1dvLOQpPY+9LmV7dSvZy5ee2hnjrS4P8AkUlLz7/lTJH96DSUE0AdBrWG8MeHG/6ZTr+Un/1654musm02+1fwr4fisrdppE+0kqpGcbxzzVe38H3satc6uyabYx8vJKw3keiqOST2zWMJxirN9/zO2tQqVJpxWll+SHSwzXHgnR7VI3eea9mMI9VAAOD9c/lV2Hw9b6PtFxpl1rF8QCYoARDGPdgOT+lZq+Jkj8RWV7b2/lWNkBFDATkiPoc/7RyST6muu1S88UXLPNpDWVxZuwMbRAbl6EAhiRnp/wDWrKbktNrndQhRmnLVuNlor7Lexzvi7SLK10+zv4LRrCeaRkltGbdjAznIOKv6X4dbTtOguobKG91CZRIGuW2wwg9sdWP+frzWvJrCmNtXn3SZIVDIrEe+F4reSPU/EGi2dxpmqOLq2iWCa2EpVjhiFYYPuBzjoKJKSgtRU3TeIm+R3totL+ehpajPc3ei6hD4g021gEMDtBPASMyDG0KDnPOM47Vzfhu30yHSNQ1rUrd7kWkkcaQDoxbPU/hTtSsvEdvpskmo3+IyvzRPcBnYf1+mc+1WvDtvZXHgvUEv5ZoYHvYg8kSgleOM+2TQtIPXr0FNupXXu6pP4rfiQ2tz4c16b7HPYyaZLIwWGaOTepJI4YEcf/Xrm7+zl07UJ7OfHmwuUbByMiusNl4P0gvJNPPfSIOIhIAGPYjbj9Txg1zWuaq+t6xc6g8axmZuEXsAMD8cAVpTeumxzYqNoLntzeXbztodT4Hvzpvh/wAQ3cIBuYY0ZMgkdG64ptzpVv4ztpdV0qTy9RRQbmydsjIByV4744/pXK2WqXFhbXcELAJdR+XIDzkc/wCNR6fqF1pl4l3ZymOZe46EdwfUH0odN8zktwjioezhSmrx6/fui3pGjy3+sizlUxBA0kwc7SqryevT0rc1Pxc1nNNb6THFC0D+RbyiNWEcK44XI6lskk0+28X2lzrf2m9tDCk1mbedo3/iJzuA/Pjtms42PhmzdJpdVuLxQcm3hg2kjnguT9OgpN3fvItJQp2oSW+r2fkaviaBdT8FaV4gaKNbyWRluXQBd+Swzgf7v+c1h6BptrMlzqGpB/sNouWABAkY9E3dic/55rYg8aWlzbXNjqunFtOkASK3tzgRIMbQOQcgjOcnqao6Rf6dd6W2h6lJLaW7TidLiM52Hphh3GP5UR5lFpoc/ZTqqaknp17rv6jTcL4o13T7FIbextVPkxqoIAXOck8knHFdHdXOnaHNJp9tqElksRwW+y5kPbjcPXPI5569q43UU060ljXTp7iWReXkcAAHPbH+NdNZ/EAG2Md9ZCWQKPnXBDsO7A/zolB2XLsVh60IuSqNKXf9NDM8Ta3BeQRafaXVxdW8TmTz7g/M5xj044qvpmiTazpltFbDEjXrIzkfKibFJZj2Ax+tR6n4iudRRoFjhgtz1jhjC7hnIzjrikttemsvDVzpNuPLa6m3TSg8mPaBsH1I5/D3q1FqNkc06lOdVyk7qxbv9Zg0hZtL8POoiwElvwuJZiM5wc8L9MGuaHWlpcVcYqJzVKspvXbsApeaTFLiqMx2aQmkzS0AWEv7yJIljupkWLPlhXI25OTj64plxdXF24e5nkmYDAMjFsCoqbSsinOTVmwzVm31C8tEZLe5liVuSqscZ9cetVaTvTaT3FGUou8XYlmmluJTJNI0jngsxyTS213PZzrNbTPFIvIZTg1D3o70WWwKUk+a+pNc3dxeSmW4laR8Yyx7V0unAH4a60Tni7iI575X+ma5TrXSaRdRjwVr1o8yqztC8cZPLENzj8MVlVXuq3dHThpNzk5PdP8AI5uigYoNanKFJS9KOKAEoooxQAtAoFFAC04cCmk0tACd6Un1opDQAnenCm08c0CFPFJkUo60vFMY0Hiko7UtIAPWkNKepppoAM0lHag0AFFHakoAWiigUAFFJ3pe1ABRR3ooAKDR3pT1oASkpx6Uh70AApRR/hRQIKOtHakHWgYvQ06m96cOlAC9qKPSlpgf/9k=;clipPath=inset(0% 1.5% 0.5% 0% round 26%);" vertex="1" parent="1">
          <mxGeometry x="911.2" y="490" width="39.6" height="40" as="geometry" />
        </mxCell>
        <mxCell id="I9OwONVPuuNTIhYXYgKd-46" value="" style="shape=image;verticalLabelPosition=bottom;labelBackgroundColor=default;verticalAlign=top;aspect=fixed;imageAspect=0;image=data:image/jpeg,/9j/2wCEAAgGBgcGBQgHBwcJCQgKDBQNDAsLDBkSEw8UHRofHh0aHBwgJC4nICIsIxwcKDcpLDAxNDQ0Hyc5PTgyPC4zNDIBCQkJDAsMGA0NGDIhHCEyMjIyMjIyMjIyMjIyMjIyMjIyMjIyMjIyMjIyMjIyMjIyMjIyMjIyMjIyMjIyMjIyMv/AABEIAMgAyAMBIgACEQEDEQH/xAGiAAABBQEBAQEBAQAAAAAAAAAAAQIDBAUGBwgJCgsQAAIBAwMCBAMFBQQEAAABfQECAwAEEQUSITFBBhNRYQcicRQygZGhCCNCscEVUtHwJDNicoIJChYXGBkaJSYnKCkqNDU2Nzg5OkNERUZHSElKU1RVVldYWVpjZGVmZ2hpanN0dXZ3eHl6g4SFhoeIiYqSk5SVlpeYmZqio6Slpqeoqaqys7S1tre4ubrCw8TFxsfIycrS09TV1tfY2drh4uPk5ebn6Onq8fLz9PX29/j5+gEAAwEBAQEBAQEBAQAAAAAAAAECAwQFBgcICQoLEQACAQIEBAMEBwUEBAABAncAAQIDEQQFITEGEkFRB2FxEyIygQgUQpGhscEJIzNS8BVictEKFiQ04SXxFxgZGiYnKCkqNTY3ODk6Q0RFRkdISUpTVFVWV1hZWmNkZWZnaGlqc3R1dnd4eXqCg4SFhoeIiYqSk5SVlpeYmZqio6Slpqeoqaqys7S1tre4ubrCw8TFxsfIycrS09TV1tfY2dri4+Tl5ufo6ery8/T19vf4+fr/2gAMAwEAAhEDEQA/APHMUUpFJ+FAxCM0h6U803FACUlLg0dKAEpKWg0AJikxT/wpO1ADTSU6jjNIY3FFL+FGeaAEoxS0GgBuKMUtLjNACD6UopRRTENIowaXFJQAtJRRQAUZFGaM0AWat6dpl1qs0kNpHvkSMyFR1IH/AOuqldN4VuTp1lq2ooCZII4wgGMZLH/DH496ipJxjdG+Fpxq1VGW3/AOYNT3FjcWsEE0qYjnTfGwOQf8D7e4rT8T2MVtqKXFtj7NeRrPHtzgZHI59/51Nbb9S8G3kDtubT5VmiGMlUbIYfTODSc9FItYf35U3ulp/Xoc52pO9KaStDlL2n6Teamlw9sistum6QswUAc+v0P5VTjjeV1jjVndjhVUZJPpXYaSBp3gDUruXd/pTbYwDgH+EHjnIO449qzvDBit11C/8kT3drCHt4ye5OCcdSRkH6ZrBVW+Z9jv+qxvTjfWSu/T/hhF8KS28Qk1XULPT1I4SSTc5PptFZN9aQWroLe/hu1YctErLt+oYCo7ye5ubp5ruR3nY/M0nWoK0ipbtmFWVPaEbeb3/wAhKTrTqQ1ZgFIetLSUAAoOTVu3027uRuSIqnGXf5V/M1fTSbOE4vL1VfGSinB6Zx9e1XGnKQm0YuDQK3m0nTm5S6JTBw6sGyR7cdcjH+RSy+G2CI0V5A6v90tlc+nrV+wn01J5l1MHFBFaUmkSxfeuLYDGQWk2g/mBUZ0q7KlkRJF9Y3Vh/Oo9nPsPmRQzgdaDU8lpPFKY5IHVwcFSvNRvE6EhlII7EYqbMYwdaO9GKKQBSYopfwoAsYroLFVi8EapNn5priOED6fN/WsCuqW8bRvBenlIIJHvLmSUieIOpVfl6H8OetZVb6Jdzrwdryk9LJ/jp+pWRP7V8IMgVmuNNYsCOf3Z5I/Unv8AdqPwfIo1h7Z0DLcwvHyue36cZrR0DXri/vG0t7W0WK6R0IihCEnBI4HXGD2zz3rn4FfTdeiRsBobgKSw44OO46Vmk7Si/U6XKKlSrRd+j+X/AACCLT5pdWGnnCy+aY2I5xg8njrTtX0yXSNUmsJTveMj5gMbgQCMfnXbzWUehT6zrhACmMJbArg7mAzjp3x29fSqX2MeJYtH1CMM86SLBd7lznbyWx3H+NJV3v0Lll6ScF8d7/K9v+CQeK86Z4e0nRGUK6r50ij1xj2/iLfl1rlbK+uNOvI7q1k8uaP7rYBx271teNL37Z4lnAYMsCiEEZ5xyf1JrnsVpSj7mvU5cZU/2huD20XyOmHjnU5D/pEVvMuSWGzG72PUEe2KkhXSvEsT21tZm11MITEqAYcKM4yMZP1A4rle1bWg281ut1rRV1hs4m2PjhpWG1Vz/wACz+A9aUqcYq8dGaUcVVqS5KnvR637dzDPBwRSd6cxLMWYkk8kn1q/b2ccUP2m6ZQOdsZIyeDyfxxx/k9EYuR5z0K9tYTXTLj5Iycb26e/5VZM9lYjbDGs8vGXbkDoTVe6vpbg44SMcBF4GKqVfMo/Dv3FvuT3F5PdNmWQkdAo4A/CoO9FFQ227sYU4OwGNxx9aaKdSA0bDUJbVCzs7wgj93uIyetV5dQuZSx3gAknhFB/MDNQy/LsjH8I5+p5/wDrfhTra3a6m8tWRBgsWc4AA7mtFKT91CshDdXB58+TP+8act7OOHbzF9HGf16ipjp3/TxC3qFcNj8qhntXt2AfGTzwc0mpLVjJXhSe3M8AIK/6yPrt9x7VTwRVrTnK3qJ2kzGw9QeKrEbSRSlqriG45pM07GeKTb71IyzXSeIG8nwz4dtH5l8mSfJHIR2+Ufoa5w0+W4mnEQmleQRII03NnaoyQB7cmplG7T7GsKnJGUe/+Y6xunsL+3u4+XhkVwPXBzir3iKe2u9Xe7tGG2dVkZQT8jEcjmsmihxTlzCjVag6fTc2dd8RXOtRW8DgJBAOFHUtjkk1o+DNbj00XaTldqKZostg78Y/Htx+PauUIpMVLpRceXobQxlWNb2zd2PmmkuZ5J5m3SyMXY+pJyavaNd2Vpdu2oWi3UDxlChHIyRyPQis2ircU1YwhUcZc3U6tZ/BzRtvs7pWU8ASN83P6ZFZWs662pCO3ghS2sohtjiRQOPfHWsn8av2drFHEbu7JVF5RR1Y/wCFTCgm/wDM2qYuTjypJX7K1x1rClpELqcAuOY0J+v69MfnVCed55C8jlifU0+7uWupmcnC5O1fQVXraTWy2OXzDrQaXNIeetQMaaKU9aTvQAd6lhXfKoPc1F3qxana7MRkKpJ9qaAikYtIx65Pf0rX022T+z5nkaONp/kVn4OM9s+/X6Vkc1rm1+2fZ4GlEflwg4PPXn1+n4k1rS3uJlG8tDaOnzKyuoYMKXBOnk4JCy4z6ZHSrepRw2trb2Sz+dJG7uSB91TjC9/Qn8arS4j00A/ellDD6KCP5n9KJR5ZNC3RBbtsu4m7h1P60XabLydfSRugI7+9RZIYEHkd6talzfyPkfPhuO2RUfZH1KlLSHrRmpGWaQjFHvSUCCjFFB9aBiUhpVDOwVRkngAVaaOGzyJR5k/ZP4V+tCjcRWSKSU4RGc+ijNWDpd6Dh7dk924A/Gmm/uiNolZV64XgVWd2ckszMfc5qvdDUtlba0AJK3E/oPuL/wDFVDc3U92waaQtjhR0A+gqAGg9KTl0QWEpKXmkNSMOlFJS/jQAUhFLSUAHerNudsM57ldo59f/AK1Vqmxi1B55fn8uP600IYoycCrl0rySqNuxVRQNwxkY6/jnNUgcEEdaujWtQC4+1uwxj58Nge2aqPLazB36EdvbNPMI4lZ2J/hGcD1pL6R5JypRo1j+VUbOQPfPeppdc1GSPZ9pKLjB2ALn8qobs8nrTk4pWiCv1DtVvU9ov3Cjjjn1OOT785qoBlulXNXZW1ScocjIH6DNL7LDqU6OaQUuagCxkUlFFMBKM0cUnFAy9br9mtfteMuTtTOMA1QZizFmJLE5JPetPWAsYtYkPyCIMBn8M/XiqcdjdTLujt5GHrt4q5J/CJdyuaKtvpt8ilmtpNqjLELnH5VUqWmtwuJR1p6CPq5b6L/jUomtUJ22pk/66yHH/juKSSYytzSVf/tJVwE0+yXHqhb+ZNO/tYHIfTrAqeuItp/Ag8VfLHuLUzcUtbT2tkyxzyQvZxkZKGXfu98YBA7etVWvbSFiILJGTjBlOW9+mKHTtuwuZ2KK0Bd2Ex2z2nlL0Dw9R+HGajuLBo4jcQSLPbjq6fwn0IPI6ik4dVqFynVll/4l6N28wiq1WEG6wlOPuMD09eKlAQHmkxS85pOaQxKdgcU0UvpQBZtE8y8hQDOXXOPrUcrb5XYjqxPFTWPyvJNj/VoTnOME8Cqmeap/CLqO4owKQ0mT6VIyxRR3opgGM0KBuwTgdzRVnT7b7XeRxHlerfQf5xQld2Qmak9wkVut3bRIHCBFklOSOw2j15z9BWbOl3Lb/aLic4bkJnkj1wOAKthkvdQZiu62gBIA4DH/AOv/ACFV9SueTCMb2OZcdvRR7Ct5u92yUUEkkicPHI6N/eViDVtJl1GdI7shZXO0XAABz/tev16/WqI70qAs6gdyBWKbKaLb2MUYdZLyOOVGKtE8bhsj6KaasdgrZkuJmUDkJEBk+xJrS19EmzcooDRymFz0yABg4/MfhWDVzSjK1hLVF43Gnx48qyklbHWeXj8lA/nTk1GFGDLplpwcjO//AOKrP6dakiikuJ0iiUs7nCqKXO+g7IkZrjULkDlmPQdh/wDWqwzR2/8Ao9nGJp8fNMRnB/2amCvFI2nWcaPKVxNNjJB749B2qxJcW9httNOiWa6HDTdQD3x+fWrUerZLfYgEN8RH9sFr5cpyDPtXjnkEDIHX9KlSxntUS7syhLjBhzuVxgZwT/LrVK+tBCGe5vo3uzg+UgLdfU9B9Kz1dkYMjFSDkEHoabmovVfiFi9c28dwkt1aKEVTmSDvHnPT/ZGKZbRH7BdSnbt+VRk85znj8quXU8mLbWbcBHY7JcKAN468d80+ZETRJbm3C+TcSKCFyBG2MlefQ4x7U3BXbC5jUhzRnmrUGn3d1zDA7DGckYHJ45NYJN6IpuxUx60VPcWtxasFuIJIyeRuXAP0PemRJ5kgBztHLEdgOppNNOzC6LaJKmmNHFE7tMQ7lUzhFzj9efwFUKvW+oGHVI7pQUVTjarEYTpjI56VJr1obTVpVIVRJiQBe27nFW1eN10EmZ1GBRR+FQMnzRmik59aBi1paY/k2d9MBlljwD/dzwP1I/KsytGxQ3Fhd2sbfvW2yKvd9ucge/Ofwq6fxaClsS6L/qbvG4skZcKO+AayHJdyx6k5NPUzQybk3I69xwRUsNldXRZkjJ7ljwKG3JJC21KtaWkWZmuBdSfJbQHe7npkcgVPFY6fZrvv5jK45EUJ7+hNV73VZbmD7MipFbg5WKMYH41UYqOsvuDV7FjUpZLu2jManErl8EgkDtn3OSfpisz7HNs3HywPeVR/WoDyaSplJSd2NKxdj04s6h7m2Tc20fvAf5VoSwQ6PaS+XcxS37P5aeWf9WmOW+p6e1YWSCD0xVizlVb1JJiCueSe1OMktkJpmq0Z0rTVhi5u70AHHVR7e5yPzpywQ2UBjDlNoJuZweSecIozz/k1VurxW8QeZPGggilChABgIDx2/Gk1+SM34WCVXt9oZFQYC5Az+PFauUUm100ElqZs8iSTyOkflozEquc7R6VF0pavwWZggF9dofIz+7Qtgyn/AOJ9TXOk5Mq9i3EB/ZslgWOfK89gOm4kf+y4/GqdhqCW8UltcQfaLWUgvHu2kHswPqKrC5k8+SVgGaTO4EkZz16EUvmwcZt8c/wuR/PNW56poSRZS409bhJRZyqEOQhmDKSD3+UHGKmvNUt76QNNbTqo6Ilz8qjsACpxVTzrTBBtHz7TdP0p3nWX/Po+cd5uM/l0pqbta6E0WnvrFtPe0WO5VWcOC7LIVwCAAeMD14qC2hS6dbW2Wb52Hmu2MKvv6AdealuYIrVFeSwfy3H7uQSEq344/Tg1Xl1Kd7f7PGRDB3RBjPGOT3pt/wAwJdisYz5xjj+f5tqkd/StjxOCNRUMVLhMfL6dqh0e2VWbULkYggBZc/xv2A/OqF1cyXlzJPKcs5JP50vhp69Q3kRUc0Y4orIsnxkUhpc0UCE96ckjxOHRirryCDyKbSHrQBprrt0B86wyOP42jGaqT39zOTvkO3+6OAPwqtSZqnOT3YWQFiTyaSlpM1AwpKMUUAFIKWkzQBdd4LuJN8nlXCALlh8rgdMkdDT49E1CaQKluSCMhgQVx9c4rOxxUouZ1i8sTyCP+7uOPyq1KLfvIVuxtxadaacQ90Y3YA5Mpwu4Doq9W9KzNS1B9QuA5J2KAFBNUyckscknuaSqlUuuWKshKOt2J3oxRSg1kULRRQeKAL9lq81nE0JjjniJzskGcfSrJ1uBo9j6ZauMEZKAH8wKxs0d61VaaVrk8qL97qs93EkACxQIMLGg4/E96oCilHWolJyd2NKwtHPtR1NHFICXmiig0DNey8O3d5DFM09laxyruiN1crH5g3Fcgdeqmk1Hwxq2mQfaJrcPb9poXDoffIqfXR/xJPDr44Nm6/lK/wDjVHSdbvtFuRJaTMEJ+eFjmOQdwy9KxTm1dHXKFGMuSSfr/wAAzaK3fEtlaqbTVLBNlpfxlxGORG44Zc/WsHtVxlzK5hVpunNxYUneilAJ4qjMSkp7xuiqzIyhuVJGAfpTKAasJRRRQB0XgnTm1HxNbrsieOJWklEyB124xyD7kVoXdvpPibT7mfSLJbbULePznhTgOoJDYHTgYPHPWpfh6rxxa3dRqzvFahVRBksTuIAx7qKoWFrL4f0O91K6k8i8uYfs9rAfvlWI3OQegxwPr24rmlL33bdWPVpR5cPFNXTu35HL0dqDSqjO4VVLMTgADJNdJ5VhtLQVKkgggjgg0UAKKO9JirNvZXN2223gklb/AGFz/npQNRbdkV+1JVu90+706Xyru3eFyMgMMZFVccZ7UJ3E4tOzENL2q1pum3er30VlZwmWeQ4AHb3J7Cp9Z0iTRLxbSaaKWXy1dvLOQpPY+9LmV7dSvZy5ee2hnjrS4P8AkUlLz7/lTJH96DSUE0AdBrWG8MeHG/6ZTr+Un/1654musm02+1fwr4fisrdppE+0kqpGcbxzzVe38H3satc6uyabYx8vJKw3keiqOST2zWMJxirN9/zO2tQqVJpxWll+SHSwzXHgnR7VI3eea9mMI9VAAOD9c/lV2Hw9b6PtFxpl1rF8QCYoARDGPdgOT+lZq+Jkj8RWV7b2/lWNkBFDATkiPoc/7RyST6muu1S88UXLPNpDWVxZuwMbRAbl6EAhiRnp/wDWrKbktNrndQhRmnLVuNlor7Lexzvi7SLK10+zv4LRrCeaRkltGbdjAznIOKv6X4dbTtOguobKG91CZRIGuW2wwg9sdWP+frzWvJrCmNtXn3SZIVDIrEe+F4reSPU/EGi2dxpmqOLq2iWCa2EpVjhiFYYPuBzjoKJKSgtRU3TeIm+R3totL+ehpajPc3ei6hD4g021gEMDtBPASMyDG0KDnPOM47Vzfhu30yHSNQ1rUrd7kWkkcaQDoxbPU/hTtSsvEdvpskmo3+IyvzRPcBnYf1+mc+1WvDtvZXHgvUEv5ZoYHvYg8kSgleOM+2TQtIPXr0FNupXXu6pP4rfiQ2tz4c16b7HPYyaZLIwWGaOTepJI4YEcf/Xrm7+zl07UJ7OfHmwuUbByMiusNl4P0gvJNPPfSIOIhIAGPYjbj9Txg1zWuaq+t6xc6g8axmZuEXsAMD8cAVpTeumxzYqNoLntzeXbztodT4Hvzpvh/wAQ3cIBuYY0ZMgkdG64ptzpVv4ztpdV0qTy9RRQbmydsjIByV4744/pXK2WqXFhbXcELAJdR+XIDzkc/wCNR6fqF1pl4l3ZymOZe46EdwfUH0odN8zktwjioezhSmrx6/fui3pGjy3+sizlUxBA0kwc7SqryevT0rc1Pxc1nNNb6THFC0D+RbyiNWEcK44XI6lskk0+28X2lzrf2m9tDCk1mbedo3/iJzuA/Pjtms42PhmzdJpdVuLxQcm3hg2kjnguT9OgpN3fvItJQp2oSW+r2fkaviaBdT8FaV4gaKNbyWRluXQBd+Swzgf7v+c1h6BptrMlzqGpB/sNouWABAkY9E3dic/55rYg8aWlzbXNjqunFtOkASK3tzgRIMbQOQcgjOcnqao6Rf6dd6W2h6lJLaW7TidLiM52Hphh3GP5UR5lFpoc/ZTqqaknp17rv6jTcL4o13T7FIbextVPkxqoIAXOck8knHFdHdXOnaHNJp9tqElksRwW+y5kPbjcPXPI5569q43UU060ljXTp7iWReXkcAAHPbH+NdNZ/EAG2Md9ZCWQKPnXBDsO7A/zolB2XLsVh60IuSqNKXf9NDM8Ta3BeQRafaXVxdW8TmTz7g/M5xj044qvpmiTazpltFbDEjXrIzkfKibFJZj2Ax+tR6n4iudRRoFjhgtz1jhjC7hnIzjrikttemsvDVzpNuPLa6m3TSg8mPaBsH1I5/D3q1FqNkc06lOdVyk7qxbv9Zg0hZtL8POoiwElvwuJZiM5wc8L9MGuaHWlpcVcYqJzVKspvXbsApeaTFLiqMx2aQmkzS0AWEv7yJIljupkWLPlhXI25OTj64plxdXF24e5nkmYDAMjFsCoqbSsinOTVmwzVm31C8tEZLe5liVuSqscZ9cetVaTvTaT3FGUou8XYlmmluJTJNI0jngsxyTS213PZzrNbTPFIvIZTg1D3o70WWwKUk+a+pNc3dxeSmW4laR8Yyx7V0unAH4a60Tni7iI575X+ma5TrXSaRdRjwVr1o8yqztC8cZPLENzj8MVlVXuq3dHThpNzk5PdP8AI5uigYoNanKFJS9KOKAEoooxQAtAoFFAC04cCmk0tACd6Un1opDQAnenCm08c0CFPFJkUo60vFMY0Hiko7UtIAPWkNKepppoAM0lHag0AFFHakoAWiigUAFFJ3pe1ABRR3ooAKDR3pT1oASkpx6Uh70AApRR/hRQIKOtHakHWgYvQ06m96cOlAC9qKPSlpgf/9k=;clipPath=inset(0% 1.5% 0.5% 0% round 26%);" vertex="1" parent="1">
          <mxGeometry x="1149.2" y="490" width="39.6" height="40" as="geometry" />
        </mxCell>
        <mxCell id="I9OwONVPuuNTIhYXYgKd-48" value="" style="shape=image;verticalLabelPosition=bottom;labelBackgroundColor=default;verticalAlign=top;aspect=fixed;imageAspect=0;image=data:image/svg+xml,PHN2ZyB4bWxucz0iaHR0cDovL3d3dy53My5vcmcvMjAwMC9zdmciIGhlaWdodD0iNDhweCIgd2lkdGg9IjQ4cHgiIHZpZXdCb3g9IjAgMCA0OCA0OCI+PGxpbmVhckdyYWRpZW50IGdyYWRpZW50VW5pdHM9InVzZXJTcGFjZU9uVXNlIiB5Mj0iMzcuNTcxIiB5MT0iOC40OTgiIHgyPSIyOS45OTYiIHgxPSIxNy4xNTEiIGlkPSI3MEFXYUc5RnBZczJ5bjhMelJmZFVhIj48c3RvcCBzdG9wLWNvbG9yPSIjZjA5NzAxIiBvZmZzZXQ9IjAiLz48c3RvcCBzdG9wLWNvbG9yPSIjZTM2MDAxIiBvZmZzZXQ9IjEiLz48L2xpbmVhckdyYWRpZW50PjxwYXRoIGQ9Ik04LjEwOCwxOC4wMDZDMTAuNTM0LDExLjU3OSwxNi43MjQsNywyNCw3YzcuMjc2LDAsMTMuNDY2LDQuNTc5LDE1Ljg5MiwxMS4wMDYmIzk7QzM2LjY1MywxNC42LDMwLjc1NywxMi4zMTMsMjQsMTIuMzEzQzE3LjI0MywxMi4zMTMsMTEuMzQ3LDE0LjYsOC4xMDgsMTguMDA2eiBNMjQsMzUuNjg4Yy02Ljc1NywwLTEyLjY1My0yLjI4Ny0xNS44OTItNS42OTMmIzk7QzEwLjUzNCwzNi40MjEsMTYuNzI0LDQxLDI0LDQxYzcuMjc2LDAsMTMuNDY2LTQuNTc5LDE1Ljg5Mi0xMS4wMDZDMzYuNjUzLDMzLjQsMzAuNzU3LDM1LjY4OCwyNCwzNS42ODh6IiBmaWxsPSJ1cmwoIzcwQVdhRzlGcFlzMnluOEx6UmZkVWEpIi8+PGxpbmVhckdyYWRpZW50IGdyYWRpZW50VW5pdHM9InVzZXJTcGFjZU9uVXNlIiB5Mj0iMS4wNTkiIHkxPSI0NC42NTEiIHgyPSIyNS42NzEiIHgxPSIxLjMxOSIgaWQ9IjcwQVdhRzlGcFlzMnluOEx6UmZkVWIiPjxzdG9wIHN0b3AtY29sb3I9IiNhMWFhYjMiIG9mZnNldD0iMCIvPjxzdG9wIHN0b3AtY29sb3I9IiM4Zjk3OWUiIG9mZnNldD0iMSIvPjwvbGluZWFyR3JhZGllbnQ+PHBhdGggZD0iTTM5LjUxMiw0Ljc0NGMwLDEuNTE1LTEuMjI4LDIuNzQ0LTIuNzQ0LDIuNzQ0cy0yLjc0NC0xLjIyOC0yLjc0NC0yLjc0NFMzNS4yNTMsMiwzNi43NjgsMiYjOTtTMzkuNTEyLDMuMjI4LDM5LjUxMiw0Ljc0NHogTTEwLjk3Niw0MC40MTVjLTEuODE4LDAtMy4yOTMsMS40NzQtMy4yOTMsMy4yOTNjMCwxLjgxOCwxLjQ3NCwzLjI5MywzLjI5MywzLjI5MyYjOTtzMy4yOTMtMS40NzQsMy4yOTMtMy4yOTNDMTQuMjY4LDQxLjg4OSwxMi43OTQsNDAuNDE1LDEwLjk3Niw0MC40MTV6IE03LjY4Myw2LjM5Yy0xLjIxMiwwLTIuMTk1LDAuOTgzLTIuMTk1LDIuMTk1JiM5O3MwLjk4MywyLjE5NSwyLjE5NSwyLjE5NXMyLjE5NS0wLjk4MywyLjE5NS0yLjE5NVM4Ljg5NSw2LjM5LDcuNjgzLDYuMzl6IiBmaWxsPSJ1cmwoIzcwQVdhRzlGcFlzMnluOEx6UmZkVWIpIi8+PC9zdmc+;" vertex="1" parent="1">
          <mxGeometry x="160" y="450" width="60" height="60" as="geometry" />
        </mxCell>
        <mxCell id="I9OwONVPuuNTIhYXYgKd-67" style="edgeStyle=orthogonalEdgeStyle;rounded=0;orthogonalLoop=1;jettySize=auto;html=1;entryX=-0.015;entryY=0.158;entryDx=0;entryDy=0;entryPerimeter=0;exitX=0.026;exitY=0.954;exitDx=0;exitDy=0;exitPerimeter=0;fillColor=#f5f5f5;strokeColor=#666666;" edge="1" parent="1" source="I9OwONVPuuNTIhYXYgKd-51" target="I9OwONVPuuNTIhYXYgKd-61">
          <mxGeometry relative="1" as="geometry">
            <Array as="points">
              <mxPoint x="120" y="431" />
              <mxPoint x="120" y="570" />
            </Array>
          </mxGeometry>
        </mxCell>
        <mxCell id="I9OwONVPuuNTIhYXYgKd-51" value="" style="rounded=1;whiteSpace=wrap;html=1;labelBackgroundColor=none;dashed=1;container=1;pointerEvents=0;collapsible=0;recursiveResize=0;strokeWidth=2;shadow=1;" vertex="1" parent="1">
          <mxGeometry x="115" y="260" width="150" height="179" as="geometry" />
        </mxCell>
        <mxCell id="I9OwONVPuuNTIhYXYgKd-52" value="&lt;h1 style=&quot;forced-color-adjust: none; font-family: Helvetica; font-style: normal; font-variant-ligatures: normal; font-variant-caps: normal; letter-spacing: normal; orphans: 2; text-indent: 0px; text-transform: none; widows: 2; word-spacing: 0px; -webkit-text-stroke-width: 0px; white-space: normal; text-decoration-thickness: initial; text-decoration-style: initial; text-decoration-color: initial; font-size: 14px;&quot;&gt;&lt;font style=&quot;forced-color-adjust: none; font-size: 14px;&quot;&gt;Jupyter&amp;nbsp;&lt;/font&gt;&lt;/h1&gt;&lt;h1 style=&quot;forced-color-adjust: none; font-family: Helvetica; font-style: normal; font-variant-ligatures: normal; font-variant-caps: normal; letter-spacing: normal; orphans: 2; text-indent: 0px; text-transform: none; widows: 2; word-spacing: 0px; -webkit-text-stroke-width: 0px; white-space: normal; text-decoration-thickness: initial; text-decoration-style: initial; text-decoration-color: initial; font-size: 14px;&quot;&gt;&lt;font style=&quot;forced-color-adjust: none; font-size: 14px;&quot;&gt;Notebook&lt;/font&gt;&lt;/h1&gt;" style="text;whiteSpace=wrap;html=1;align=center;fillColor=none;labelBackgroundColor=none;labelBorderColor=none;fontColor=default;verticalAlign=middle;fontSize=14;fontStyle=1" vertex="1" parent="I9OwONVPuuNTIhYXYgKd-51">
          <mxGeometry x="10" y="139" width="130" height="17" as="geometry" />
        </mxCell>
        <mxCell id="I9OwONVPuuNTIhYXYgKd-49" value="" style="shape=image;verticalLabelPosition=bottom;labelBackgroundColor=default;verticalAlign=top;aspect=fixed;imageAspect=0;image=data:image/png,iVBORw0KGgoAAAANSUhEUgAAAGAAAABgCAYAAADimHc4AAAACXBIWXMAAAsTAAALEwEAmpwYAAAFIUlEQVR4nO2dXUybZRTHO51zfsyBrrRv27fq/EDvDNmVCRN7pRd6s5tdqkkLqBvDOdF9OjdWohM18cJk7GKTx8m7MdzYYHz0u0ApDCjfML5WiskkmgzhysRjnlPoHDB1ie3Tve85yS8ved5etOfX/zlNkwadjoqKioqKioqK6j+W6UhMlsti52RnbM5aNgPWspmo9UD/jKWk8zvLoYGf5bLY5OI52NiCKsg7dRNe/nYCIPwCwv/mZ7ceMz9tq5x/PSXNtzpnfl1q8BKWvWGQCqrx+vdz9QnIRlYKWIBXK+ejSRfA3/nLm68pAe3ZyGoCOMkXcGvsaFTA84gwAas1nwQskABbqhIQeg6hBDBBIyj0LEICGAnQ5g5oewahBDASoNEEbEYoAUyQgNbNCAlgogQ8jZAARgK0uQNankIoAYwEaDQBTyKUAEYC/tcEbK34BbZ8PgA5zohQ+HPIPTl75wQErYjqErAlDZqfkPDFwD8IkBHVCchZfPGiZ/2dngcJYGkiIGBBKAGMBGhzBAXMiGYSkJPkhXvXAvxmhAQ4RQkwISTASQK0OYJ8EqKZBNjSbQmTgAXBAowIJYAJEuA1ICSAkQBtfhnnzUJUl4Dck7NpIYE3P7diVnsCbGlOQoBHj5AARgI0moBNCCWACRLg3oSQACZKwBMICWAkQJs7wPU4QglgogRkIiSAkQBtjqDmDIQSwEiARhOwEaEEMEECmjYiJICJEvAYQgIYCdDmDmjagFACmCABjRsQEsBECXgUIQGMBGhzBzQ8glACmCgBDyMkgJEAbY6gKw8hlABGAjSagPUIJYAJElC/HiEBTJSABxESwEiANndA/TqEEsAECahbh5AAJkrAAwgJYKIErEVIABMk4PJahAQwUQLuR0gAIwHa/Bh66T6EEsBIgEYTsAahBDBBAmrXIKsJyD31O/1M1ZZ0ATpkuQDe/Be/uZEiAaUTYC52g6mgGiSHAlLhBTAVN4GUXx2/Fl6InzuUVX9TfC8il14Hy/4I/HFch5j39eDZbY9zxlIgoHQCpILziQb/G2oT8Ge5DlkuQHbOgKmkP/kC+DufN9bwxjHIlHIhL28bnKg8Dfbyc5C98ywUfF0DFxsuQWugTlW4XJdBOV8F8JUOUap/xDN+j79evcMHers3+QKWxk6mtBUyMl6CMz9UgMdVA8FAHbSHGqG7yw39vUEYHmyDsdEOGB/tVAV9fWFw+5sTAly+Jjzj92rdvtQJWBotvPmchitnweP+CVqD9dAZdkFvxA8jQyGYHO+CqYlu1TA41Am+FndCgDfowjN+b/vxNBDQ0hIX0BcJwDAJSF5Jjqq5FSOouQYC/joItzdCT5cHBiJ8BIVgbKQDx5Aa6O1rB5e/KZGAZl8jnvF7tS5v6hJgdCg1uITfdKKEvFe2wYnvT4P9y2pcwvlqX8LlOuS2JdyY0iWsZBvtym939THUGQOrcxrkY9Mgl0bjHL0O8tEpkI9MgfzZJFg4hyfAcngcLJ9yxsBy6BpYDl4D88FRMB/gjIB5/zCY93GGwLSXMwimTwbifNwPppI+RPqoN86eCEgf9sTZ3Q3S7i4wfsC5Csbiq2Dc1QnGXR1gLOoAQ1EYDDvDYNjRDoYdITC8z2kDw3utkPVuEPTv1MFckQ7Rv1ULWfk+yMr3g97hXxTgSf4/dEYJhWdkyVGlSHblJm+y0a5EDQ5lj/FtRY9XuxJVq4Ab23XICgF2b1Tv8LyWEgFUVFRUVFRUVLp7vf4CQKm+I7dr15gAAAAASUVORK5CYII=;" vertex="1" parent="I9OwONVPuuNTIhYXYgKd-51">
          <mxGeometry x="30" y="29" width="90" height="90" as="geometry" />
        </mxCell>
        <mxCell id="I9OwONVPuuNTIhYXYgKd-54" value="" style="shape=image;verticalLabelPosition=bottom;labelBackgroundColor=default;verticalAlign=top;aspect=fixed;imageAspect=0;image=data:image/svg+xml,PHN2ZyB4bWxucz0iaHR0cDovL3d3dy53My5vcmcvMjAwMC9zdmciIHByZXNlcnZlQXNwZWN0UmF0aW89InhNaW5ZTWluIG1lZXQiIHZpZXdCb3g9IjAgMCAyNTYgMjU1IiBoZWlnaHQ9IjI0OTAiIHdpZHRoPSIyNTAwIj48ZGVmcz48bGluZWFyR3JhZGllbnQgaWQ9ImEiIHkyPSI3OC4yMDElIiB4Mj0iNzkuNjM5JSIgeTE9IjEyLjAzOSUiIHgxPSIxMi45NTklIj48c3RvcCBvZmZzZXQ9IjAlIiBzdG9wLWNvbG9yPSIjMzg3RUI4Ii8+PHN0b3Agb2Zmc2V0PSIxMDAlIiBzdG9wLWNvbG9yPSIjMzY2OTk0Ii8+PC9saW5lYXJHcmFkaWVudD48bGluZWFyR3JhZGllbnQgaWQ9ImIiIHkyPSI4OC40MjklIiB4Mj0iOTAuNzQyJSIgeTE9IjIwLjU3OSUiIHgxPSIxOS4xMjglIj48c3RvcCBvZmZzZXQ9IjAlIiBzdG9wLWNvbG9yPSIjRkZFMDUyIi8+PHN0b3Agb2Zmc2V0PSIxMDAlIiBzdG9wLWNvbG9yPSIjRkZDMzMxIi8+PC9saW5lYXJHcmFkaWVudD48L2RlZnM+PHBhdGggZmlsbD0idXJsKCNhKSIgZD0iTTEyNi45MTYuMDcyYy02NC44MzIgMC02MC43ODQgMjguMTE1LTYwLjc4NCAyOC4xMTVsLjA3MiAyOS4xMjhoNjEuODY4djguNzQ1SDQxLjYzMVMuMTQ1IDYxLjM1NS4xNDUgMTI2Ljc3YzAgNjUuNDE3IDM2LjIxIDYzLjA5NyAzNi4yMSA2My4wOTdoMjEuNjF2LTMwLjM1NnMtMS4xNjUtMzYuMjEgMzUuNjMyLTM2LjIxaDYxLjM2MnMzNC40NzUuNTU3IDM0LjQ3NS0zMy4zMTlWMzMuOTdTMTk0LjY3LjA3MiAxMjYuOTE2LjA3MnpNOTIuODAyIDE5LjY2YTExLjEyIDExLjEyIDAgMCAxIDExLjEzIDExLjEzIDExLjEyIDExLjEyIDAgMCAxLTExLjEzIDExLjEzIDExLjEyIDExLjEyIDAgMCAxLTExLjEzLTExLjEzIDExLjEyIDExLjEyIDAgMCAxIDExLjEzLTExLjEzeiIvPjxwYXRoIGZpbGw9InVybCgjYikiIGQ9Ik0xMjguNzU3IDI1NC4xMjZjNjQuODMyIDAgNjAuNzg0LTI4LjExNSA2MC43ODQtMjguMTE1bC0uMDcyLTI5LjEyN0gxMjcuNnYtOC43NDVoODYuNDQxczQxLjQ4NiA0LjcwNSA0MS40ODYtNjAuNzEyYzAtNjUuNDE2LTM2LjIxLTYzLjA5Ni0zNi4yMS02My4wOTZoLTIxLjYxdjMwLjM1NXMxLjE2NSAzNi4yMS0zNS42MzIgMzYuMjFoLTYxLjM2MnMtMzQuNDc1LS41NTctMzQuNDc1IDMzLjMydjU2LjAxM3MtNS4yMzUgMzMuODk3IDYyLjUxOCAzMy44OTd6bTM0LjExNC0xOS41ODZhMTEuMTIgMTEuMTIgMCAwIDEtMTEuMTMtMTEuMTMgMTEuMTIgMTEuMTIgMCAwIDEgMTEuMTMtMTEuMTMxIDExLjEyIDExLjEyIDAgMCAxIDExLjEzIDExLjEzIDExLjEyIDExLjEyIDAgMCAxLTExLjEzIDExLjEzeiIvPjwvc3ZnPg==;" vertex="1" parent="1">
          <mxGeometry x="169.91" y="700" width="40.17" height="40" as="geometry" />
        </mxCell>
        <mxCell id="I9OwONVPuuNTIhYXYgKd-66" style="edgeStyle=orthogonalEdgeStyle;rounded=0;orthogonalLoop=1;jettySize=auto;html=1;entryX=0.969;entryY=0.951;entryDx=0;entryDy=0;entryPerimeter=0;shadow=0;fillColor=#f5f5f5;strokeColor=#666666;" edge="1" parent="1" source="I9OwONVPuuNTIhYXYgKd-61" target="I9OwONVPuuNTIhYXYgKd-51">
          <mxGeometry relative="1" as="geometry">
            <Array as="points">
              <mxPoint x="260" y="570" />
            </Array>
          </mxGeometry>
        </mxCell>
        <mxCell id="I9OwONVPuuNTIhYXYgKd-69" style="edgeStyle=orthogonalEdgeStyle;rounded=0;orthogonalLoop=1;jettySize=auto;html=1;exitX=1;exitY=0.5;exitDx=0;exitDy=0;entryX=0;entryY=0.5;entryDx=0;entryDy=0;fillColor=#f5f5f5;strokeColor=#666666;startArrow=blockThin;startFill=1;" edge="1" parent="1" source="I9OwONVPuuNTIhYXYgKd-61" target="I9OwONVPuuNTIhYXYgKd-32">
          <mxGeometry relative="1" as="geometry" />
        </mxCell>
        <mxCell id="I9OwONVPuuNTIhYXYgKd-70" style="edgeStyle=orthogonalEdgeStyle;rounded=0;orthogonalLoop=1;jettySize=auto;html=1;fillColor=#f5f5f5;strokeColor=#666666;startArrow=blockThin;startFill=1;" edge="1" parent="1" source="I9OwONVPuuNTIhYXYgKd-61">
          <mxGeometry relative="1" as="geometry">
            <mxPoint x="781" y="640" as="targetPoint" />
            <Array as="points">
              <mxPoint x="781" y="640" />
            </Array>
          </mxGeometry>
        </mxCell>
        <mxCell id="I9OwONVPuuNTIhYXYgKd-71" style="edgeStyle=orthogonalEdgeStyle;rounded=0;orthogonalLoop=1;jettySize=auto;html=1;entryX=0.5;entryY=1;entryDx=0;entryDy=0;fillColor=#f5f5f5;strokeColor=#666666;startArrow=blockThin;startFill=1;" edge="1" parent="1" source="I9OwONVPuuNTIhYXYgKd-61" target="I9OwONVPuuNTIhYXYgKd-41">
          <mxGeometry relative="1" as="geometry">
            <Array as="points">
              <mxPoint x="580" y="660" />
              <mxPoint x="580" y="709" />
              <mxPoint x="1096" y="709" />
            </Array>
          </mxGeometry>
        </mxCell>
        <mxCell id="I9OwONVPuuNTIhYXYgKd-61" value="" style="rounded=1;whiteSpace=wrap;html=1;labelBackgroundColor=none;dashed=1;container=1;pointerEvents=0;collapsible=0;recursiveResize=0;strokeWidth=2;shadow=1;" vertex="1" parent="1">
          <mxGeometry x="135" y="550" width="110" height="129" as="geometry" />
        </mxCell>
        <mxCell id="I9OwONVPuuNTIhYXYgKd-62" value="&lt;h1 style=&quot;forced-color-adjust: none; font-family: Helvetica; font-style: normal; font-variant-ligatures: normal; font-variant-caps: normal; letter-spacing: normal; orphans: 2; text-indent: 0px; text-transform: none; widows: 2; word-spacing: 0px; -webkit-text-stroke-width: 0px; white-space: normal; text-decoration-thickness: initial; text-decoration-style: initial; text-decoration-color: initial; font-size: 12px;&quot;&gt;&lt;font style=&quot;font-size: 12px;&quot;&gt;Built&amp;nbsp;&lt;/font&gt;&lt;/h1&gt;&lt;h1 style=&quot;forced-color-adjust: none; font-family: Helvetica; font-style: normal; font-variant-ligatures: normal; font-variant-caps: normal; letter-spacing: normal; orphans: 2; text-indent: 0px; text-transform: none; widows: 2; word-spacing: 0px; -webkit-text-stroke-width: 0px; white-space: normal; text-decoration-thickness: initial; text-decoration-style: initial; text-decoration-color: initial; font-size: 12px;&quot;&gt;Packages&lt;/h1&gt;" style="text;whiteSpace=wrap;html=1;align=center;fillColor=none;labelBackgroundColor=none;labelBorderColor=none;fontColor=default;verticalAlign=middle;fontSize=14;fontStyle=1" vertex="1" parent="I9OwONVPuuNTIhYXYgKd-61">
          <mxGeometry x="10" y="99" width="90" height="9" as="geometry" />
        </mxCell>
        <mxCell id="I9OwONVPuuNTIhYXYgKd-56" value="" style="shape=image;verticalLabelPosition=bottom;labelBackgroundColor=default;verticalAlign=top;aspect=fixed;imageAspect=0;image=data:image/png,iVBORw0KGgoAAAANSUhEUgAAAGIAAABiCAYAAACrpQYOAAAACXBIWXMAAAsTAAALEwEAmpwYAAAKnElEQVR4nO1deZBeRRH/bUJ2kxBQQdhgWUVBDkyWaEAQgY1sqXgAHnjgERWwSgOKQSkVIZSioEhZiiAoKSEohk+DpRzeQolKwJhwhBBCSEIIRxJMwF0hW7CR7GeN1U/arjl63jfvO9+v6v2x386bN29+b3q6p7tngNbETACXAlgN4FkAwwDWAvgBgMMa3bhOwHgAVwDYBaDquEYBLAawR6Mb266YAODPHgLktRLASxvd6HbENaKjnwZwMYB3A3gngK8B2CLK/KbRjW43HEUiJ+vg2wHsbSlnxNGvBBmGqBKJcB3r2M0AXhYQYQ+y8reULKTDP1jHflFR/mRWfgRAT0lGfuxNYuV7QtQcobh3f3HPjwCcBGBySYgOrwXwbQD3izmBX4co6tnPo00ZsXU5gKMBdJXEvIhXAjgXwBqlWnqKovPerqxrI2lbUzudkNeQVVx1XP8G8HcA69lvf1N8yTez8o+TljXiec5OAG9EB+PTlk55AsB3ABzPrOMPiDIXeOr8jChr/jaYCODNAL4B4GHLc311tj2MLF8OYBDAj6mjxljKmd9WiI67AcDr2Ogwo+taUWa9Q2My9/QDuBLANgAPAJhe8Lu2DaYA2O4QKzax86xyYi+Rc9V1vWIS3kyjpQSAPhInD5OqmAoTASyguUQSsI3mgJckfJ4ReQ+R+DoSLYZ3AHiGddCNBTyjC8AMAMfRxD7LMb/UiqvYezwP4GNoEXzK4i84C62LuZaR92U0Oc4WDTbW8fltYMHOBfCceLfLCxqBNeNc0dAdAE5A++BoAE+Jd7wETSiOeAMHyYfQjgrIFvGuZsQ3BU4Qc8Jgm+vvU0k9jl3/KhSvAjDEGmTWjeag/dEnxJQxKo9pZIPuYI3ZRWprp+AoUmez91/XyMasYg05B52HU4Q13zDMBlChFc5WV1Hz4qMAftKKVrcNXQBOBHAbgFtJxBVF7ACAXwO4k6zk3Qp6Tkuhizr9Lov1eh+A9yckpJ9ItnnpPtmphPgIqCYmxEVARxOSiaCVjs5Y5fFd3xUpsgY8IZqPkAvW9r91JLLGogNHwGr28mNoBKzJOUJ8I+BRAGcyr53xCC5rtRHyagrumpp4BLzP4x79cMQICY2ATwDo9kR9LEs4Ql5BffV6JMZkZkE/qhQPPgLup69as3o5hgh50EOIi4BN9FW7CMhDiKbNy+me58hnkgxniWWM0HD9fAICYgmphYAYQkwAXAibWPlvISHuYRUvUZT/reUFtiZah3qTI4iABw28J4Haa4zVDZb671Xcewkr/0Qqv8VM0RDjlgzhd56OWpozmKufIrtDo0E7qbtwMIDrPSGfRtyGcJi4x3w8NeNCVqGJyh4XSYTrhW5RBhUMeOaAUcVzVtBSfZdiBNzgqGc0kggIJcP4vWsGl5XfV97DibiMIvoejyRkIDAJzwPwQxGg4NOyXIT4CNhO7t/zcxDxFXaPUXBqwiSKP80qfG8OIrLJqkdJyECEFnQF+98vlGpvRsghCgLM+0vlY2WEKOV1HoAa8FYxPPetgYgM3dSZLkKqHkPMZJVy2IjIEDIMbddT9PXLuKg8RHST3z67zyTP5MIYUtW46okEREA5QqoKNdRHBJQjxDYCkIAIgz+w+66LXTYxouGXIkAsU8NOV6ZBaYjI0EPBBzw9a4vSDtAQIQnhKum/AgTkJWIsGX/rRB8Ok2rv1TwnkIMjNHzXKYIDYojIUMmhZcQQYdMC/6S8J4aIaWRrhPrxZlseeE9kMvmOgEeqU4mYSfnf2n5cKeejS0WBxwDMp3jSaZRUKK3lJwHs5WhQJxIxwSKK/kJJNgcRSfMsZX6WVTBNqKhLPVsnnCEqMZk9NnQiEV8SfeMKNZ1Irlpe9r/S5ZvshyGFinqVKD8uQMQyWjZITcRssQa2nnT31EQcCOCPCiIeYWVuCtQ5SaQVLIJIiTJWcAjTBZu2Nfcloswu+u3gBETM9hhimWHYn4CIA6mDdor6/2ope4Aoo/kgFkjLeyv7wYSGaDDI7jEyUOIIS8BuRsj1DkIqASJCBGgJCRGREcDFNV/ZfZvlnmNYmVGlin8su+eFoogw2BPAeQ4twkZIxUGEj4BtZAf4DMNbBSEuIkIEGBH+cse7SiLkCoCKiFjRdJBCNOUhpCKI0BAwKcJSzwiRRNRCgEs0zckjmi4SlmZvoIJFisk6DyFD7O/BCAIkQoTw0fyMh4CLFARwbGT3m62KfNhDRJQvsqmvd3i24Zmfw20YQ0jVcWkIyLOWlYIAV7bUBQ71dXfa0MsqVbhrr0qq1WcpcmM6uR5/L8psDeyblIKQwRwEuAh5siACuEH3kKjXbD3xIUpfMKH8p1ncrz/llXRT3GnMl6PZrkdLyAIhMmxzSC2J8tc4RNBwAgI4ZgT86fK6l97//zCe9jUK3byWco9To+J5Zh5Cpngm4VjLOgYm7utuRT/eGMoHfwOAn4vJMxNX82oIUYkhYkOE2isR0oLWFExEtgz+Ecu60g6ayE24jhpdNTiG8qAi1NdYO0SrhuZZa8oLvjSyuJZ42rewiow6uQ+KQ0UQkSFEyBLHUoQkIEO9iOgWe1HldpWCtJWdOYIH8qDiIIK35Wyl2ruDlvZte/jViwgZPGD2Gax7OE0eVAJEaEZINgJ8I7deRCQNp5EN3xZhSceioiSCE8Kd8yuUorNeRCQPMJuRI+QyDypN7BiKRSEhlxAOmP+59hKj0kZE8JWKzSmzjz4XGZbf6URsKiosfzJTxTYVlHpbYY2/ukAivl4HIpYzP4MJGkgK4x/4Ai0doGAiRgAsVKh8MUT0koE6XAci9qO+askk+PMs6miIEA0RNgL45lclBMbRwRzDEYT4iPARMELnERnfQAkH9iGjzNaBO2mT3SkeImLuL6FAb+CLvpJ82tlvtwXKa+acEh74vvDQ1TEjYBZFkM+vwzZBvZ4vvpEj4FRydzZ05zYefm52uWwGkbWwjiLoVPZsk9/RMNwufAPvquOzexkhjZgD+ptpK7mZFAvFlz/qPUR3T7wXuFYk82X455the9XjyZTPGjVEZwW1K6ZZ9n6tyfuWEqeJyLwhZUR0q2GWiBWukgOoqXCOaOAwHV3ZLphj8Qo23ZbU7b5J+8ctp7Y07SbtGU63HFtgViJbFXNb8dgC10EeJmcsNboonvQ42tJhdkH78C1s1YM8MvTR7mIbE6u0E+mLlJpLlbKULk58jnUfBdetbgYVtVnQ5zhDTl5bithPr8SL+vvTjoU9buHyILN2tmeQ2he+iuyOaymvzCbnx1q2KjX+h8OZRjbLcgr8Bkc+Gz8QcDuV6+gDAW1HZG4G8F2agLPcgQ+KMl+NqNOsDGdzy7GUD8HTrLLLRHd0LEKHxr5gOTT2ToVdchMrXx4aG3mM8gNKZ8/JCY9RNhN/eYyyBYdSQNZ9FqMw1cHia+jU+PJgcSX2Iv/GZaIjNbl7+4t7TEraSYrU5RIB8N3NzHpWzJEzI8otGUoosFgYa659ojLtaC0rb9KnSiTCkcLfsdSRC7GnJZm8nZbimwJXiw7+J03sJ9JccqElqd3sm1ciMcZHJuXf0wBfdsegh7Qo7iOX1ygtl9SybUQJ6GDSycx+gmadyiQwGuvc2Acm2dLYIi2H/wAfNZcr5CQ3BwAAAABJRU5ErkJggg==;" vertex="1" parent="I9OwONVPuuNTIhYXYgKd-61">
          <mxGeometry x="29.5" y="19" width="51" height="51" as="geometry" />
        </mxCell>
      </root>
    </mxGraphModel>
  </diagram>
</mxfile>
